<?xml version="1.0" encoding="UTF-8"?>
<svg width="16px" height="16px" viewBox="0 0 16 16" version="1.1" xmlns="http://www.w3.org/2000/svg" xmlns:xlink="http://www.w3.org/1999/xlink">
    <title>email</title>
    <g id="Login-Signup-Flow" stroke="none" stroke-width="1" fill="none" fill-rule="evenodd">
        <g id="Onboarding-icons" transform="translate(-28.000000, -23.000000)">
            <g id="email" transform="translate(28.000000, 23.000000)">
                <rect id="Rectangle" x="0" y="0" width="16" height="16"></rect>
                <path d="M13.6888889,1.94444444 C14.716571,1.94444444 15.5555556,2.783429 15.5555556,3.81111111 L15.5555556,3.81111111 L15.5555556,12.3444444 C15.5555556,13.3721266 14.716571,14.2111111 13.6888889,14.2111111 L13.6888889,14.2111111 L2.31111111,14.2111111 C1.283429,14.2111111 0.444444444,13.3721266 0.444444444,12.3444444 L0.444444444,12.3444444 L0.444444444,3.81111111 C0.444444444,2.783429 1.283429,1.94444444 2.31111111,1.94444444 L2.31111111,1.94444444 Z M14.6664444,4.66344444 L8.25487215,9.15299196 C8.12370257,9.24481067 7.95532018,9.25792763 7.81351837,9.19234284 L7.74512785,9.15299196 L1.33244444,4.66344444 L1.33333333,12.3444444 C1.33333333,12.8428666 1.71359665,13.2587315 2.19768195,13.3155978 L2.31111111,13.3222222 L13.6888889,13.3222222 C14.2256512,13.3222222 14.6666667,12.8812068 14.6666667,12.3444444 L14.6666667,12.3444444 L14.6664444,4.66344444 Z M13.6888889,2.83333333 L2.31111111,2.83333333 C1.84824074,2.83333333 1.45657026,3.16128399 1.35750553,3.59577946 L8,8.24577778 L14.6424945,3.59577946 C14.5434297,3.16128399 14.1517593,2.83333333 13.6888889,2.83333333 L13.6888889,2.83333333 Z" id="Combined-Shape" fill="#9FA5AE" fill-rule="nonzero"></path>
            </g>
        </g>
    </g>
</svg>