<?xml version="1.0" encoding="UTF-8"?>
<svg width="16px" height="16px" viewBox="0 0 16 16" version="1.1" xmlns="http://www.w3.org/2000/svg" xmlns:xlink="http://www.w3.org/1999/xlink">
    <title>error</title>
    <g id="Login-Signup-Flow" stroke="none" stroke-width="1" fill="none" fill-rule="evenodd">
        <g id="Onboarding-icons" transform="translate(-28.000000, -119.000000)" fill="#FFFFFF" fill-rule="nonzero">
            <path d="M36,119 C40.418278,119 44,122.581722 44,127 C44,131.418278 40.418278,135 36,135 C31.581722,135 28,131.418278 28,127 C28,122.581722 31.581722,119 36,119 Z M36.03338,129.541176 L35.9362812,129.549232 C35.7048832,129.591568 35.5294118,129.795717 35.5294118,130.041176 C35.5294118,130.317319 35.7514927,130.541176 36.03338,130.541176 L36.03338,130.541176 L36.1225424,130.533121 C36.3539404,130.490785 36.5294118,130.286636 36.5294118,130.041176 C36.5294118,129.765034 36.3073308,129.541176 36.03338,129.541176 L36.03338,129.541176 Z M36.0294118,122.704714 C35.7532694,122.704714 35.5294118,122.915404 35.5294118,123.175302 L35.5294118,123.175302 L35.5294118,127.68465 L35.5374674,127.769239 C35.5798034,127.988768 35.7839519,128.155238 36.0294118,128.155238 C36.3055541,128.155238 36.5294118,127.944549 36.5294118,127.68465 L36.5294118,127.68465 L36.5294118,123.175302 L36.5213561,123.090714 C36.4790201,122.871185 36.2748717,122.704714 36.0294118,122.704714 Z" id="error"></path>
        </g>
    </g>
</svg>