<?xml version="1.0" encoding="UTF-8"?>
<svg width="16px" height="16px" viewBox="0 0 16 16" version="1.1" xmlns="http://www.w3.org/2000/svg" xmlns:xlink="http://www.w3.org/1999/xlink">
    <title>hide</title>
    <g id="Login-Signup-Flow" stroke="none" stroke-width="1" fill="none" fill-rule="evenodd">
        <g id="Onboarding-icons" transform="translate(-28.000000, -71.000000)" fill="#9FA5AE" fill-rule="nonzero">
            <g id="hide" transform="translate(28.000000, 71.000000)">
                <path d="M1.14160489,0.523192141 L1.20315857,0.574619208 L9.66973682,9.04188407 C9.67099365,9.04302903 9.67224564,9.04418253 9.67349273,9.04534458 L9.67644441,9.04844444 L15.4253808,14.7968414 C15.5989471,14.9704078 15.5989471,15.2518144 15.4253808,15.4253808 C15.2710996,15.579662 15.0316112,15.5968043 14.8583951,15.4768079 L14.7968414,15.4253808 L11.7926587,12.4211687 C10.6760613,13.1772081 9.36048374,13.5939726 8,13.6161616 C5.87917871,13.6161616 4.01487414,12.5875798 2.42323599,10.8898324 C1.87336674,10.3033052 1.39534239,9.67638804 0.990285529,9.04920322 C0.895582825,8.90256678 0.809341698,8.76271116 0.731631029,8.63111972 L0.621471478,8.44011611 C0.558171938,8.32758359 0.514715277,8.24546077 0.491365693,8.1987616 C0.426782756,8.06959572 0.428982436,7.9171043 0.497264147,7.78985499 C1.25146822,6.38432566 2.26957652,5.13933333 3.4942138,4.12223157 L0.574619208,1.20315857 C0.401052856,1.02959222 0.401052856,0.74818556 0.574619208,0.574619208 C0.72890041,0.420338007 0.968388767,0.403195651 1.14160489,0.523192141 Z M4.12544441,4.75344444 L4.42973375,4.51323444 C3.22853107,5.43048616 2.22121911,6.57507082 1.46445274,7.88048055 L1.39466667,8.00444444 L1.42377707,8.05472741 C1.48360691,8.15931795 1.55739812,8.28293392 1.64491028,8.42236901 L1.7369872,8.56695839 C2.11475862,9.15189479 2.56097669,9.73709881 3.0717135,10.2818848 C4.51037838,11.8164606 6.16122533,12.7272727 7.99273452,12.7273321 C9.11604822,12.7089665 10.2086887,12.3791179 11.1508239,11.7793444 L9.35049768,9.97869633 C8.78332017,10.3897754 8.05554483,10.5352646 7.36176407,10.3580852 C6.51714354,10.1423839 5.8576161,9.48285646 5.64191484,8.63823593 C5.4647354,7.94445517 5.61022465,7.21667983 6.02130367,6.64950232 L4.12544441,4.75344444 Z M8,2.38380516 C10.1208216,2.38380516 11.9851263,3.41240723 13.5767645,5.11015995 C14.1266337,5.69668894 14.604658,6.32360804 15.0097148,6.95079477 C15.1044175,7.09743166 15.1906586,7.2372877 15.2683693,7.36887953 L15.3785288,7.55988372 C15.4418283,7.67241656 15.485285,7.75453962 15.5086346,7.8012389 C15.5731047,7.93017953 15.5710312,8.08238005 15.5030724,8.20951655 C15.0960721,8.97092841 14.6106892,9.68776711 14.0548169,10.3483754 C13.8967789,10.5361906 13.6164095,10.5603297 13.4285943,10.4022917 C13.2407791,10.2442536 13.21664,9.9638842 13.374678,9.77606904 C13.8047095,9.26501214 14.189298,8.71770463 14.5242028,8.14040918 L14.6044444,7.99555556 L14.5762226,7.94527121 C14.5163928,7.84068032 14.4426016,7.71706394 14.3550894,7.57762838 L14.2630125,7.43303853 C13.885241,6.84810023 13.4390229,6.2628943 12.928286,5.7181066 C11.4896211,4.18352591 9.83877431,3.27271099 7.99897141,3.2727098 C7.57638923,3.27173181 7.15514383,3.31987792 6.74371901,3.41618165 C6.50471927,3.47212521 6.26562048,3.32372885 6.20967693,3.08472911 C6.15373338,2.84572937 6.30212974,2.60663059 6.54112948,2.55068703 C7.01963551,2.43868136 7.50955752,2.38268587 8,2.38380516 Z M6.50316196,8.41828853 C6.63843224,8.94796581 7.05203419,9.36156776 7.58171147,9.49683804 C7.96929947,9.59582122 8.37380575,9.53422004 8.70895813,9.33734032 L6.66265968,7.29104187 C6.46577996,7.62619425 6.40417878,8.03070053 6.50316196,8.41828853 Z" id="Combined-Shape"></path>
            </g>
        </g>
    </g>
</svg>