<?xml version="1.0" encoding="UTF-8"?>
<svg width="16px" height="16px" viewBox="0 0 16 16" version="1.1" xmlns="http://www.w3.org/2000/svg" xmlns:xlink="http://www.w3.org/1999/xlink">
    <title>success</title>
    <g id="Login-Signup-Flow" stroke="none" stroke-width="1" fill="none" fill-rule="evenodd">
        <g id="Onboarding-icons" transform="translate(-28.000000, -143.000000)" fill="#FFFFFF">
            <path d="M36,143 C40.418278,143 44,146.581722 44,151 C44,155.418278 40.418278,159 36,159 C31.581722,159 28,155.418278 28,151 C28,146.581722 31.581722,143 36,143 Z M40.5134028,147.966447 C40.3181407,147.771184 40.0015582,147.771184 39.806296,147.966447 L39.806296,147.966447 L34.793,152.98 L32.8176187,151.034352 L32.7483708,150.976497 C32.5535027,150.841501 32.2840783,150.860786 32.110512,151.034352 C31.9152498,151.229614 31.9152498,151.546197 32.110512,151.741459 L32.110512,151.741459 L34.4393178,154.040532 L34.5085657,154.098387 C34.7034339,154.233383 34.9728583,154.214098 35.1464246,154.040532 L35.1464246,154.040532 L40.5134028,148.673553 L40.5712583,148.604306 C40.7062543,148.409437 40.6869692,148.140013 40.5134028,147.966447 Z" id="success"></path>
        </g>
    </g>
</svg>