<?xml version="1.0" encoding="UTF-8"?>
<svg width="16px" height="16px" viewBox="0 0 16 16" version="1.1" xmlns="http://www.w3.org/2000/svg" xmlns:xlink="http://www.w3.org/1999/xlink">
    <title>username</title>
    <g id="Login-Signup-Flow" stroke="none" stroke-width="1" fill="none" fill-rule="evenodd">
        <g id="Onboarding-icons" transform="translate(-28.000000, -95.000000)">
            <g id="username" transform="translate(28.000000, 95.000000)">
                <rect id="Rectangle" x="0" y="0" width="16" height="16"></rect>
                <path d="M11.3663158,10.1052632 C13.3993881,10.1052632 15.0585171,11.7063044 15.1516649,13.7163489 L15.1557895,13.8947368 L15.1557895,15.5789474 C15.1557895,15.8114883 14.9672778,16 14.7347368,16 C14.5280338,16 14.3561193,15.8510525 14.3204679,15.6546321 L14.3136842,15.5789474 L14.3136842,13.8947368 C14.3136842,12.3212098 13.0806083,11.035683 11.5280296,10.9517296 L11.3663158,10.9473684 L4.62947368,10.9473684 C3.05594661,10.9473684 1.77041983,12.1804443 1.68646641,13.733023 L1.68210526,13.8947368 L1.68210526,15.5789474 C1.68210526,15.8114883 1.49359358,16 1.26105263,16 C1.05434957,16 0.882435057,15.8510525 0.846783722,15.6546321 L0.84,15.5789474 L0.84,13.8947368 C0.84,11.8616646 2.44104128,10.2025355 4.45108572,10.1093878 L4.62947368,10.1052632 L11.3663158,10.1052632 Z M7.99789474,0 C10.0907633,0 11.7873684,1.69660516 11.7873684,3.78947368 C11.7873684,5.88234221 10.0907633,7.57894737 7.99789474,7.57894737 C5.90502621,7.57894737 4.20842105,5.88234221 4.20842105,3.78947368 C4.20842105,1.69660516 5.90502621,0 7.99789474,0 Z M7.99789474,0.842105263 C6.37010811,0.842105263 5.05052632,2.16168705 5.05052632,3.78947368 C5.05052632,5.41726032 6.37010811,6.73684211 7.99789474,6.73684211 C9.62568137,6.73684211 10.9452632,5.41726032 10.9452632,3.78947368 C10.9452632,2.16168705 9.62568137,0.842105263 7.99789474,0.842105263 Z" id="Combined-Shape" fill="#9FA5AE" fill-rule="nonzero"></path>
            </g>
        </g>
    </g>
</svg>