<?xml version="1.0" encoding="UTF-8"?>
<svg width="16px" height="16px" viewBox="0 0 16 16" version="1.1" xmlns="http://www.w3.org/2000/svg" xmlns:xlink="http://www.w3.org/1999/xlink">
    <title>Group 4</title>
    <g id="Login-Signup-Flow" stroke="none" stroke-width="1" fill="none" fill-rule="evenodd">
        <g id="8" transform="translate(-343.000000, -335.000000)">
            <g id="Group-8" transform="translate(60.000000, 172.000000)">
                <g id="Group-3" transform="translate(0.000000, 153.000000)">
                    <g id="Group-4" transform="translate(283.000000, 10.000000)">
                        <rect id="Rectangle" x="1.13241185e-07" y="0" width="16" height="16"></rect>
                        <path d="M14.3938849,0.486446609 C14.589147,0.291184464 14.9057295,0.291184464 15.1009916,0.486446609 C15.274558,0.660012961 15.2938431,0.929437362 15.1588471,1.1243055 L15.1009916,1.19355339 L13.949,2.345 L15.8535535,4.24925594 C16.0271199,4.4228223 16.046405,4.6922467 15.911409,4.88711484 L15.8535535,4.95636272 L13.219587,7.59032926 C13.0460206,7.76389561 12.7765962,7.78318076 12.5817281,7.64818471 L12.5124802,7.59032926 L10.608,5.686 L8.20509576,8.08855986 C9.03586925,9.10812047 9.39512317,10.4349525 9.19171322,11.7348788 L9.14687538,11.9786079 L9.09190313,12.2091166 C8.6646156,13.8181413 7.40791423,15.0748426 5.79888955,15.5021302 C4.18986486,15.9294177 2.47525066,15.4617695 1.3022484,14.2729016 C-0.455837885,12.4526206 -0.430694779,9.55919264 1.35875913,7.76973873 C3.02975793,6.09873993 5.66341044,5.96620158 7.49068273,7.38995269 L14.3938849,0.486446609 Z M7.16721025,8.4325162 C5.73930806,7.05340213 3.46958602,7.0731254 2.06586591,8.47684551 C0.662145801,9.88056562 0.64242253,12.1502877 2.01780684,13.5743692 C2.93503152,14.5039682 4.28004433,14.8708103 5.54222846,14.5356287 C6.80441258,14.2004471 7.79022002,13.2146396 8.12540166,11.9524555 C8.46058331,10.6902714 8.09374116,9.34525856 7.16721025,8.4325162 Z M13.242,3.052 L11.315,4.979 L12.8660001,6.53 L14.7930001,4.603 L13.242,3.052 Z" id="Combined-Shape" fill="#9FA5AE" fill-rule="nonzero"></path>
                    </g>
                </g>
            </g>
        </g>
    </g>
</svg>