<?xml version="1.0" encoding="UTF-8"?>
<svg width="113px" height="28px" viewBox="0 0 113 28" version="1.1" xmlns="http://www.w3.org/2000/svg" xmlns:xlink="http://www.w3.org/1999/xlink">
    <title>Group 35</title>
    <g id="Login-Signup-Flow" stroke="none" stroke-width="1" fill="none" fill-rule="evenodd">
        <g id="1" transform="translate(-161.000000, -203.000000)" fill="#FFFFFF" fill-rule="nonzero">
            <g id="Group-5" transform="translate(60.000000, 204.000000)">
                <g id="Group-35" transform="translate(102.000000, 0.000000)">
                    <path d="M25.9573559,0 L25.9573559,26 L4.7251157e-13,26 L-0.00184424705,24.7047084 L-0.00141512843,24.651479 L-0.00141512843,24.651479 L4.7251157e-13,0 L25.9573559,0 Z M35.8418883,7.20385838 L39.0544436,15.4986957 L42.183578,7.20385838 L47.1241198,7.20385838 L50.3149009,15.3292331 L53.4222879,7.20385838 L56.7044663,7.20385838 L50.4559558,23.1127877 L50.4484913,23.1324897 C50.1335427,23.9576621 49.6915507,24.62977 49.11974,25.1373858 L49.1023727,25.1527177 L49.0847492,25.1681022 C48.4406122,25.7272386 47.6026738,26 46.6061914,26 C46.3175469,26 46.0291334,25.9759275 45.7413853,25.9278935 C45.4793432,25.8841506 45.2247561,25.8276534 44.977732,25.7583266 L44.9440938,25.7487934 L44.299738,25.5644001 L44.6206019,22.5649264 L45.5939007,22.8628392 C45.7784044,22.9189275 45.9663318,22.9718196 46.1576874,23.0215089 C46.3125494,23.0617219 46.4696665,23.0817503 46.6306555,23.0817503 C46.7591116,23.0817503 46.8574948,23.0575477 46.9388893,23.0118947 C47.055942,22.9462413 47.1541499,22.8638905 47.2376647,22.7616551 C47.3440217,22.6314573 47.436652,22.4848097 47.5156946,22.3203842 C47.604341,22.135981 47.6832504,21.9485362 47.7524744,21.7579653 L47.7687444,21.7126514 L48.6846962,19.3754393 L44.5897572,9.25276196 L40.3157774,20.1192993 L37.7224121,20.1192993 L32.4471792,7.20385838 L35.8418883,7.20385838 Z M23.3702183,15.0964632 L6.77318708,23.4086121 L23.3702183,23.4086121 L23.3702183,15.0964632 Z M23.3707991,9.08470296 C21.0034633,12.2485113 17.2297504,14.2956875 12.978678,14.2956875 C8.72794706,14.2956875 4.95449885,12.2488401 2.58712734,9.08546534 L2.58706288,22.607 L23.3700629,12.199 L23.3707991,9.08470296 Z M104.224625,8.008 C105.159159,8.008 106.041775,8.164 106.872472,8.476 C107.70317,8.788 108.421377,9.23 109.027094,9.802 C109.632811,10.374 110.113057,11.063 110.467834,11.869 C110.822611,12.675 111,13.572 111,14.56 C111,15.548 110.822611,16.445 110.467834,17.251 C110.113057,18.057 109.632811,18.746 109.027094,19.318 C108.421377,19.89 107.70317,20.332 106.872472,20.644 C106.041775,20.956 105.159159,21.112 104.224625,21.112 C103.29009,21.112 102.407474,20.956 101.576777,20.644 C100.746079,20.332 100.027872,19.89 99.4221553,19.318 C98.8164385,18.746 98.3361915,18.057 97.9814145,17.251 C97.6266375,16.445 97.449249,15.548 97.449249,14.56 C97.449249,13.572 97.6266375,12.675 97.9814145,11.869 C98.3361915,11.063 98.8164385,10.374 99.4221553,9.802 C100.027872,9.23 100.746079,8.788 101.576777,8.476 C102.407474,8.164 103.29009,8.008 104.224625,8.008 Z M94.4898896,8.32 L94.4898896,20.8 L91.3747744,20.8 L91.3747744,8.32 L94.4898896,8.32 Z M86.2797562,17.4941406 C87.0848079,17.4941406 87.7374313,18.1477874 87.7374313,18.9541016 C87.7374313,19.7604157 87.0848079,20.4140625 86.2797562,20.4140625 C85.4747044,20.4140625 84.822081,19.7604157 84.822081,18.9541016 C84.822081,18.1477874 85.4747044,17.4941406 86.2797562,17.4941406 Z M59.7882496,0 L59.7882384,8.04945644 L59.8008879,8.04059841 C60.0606434,7.85930044 60.3333865,7.69970919 60.6187966,7.56206653 L60.6473798,7.54837543 L60.6720607,7.53670317 C61.1291243,7.32182324 61.609324,7.16305964 62.1113382,7.06063549 C62.6032502,6.96027246 63.0886273,6.90982334 63.5668481,6.90982334 C64.5310998,6.90982334 65.4274851,7.07557201 66.2506361,7.40905943 C67.0743172,7.74276157 67.7923807,8.2144453 68.3988141,8.82183939 C69.0052522,9.42923812 69.4761973,10.1484504 69.8093786,10.9734535 C70.1423489,11.7979339 70.3078409,12.6957692 70.3078409,13.6615788 C70.3078409,14.6273885 70.1423489,15.5252238 69.8093786,16.3497042 C69.4761973,17.1747072 69.0052522,17.8939195 68.3988141,18.5013183 C67.7923807,19.1087124 67.0743172,19.5803961 66.2506361,19.9140982 C65.4274851,20.2475856 64.5310998,20.4133343 63.5668481,20.4133343 C63.0886273,20.4133343 62.6032502,20.3628852 62.1113382,20.2625222 C61.609324,20.160098 61.1291243,20.0013344 60.6720607,19.7864545 C60.3768014,19.6476438 60.0949293,19.4855841 59.8267937,19.3005386 L59.8008879,19.2825593 L59.7882384,19.2736883 L59.7882496,20.1192993 L56.7279985,20.1192993 L56.7279985,0 L59.7882496,0 Z M78.0810882,6.90982334 C79.0453399,6.90982334 79.9417252,7.07557201 80.7648763,7.40905943 C81.5885573,7.74276157 82.3066208,8.2144453 82.9130542,8.82183939 C83.5194923,9.42923812 83.9904374,10.1484504 84.3236187,10.9734535 C84.656589,11.7979339 84.822081,12.6957692 84.822081,13.6615788 C84.822081,14.6273885 84.656589,15.5252238 84.3236187,16.3497042 C83.9904374,17.1747072 83.5194923,17.8939195 82.9130542,18.5013183 C82.3066208,19.1087124 81.5885573,19.5803961 80.7648763,19.9140982 C79.9417252,20.2475856 79.0453399,20.4133343 78.0810882,20.4133343 C77.1176218,20.4133343 76.2181416,20.247862 75.3879254,19.9152494 C74.5535085,19.5809539 73.8328015,19.1075337 73.2325425,18.49693 C72.6361769,17.8902867 72.1708948,17.1726172 71.8385576,16.3497042 C71.5055874,15.5252238 71.3400953,14.6273885 71.3400953,13.6615788 C71.3400953,12.6957692 71.5055874,11.7979339 71.8385576,10.9734535 C72.1708948,10.1505405 72.6361769,9.43287096 73.2325425,8.82622768 C73.8328015,8.21562395 74.5535085,7.74220372 75.3879254,7.40790824 C76.2181416,7.07529571 77.1176218,6.90982334 78.0810882,6.90982334 Z M104.224625,10.816 C103.65352,10.816 103.142987,10.92 102.693026,11.128 C102.243065,11.336 101.858002,11.6133333 101.537838,11.96 C101.217673,12.3066667 100.975386,12.7053333 100.810977,13.156 C100.646569,13.6066667 100.564364,14.0746667 100.564364,14.56 C100.564364,15.0453333 100.646569,15.5133333 100.810977,15.964 C100.975386,16.4146667 101.217673,16.8133333 101.537838,17.16 C101.858002,17.5066667 102.243065,17.784 102.693026,17.992 C103.142987,18.2 103.65352,18.304 104.224625,18.304 C104.795729,18.304 105.306262,18.2 105.756223,17.992 C106.206184,17.784 106.591247,17.5066667 106.911411,17.16 C107.231576,16.8133333 107.473863,16.4146667 107.638272,15.964 C107.80268,15.5133333 107.884885,15.0453333 107.884885,14.56 C107.884885,14.0746667 107.80268,13.6066667 107.638272,13.156 C107.473863,12.7053333 107.231576,12.3066667 106.911411,11.96 C106.591247,11.6133333 106.206184,11.336 105.756223,11.128 C105.306262,10.92 104.795729,10.816 104.224625,10.816 Z M63.5668481,9.82807303 C63.0040023,9.82807303 62.4909567,9.92949242 62.0211822,10.1311433 C61.5400476,10.3376705 61.1254937,10.6133431 60.7727339,10.9598671 C60.4224864,11.3039232 60.1464921,11.7084571 59.942386,12.1786449 C59.7417174,12.6409136 59.6414646,13.1329307 59.6414646,13.6615788 C59.6414646,14.190227 59.7417174,14.682244 59.942386,15.1445128 C60.1464921,15.6147005 60.4224864,16.0192344 60.7727339,16.3632905 C61.1254937,16.7098145 61.5400476,16.9854872 62.0211822,17.1920144 C62.4909567,17.3936652 63.0040023,17.4950846 63.5668481,17.4950846 C64.1444512,17.4950846 64.6548801,17.3941825 65.1047745,17.1953853 C65.5632429,16.9927994 65.9480462,16.7236749 66.2652818,16.3860781 C66.5814042,16.049666 66.8220885,15.6533938 66.9894172,15.190835 C67.1612681,14.7157752 67.2475899,14.2073992 67.2475899,13.6615788 C67.2475899,13.1157585 67.1612681,12.6073824 66.9894172,12.1323227 C66.8220885,11.6697638 66.5814042,11.2734916 66.2652818,10.9370795 C65.9480462,10.5994828 65.5632429,10.3303583 65.1047745,10.1277724 C64.6548801,9.92897517 64.1444512,9.82807303 63.5668481,9.82807303 Z M78.0810882,9.82807303 C77.503485,9.82807303 76.9930561,9.92897517 76.5431617,10.1277724 C76.0846933,10.3303583 75.69989,10.5994828 75.3826544,10.9370795 C75.066532,11.2734916 74.8258477,11.6697638 74.658519,12.1323227 C74.4866681,12.6073824 74.4003464,13.1157585 74.4003464,13.6615788 C74.4003464,14.2073992 74.4866681,14.7157752 74.658519,15.190835 C74.8258477,15.6533938 75.066532,16.049666 75.3826544,16.3860781 C75.69989,16.7236749 76.0846933,16.9927994 76.5431617,17.1953853 C76.9930561,17.3941825 77.503485,17.4950846 78.0810882,17.4950846 C78.6586913,17.4950846 79.1691202,17.3941825 79.6190146,17.1953853 C80.077483,16.9927994 80.4622863,16.7236749 80.7795219,16.3860781 C81.0956443,16.049666 81.3363286,15.6533938 81.5036573,15.190835 C81.6755082,14.7157752 81.76183,14.2073992 81.76183,13.6615788 C81.76183,13.1157585 81.6755082,12.6073824 81.5036573,12.1323227 C81.3363286,11.6697638 81.0956443,11.2734916 80.7795219,10.9370795 C80.4622863,10.5994828 80.077483,10.3303583 79.6190146,10.1277724 C79.1691202,9.92897517 78.6586913,9.82807303 78.0810882,9.82807303 Z M23.2904356,2.59192997 L2.66688557,2.59164942 C3.30382468,7.72858576 7.67772247,11.7043125 12.978678,11.7043125 C18.279537,11.7043125 22.653372,7.72873051 23.2904356,2.59192997 Z M92.9063727,2.21 C93.4774772,2.21 93.9577241,2.38766667 94.3471135,2.743 C94.7365029,3.09833333 94.9311976,3.54466667 94.9311976,4.082 C94.9311976,4.61933333 94.7365029,5.06566667 94.3471135,5.421 C93.9577241,5.77633333 93.4774772,5.954 92.9063727,5.954 C92.3352683,5.954 91.8636745,5.76766667 91.4915913,5.395 C91.1195081,5.02233333 90.9334665,4.58466667 90.9334665,4.082 C90.9334665,3.57933333 91.1195081,3.14166667 91.4915913,2.769 C91.8636745,2.39633333 92.3352683,2.21 92.9063727,2.21 Z" id="Combined-Shape"></path>
                </g>
            </g>
        </g>
    </g>
</svg>