<?xml version="1.0" encoding="UTF-8"?>
<svg width="96px" height="96px" viewBox="0 0 96 96" version="1.1" xmlns="http://www.w3.org/2000/svg" xmlns:xlink="http://www.w3.org/1999/xlink">
    <title>no camera_big</title>
    <g id="Login-Signup-Flow" stroke="none" stroke-width="1" fill="none" fill-rule="evenodd">
        <g id="Onboarding-icons" transform="translate(-28.000000, -252.000000)">
            <g id="no-camera_big" transform="translate(28.000000, 252.000000)">
                <rect id="Rectangle" x="0" y="0" width="96" height="96"></rect>
                <path d="M69.0717432,1.62117164 C70.3398054,2.37019649 70.8547127,3.90690784 70.3616594,5.24107774 L70.1290185,5.72996329 L19.3835064,91.6396196 C18.5408535,93.0661896 16.7012848,93.539548 15.2747148,92.696895 C14.0066525,91.9478701 13.4917452,90.4111588 13.9847986,89.0769889 L14.2174394,88.5881033 L64.9629515,2.678447 C65.8056045,1.25187699 67.6451732,0.778518684 69.0717432,1.62117164 Z M46.825,21.9996 L16.543,73.9996 L12,74 C8.76160306,74 6.12242824,71.4344251 6.00413847,68.2249383 L6,68 L6,28 C6,24.7616031 8.56557489,22.1224282 11.7750617,22.0041385 L12,22 L46.825,21.9996 Z M66.9929403,22.7986158 C68.7211101,23.7951732 69.9060722,25.6282551 69.9946666,27.7447017 L70,28 L70,39.196 L86.9185528,28.3175993 C88.1118876,27.5505237 89.6423323,28.2393594 89.9462055,29.5303713 L89.9739986,29.6709594 L90,30 L90,66 C90,67.5312534 88.3606889,68.4756755 87.0485983,67.7595846 L86.9185528,67.6824007 L70,56.808 L70,68 C70,71.0408149 67.7379381,73.5532968 64.8047656,73.9464946 L64.57784,73.9725337 L64,74 L37.175,73.9996 L66.9929403,22.7986158 Z" id="Combined-Shape" fill="#565C6D" fill-rule="nonzero"></path>
            </g>
        </g>
    </g>
</svg>