<?xml version="1.0" encoding="UTF-8"?>
<svg width="32px" height="32px" viewBox="0 0 32 32" version="1.1" xmlns="http://www.w3.org/2000/svg" xmlns:xlink="http://www.w3.org/1999/xlink">
    <title>export</title>
    <g id="Login-Signup-Flow" stroke="none" stroke-width="1" fill="none" fill-rule="evenodd">
        <g id="App-icons" transform="translate(-206.000000, -109.000000)">
            <g id="export" transform="translate(206.000000, 109.000000)">
                <rect id="Rectangle" fill="#2A303E" x="0" y="0" width="32" height="32" rx="16"></rect>
                <g id="Group-22" transform="translate(8.000000, 8.000000)">
                    <rect id="Rectangle" x="0" y="0" width="16" height="16"></rect>
                    <path d="M3.51505254,6.56067743 C3.79119491,6.56067743 4.01505254,6.78453505 4.01505254,7.06067743 C4.01505254,7.30613732 3.83817738,7.5102858 3.60492817,7.55262176 L3.51505254,7.56067743 L1.001,7.56 L1.001,14.994 L15,14.994 L15,7.56 L12.5446605,7.56067743 C12.2992006,7.56067743 12.0950521,7.38380227 12.0527162,7.15055306 L12.0446605,7.06067743 C12.0446605,6.81521754 12.2215357,6.61106906 12.4547849,6.5687331 L12.5446605,6.56067743 L15.5009766,6.56067743 C15.7464365,6.56067743 15.9505849,6.73755259 15.9929209,6.9708018 L16.0009766,7.06067743 L16.0009766,15.4949493 C16.0009766,15.7404092 15.8241014,15.9445577 15.5908522,15.9868937 L15.5009766,15.9949493 L0.501785278,15.9949493 C0.25632539,15.9949493 0.052176908,15.8180742 0.00984094773,15.584825 L0.00178527832,15.4949493 L0.00178527832,7.06067743 C0.00178527832,6.81521754 0.178660439,6.61106906 0.411909646,6.5687331 L0.501785278,6.56067743 L3.51505254,6.56067743 Z M8.00138092,0.0158415402 L8.01226017,0.0159590943 C8.03273378,0.01640177 8.05318569,0.0180946729 8.07349164,0.0210379604 L8.00138092,0.0158415402 C8.0381999,0.0158415402 8.07408938,0.0198212313 8.10864266,0.0273739223 C8.1226871,0.0304848483 8.13678054,0.0342096358 8.1507214,0.0385590236 C8.16418587,0.042730121 8.1775053,0.0475300193 8.19054907,0.0528651259 C8.20648896,0.0593817126 8.22197868,0.0666549417 8.23713888,0.0747656119 C8.24674399,0.079948169 8.25611099,0.0853679831 8.26527967,0.0910763938 C8.27166638,0.0949996722 8.27815212,0.0992450763 8.28455799,0.103656739 L8.30643296,0.119649868 C8.31777836,0.128398321 8.32873749,0.137623217 8.33928041,0.147294599 L8.35379494,0.161152442 L10.867592,2.65882534 C11.0634814,2.85345823 11.0645,3.17003908 10.8698671,3.36592846 C10.6968601,3.54005235 10.4274991,3.56020426 10.2321977,3.42583588 L10.162764,3.36820353 L8.50078528,1.71784154 L8.50138092,12.0902833 C8.50138092,12.3664257 8.2775233,12.5902833 8.00138092,12.5902833 C7.75592103,12.5902833 7.55177255,12.4134082 7.50943659,12.1801589 L7.50138092,12.0902833 L7.50078528,1.72084154 L5.85361749,3.36730844 C5.67993302,3.54075659 5.41049555,3.55985831 5.21571936,3.42472963 L5.14651088,3.36682704 C4.97306273,3.19314257 4.95396101,2.9237051 5.08908969,2.72892891 L5.14699227,2.65972043 L7.64806831,0.162047533 L7.66009449,0.150430289 C7.67256224,0.138780743 7.68562669,0.127761793 7.699237,0.117424274 L7.64806831,0.162047533 C7.67484686,0.135305424 7.70390427,0.112230843 7.73461549,0.0928245812 C7.74569845,0.0858608758 7.75733425,0.0791348819 7.76925368,0.0728758795 C7.78309427,0.0655973243 7.7968683,0.0591821524 7.81085045,0.0534276589 C7.82281006,0.0484758262 7.83552977,0.0438074861 7.84847949,0.0396527325 C7.86437106,0.0346089357 7.88012895,0.030418209 7.89602098,0.0270083452 C7.90624652,0.0247678371 7.9166387,0.0228786613 7.92713743,0.0213158569 C7.94797002,0.0182360935 7.96909016,0.0164338522 7.99023468,0.0159651121 C7.9938904,0.0158828247 7.99763084,0.0158415402 8.00138092,0.0158415402 Z" id="Combined-Shape" fill="#FFFFFF" fill-rule="nonzero"></path>
                </g>
            </g>
        </g>
    </g>
</svg>