<?xml version="1.0" encoding="UTF-8"?>
<svg width="16px" height="16px" viewBox="0 0 16 16" version="1.1" xmlns="http://www.w3.org/2000/svg" xmlns:xlink="http://www.w3.org/1999/xlink">
    <title>no camera</title>
    <g id="Login-Signup-Flow" stroke="none" stroke-width="1" fill="none" fill-rule="evenodd">
        <g id="Onboarding-icons" transform="translate(-28.000000, -215.000000)">
            <g id="no-camera" transform="translate(28.000000, 215.000000)">
                <rect id="Rectangle" x="0" y="0" width="16" height="16"></rect>
                <path d="M11.5119572,0.270195273 C11.7233009,0.395032748 11.8091188,0.651151306 11.7269432,0.873512957 L11.6881698,0.954993881 L3.2305844,15.2732699 C3.09014224,15.5110316 2.78354746,15.5899247 2.54578579,15.4494825 C2.33444209,15.324645 2.2486242,15.0685265 2.33079976,14.8461648 L2.36957323,14.7646839 L10.8271586,0.446407833 C10.9676007,0.208646164 11.2741955,0.129753114 11.5119572,0.270195273 Z M7.804,3.666 L2.757,12.333 L2,12.3333333 C1.48716416,12.3333333 1.06449284,11.9472931 1.00672773,11.4499545 L1,11.3333333 L1,4.66666667 C1,4.15383083 1.38604019,3.73115951 1.88337887,3.6733944 L2,3.66666667 L7.804,3.666 Z M11.1664164,3.80030415 C11.4322286,3.95396554 11.6207452,4.22644564 11.6593562,4.54513424 L11.6666667,4.66666667 L11.6666667,6.53266667 L14.4864255,4.71959989 C14.6695297,4.60190046 14.9002547,4.68986515 14.9752431,4.87246555 L14.9956664,4.9451599 L15,5 L15,11 C15,11.2397417 14.7588953,11.3931741 14.548388,11.311954 L14.4864255,11.2804001 L11.6666667,9.468 L11.6666667,11.3333333 C11.6666667,11.8131463 11.3287421,12.2140328 10.8779048,12.3109809 L10.7629733,12.3287556 L10.6666667,12.3333333 L6.196,12.333 L11.1664164,3.80030415 Z" id="Combined-Shape" fill="#FFFFFF" fill-rule="nonzero"></path>
            </g>
        </g>
    </g>
</svg>