<?xml version="1.0" encoding="UTF-8"?>
<svg width="32px" height="32px" viewBox="0 0 32 32" version="1.1" xmlns="http://www.w3.org/2000/svg" xmlns:xlink="http://www.w3.org/1999/xlink">
    <title>settings</title>
    <g id="Login-Signup-Flow" stroke="none" stroke-width="1" fill="none" fill-rule="evenodd">
        <g id="App-icons" transform="translate(-250.000000, -109.000000)">
            <g id="settings" transform="translate(250.000000, 109.000000)">
                <rect id="Rectangle" fill="#2A303E" x="0" y="0" width="32" height="32" rx="16"></rect>
                <path d="M16,8 C17.0340651,8 17.8723404,8.83827536 17.8723404,9.87234043 L17.8723404,9.87234043 L17.8723364,9.93158044 C17.8733104,10.1758115 18.0192254,10.3961431 18.2487312,10.4945383 C18.477902,10.5956805 18.7455594,10.5471492 18.9206263,10.3759455 L18.9206263,10.3759455 L19.0828395,10.2238657 C19.4186205,9.94225167 19.8442361,9.78616285 20.2859574,9.78616285 C20.7828939,9.78616285 21.2594467,9.98371277 21.6102366,10.3348936 C21.9618191,10.6860852 22.1593691,11.162638 22.1593691,11.6595745 C22.1593691,12.1565109 21.9618191,12.6330637 21.6104375,12.9840545 L21.6104375,12.9840545 L21.5735469,13.0209013 C21.3983827,13.1999725 21.3498515,13.4676299 21.4509937,13.6968007 L21.4509937,13.6968007 L21.4702298,13.7911376 L21.4948754,13.8366593 C21.5891079,13.989513 21.7459683,14.0935043 21.9223165,14.1206312 L21.9223165,14.1206312 L22.0119149,14.1276596 L22.1276596,14.1276596 C23.1617246,14.1276596 24,14.9659349 24,16 C24,17.0340651 23.1617246,17.8723404 22.1276596,17.8723404 L22.1276596,17.8723404 L22.0684196,17.8723364 C21.8241885,17.8733104 21.6038569,18.0192254 21.5054617,18.2487312 C21.4043195,18.477902 21.4528508,18.7455594 21.6240545,18.9206263 L21.6240545,18.9206263 L21.7761343,19.0828395 C22.0577483,19.4186205 22.2138371,19.8442361 22.2138371,20.2859574 C22.2138371,20.7828939 22.0162872,21.2594467 21.6651064,21.6102366 C21.3139148,21.9618191 20.837362,22.1593691 20.3404255,22.1593691 C19.8434891,22.1593691 19.3669363,21.9618191 19.0159455,21.6104375 L19.0159455,21.6104375 L18.9790987,21.5735469 C18.8000275,21.3983827 18.5323701,21.3498515 18.2981778,21.4531778 C18.0736935,21.5493888 17.9277785,21.7697205 17.9268085,22.0119149 L17.9268085,22.0119149 L17.9268085,22.1276596 C17.9268085,23.1617246 17.0885331,24 16.0544681,24 C15.020403,24 14.1821277,23.1617246 14.1821277,22.1276596 L14.1821277,22.1276596 L14.1822673,22.078324 C14.1763835,21.8267821 14.0173299,21.6044016 13.7512688,21.5054617 C13.522098,21.4043195 13.2544406,21.4528508 13.0793737,21.6240545 L13.0793737,21.6240545 L12.9171605,21.7761343 C12.5813795,22.0577483 12.1557639,22.2138371 11.7140426,22.2138371 C11.2171061,22.2138371 10.7405533,22.0162872 10.3897634,21.6651064 C10.0381809,21.3139148 9.84063094,20.837362 9.84063094,20.3404255 C9.84063094,19.8434891 10.0381809,19.3669363 10.3895625,19.0159455 L10.3895625,19.0159455 L10.4264531,18.9790987 C10.6016173,18.8000275 10.6501485,18.5323701 10.5468222,18.2981778 C10.4506112,18.0736935 10.2302795,17.9277785 9.98808511,17.9268085 L9.98808511,17.9268085 L9.87234043,17.9268085 C8.83827536,17.9268085 8,17.0885331 8,16.0544681 C8,15.020403 8.83827536,14.1821277 9.87234043,14.1821277 L9.87234043,14.1821277 L9.92167596,14.1822673 C10.1732179,14.1763835 10.3955984,14.0173299 10.4945383,13.7512688 C10.5956805,13.522098 10.5471492,13.2544406 10.3759455,13.0793737 L10.3759455,13.0793737 L10.2238657,12.9171605 C9.94225167,12.5813795 9.78616285,12.1557639 9.78616285,11.7140426 C9.78616285,11.2171061 9.98371277,10.7405533 10.3348936,10.3897634 C10.6860852,10.0381809 11.162638,9.84063094 11.6595745,9.84063094 C12.1565109,9.84063094 12.6330637,10.0381809 12.9840545,10.3895625 L12.9840545,10.3895625 L13.0209013,10.4264531 C13.1999725,10.6016173 13.4676299,10.6501485 13.6968007,10.5490063 L13.6968007,10.5490063 L13.7911376,10.5287716 L13.8366593,10.5051246 C13.989513,10.4108921 14.0935043,10.2540317 14.1206312,10.0776835 L14.1206312,10.0776835 L14.1276596,9.98808511 L14.1276596,9.87234043 C14.1276596,8.83827536 14.9659349,8 16,8 Z M16,9.0212766 C15.5299704,9.0212766 15.1489362,9.40231085 15.1489362,9.87234043 L15.1489362,9.87234043 L15.1489321,9.99012169 C15.1463346,10.6414044 14.757228,11.2289554 14.1586033,11.4855182 L14.1586033,11.4855182 L14.0397844,11.5093787 L13.9664592,11.5385165 C13.4376722,11.7150649 12.8538462,11.609012 12.4178457,11.2551815 L12.4178457,11.2551815 L12.302754,11.1525652 L12.2617021,11.1115132 C12.1020696,10.9517029 11.8854547,10.8619075 11.6595745,10.8619075 C11.4336943,10.8619075 11.2170794,10.9517029 11.0570451,11.1119149 C10.8972349,11.2715475 10.8074394,11.4881623 10.8074394,11.7140426 C10.8074394,11.9399228 10.8972349,12.1565377 11.057246,12.316371 L11.057246,12.316371 L11.1020575,12.3612264 C11.5691618,12.8387498 11.6985785,13.5525028 11.4409546,14.1337095 C11.2093512,14.7634316 10.6163367,15.1875744 9.93361702,15.2034043 L9.93361702,15.2034043 L9.87234043,15.2034043 C9.40231085,15.2034043 9.0212766,15.5844385 9.0212766,16.0544681 C9.0212766,16.5244977 9.40231085,16.9055319 9.87234043,16.9055319 L9.87234043,16.9055319 L9.99012169,16.905536 C10.6414044,16.9081335 11.2289554,17.2972401 11.4833341,17.8908432 C11.7530466,18.5019653 11.6236299,19.2157183 11.1525652,19.697246 L11.1525652,19.697246 L11.1115132,19.7382979 C10.9517029,19.8979304 10.8619075,20.1145453 10.8619075,20.3404255 C10.8619075,20.5663057 10.9517029,20.7829206 11.1119149,20.9429549 C11.2715475,21.1027651 11.4881623,21.1925606 11.7140426,21.1925606 C11.9399228,21.1925606 12.1565377,21.1027651 12.316371,20.942754 L12.316371,20.942754 L12.3612264,20.8979425 C12.8387498,20.4308382 13.5525028,20.3014215 14.1337095,20.5590454 C14.7634316,20.7906488 15.1875744,21.3836633 15.2034043,22.066383 L15.2034043,22.066383 L15.2034043,22.1276596 C15.2034043,22.5976891 15.5844385,22.9787234 16.0544681,22.9787234 C16.5244977,22.9787234 16.9055319,22.5976891 16.9055319,22.1276596 L16.9055319,22.1276596 L16.905536,22.0098783 C16.9081335,21.3585956 17.2972401,20.7710446 17.8908432,20.5166659 C18.5019653,20.2469534 19.2157183,20.3763701 19.697246,20.8474348 L19.697246,20.8474348 L19.7382979,20.8884868 C19.8979304,21.0482971 20.1145453,21.1380925 20.3404255,21.1380925 C20.5663057,21.1380925 20.7829206,21.0482971 20.9429549,20.8880851 C21.1027651,20.7284525 21.1925606,20.5118377 21.1925606,20.2859574 C21.1925606,20.0600772 21.1027651,19.8434623 20.942754,19.683629 L20.942754,19.683629 L20.8979425,19.6387736 C20.4308382,19.1612502 20.3014215,18.4474972 20.5689499,17.8413967 C20.8255127,17.242772 21.4130637,16.8536654 22.066383,16.8510638 L22.066383,16.8510638 L22.1276596,16.8510638 C22.5976891,16.8510638 22.9787234,16.4700296 22.9787234,16 C22.9787234,15.5299704 22.5976891,15.1489362 22.1276596,15.1489362 L22.1276596,15.1489362 L22.0098783,15.1489321 C21.3585956,15.1463346 20.7710446,14.757228 20.5144818,14.1586033 L20.5144818,14.1586033 L20.4896227,14.0397844 L20.4614835,13.9664592 C20.2849351,13.4376722 20.390988,12.8538462 20.7448185,12.4178457 L20.7448185,12.4178457 L20.8474348,12.302754 L20.8884868,12.2617021 C21.0482971,12.1020696 21.1380925,11.8854547 21.1380925,11.6595745 C21.1380925,11.4336943 21.0482971,11.2170794 20.8880851,11.0570451 C20.7284525,10.8972349 20.5118377,10.8074394 20.2859574,10.8074394 C20.0600772,10.8074394 19.8434623,10.8972349 19.683629,11.057246 L19.683629,11.057246 L19.6387736,11.1020575 C19.1612502,11.5691618 18.4474972,11.6985785 17.8413967,11.4310501 C17.242772,11.1744873 16.8536654,10.5869363 16.8510638,9.93361702 L16.8510638,9.93361702 L16.8510638,9.87234043 C16.8510638,9.40231085 16.4700296,9.0212766 16,9.0212766 Z M16,13.4468085 C17.4100887,13.4468085 18.5531915,14.5899113 18.5531915,16 C18.5531915,17.4100887 17.4100887,18.5531915 16,18.5531915 C14.5899113,18.5531915 13.4468085,17.4100887 13.4468085,16 C13.4468085,14.5899113 14.5899113,13.4468085 16,13.4468085 Z M16,14.4680851 C15.1539468,14.4680851 14.4680851,15.1539468 14.4680851,16 C14.4680851,16.8460532 15.1539468,17.5319149 16,17.5319149 C16.8460532,17.5319149 17.5319149,16.8460532 17.5319149,16 C17.5319149,15.1539468 16.8460532,14.4680851 16,14.4680851 Z" id="Combined-Shape" fill="#FFFFFF" fill-rule="nonzero"></path>
            </g>
        </g>
    </g>
</svg>