<?xml version="1.0" encoding="UTF-8"?>
<svg width="180px" height="180px" viewBox="0 0 180 180" version="1.1" xmlns="http://www.w3.org/2000/svg" xmlns:xlink="http://www.w3.org/1999/xlink">
    <title>pen_hold</title>
    <g id="Login-Signup-Flow" stroke="none" stroke-width="1" fill="none" fill-rule="evenodd">
        <g id="pen_hold" fill-rule="nonzero">
            <rect id="Rectangle_17" fill="#3B404E" x="0" y="0" width="180" height="180" rx="13"></rect>
            <g id="draw" transform="translate(23.137000, 0.169000)">
                <path d="M67.875,75.743 L47.66,68.643 C47.66,68.643 42.176,73.281 30.019,83.207 C17.862,93.133 24.38,109.179 24.38,109.179 C27.497,119.579 30.7,126.856 35.68,126.379 C40.35,125.928 40.957,121.125 40.957,121.125 C41.2435287,118.061527 41.2334821,114.977541 40.927,111.916 L50.784,96.174 C50.784,96.174 62.67,104.806 71.336,106.839 C80.002,108.872 80.25,101.313 80.25,101.313 C85.873,84.372 67.875,75.743 67.875,75.743 Z" id="Path_99" stroke="#000000" stroke-width="4" fill="#F2C3AA"></path>
                <path d="M77.434,98.075 C68.768,96.043 56.883,87.41 56.883,87.41 L51.208,96.473 C53.398,98.015 63.637,105.03 71.336,106.837 C80.002,108.87 80.25,101.31 80.25,101.31 C80.5697123,100.351841 80.8233078,99.3728758 81.009,98.38 C79.8086662,98.4768066 78.6005879,98.3737398 77.434,98.075 L77.434,98.075 Z" id="Path_100" fill="#EAB39B"></path>
                <path d="M111.164,112.425 C110.613055,111.531977 110.236721,110.542445 110.055,109.509 C107.835,97.033 104.597,82.348 99.03,70.481 C97.9210286,68.1296475 96.2796747,66.0688821 94.236,64.462 C90.267,61.328 83.067,56.038 79.036,55.462 C67.617,53.837 53.342,46.904 45.282,51.9 C33.534,59.184 10.442,83.15 14.482,89.664 C15.3276036,91.0369383 16.9416987,91.7342881 18.521,91.409 L23.593,89.799 C31.293,86.391 42.008,76.732 46.055,72.935 C47.1124733,71.9417781 48.6256384,71.6006268 50.007,72.044 C53.496,73.167 58.607,75.279 62.131,76.369 C71.176,79.169 77.772,86.292 78.351,95.819 C78.570443,97.6466641 78.5566659,99.4948105 78.31,101.319 C78.31,101.319 77.462,106.686 73.384,105.73 L59.897,100.542 C58.653,99.642 39.923,83.051 28.553,88.642 C28.2276428,88.8096654 27.9109106,88.9935637 27.604,89.193 C26.086209,90.0971847 25.1094256,91.6892706 24.991,93.452 C25.019,95.052 26.291,95.798 35.36,105.678 C39.327,109.978 43.346,114.526 45.103,117.359 C48.031,122.083 64.672,130.464 72.303,134.131 C74.822357,135.339431 76.9434604,137.243323 78.416,139.618 L93.27,163.142 C105.775053,154.64099 115.570584,142.722017 121.488,128.807 L111.164,112.425 Z" id="Path_102" stroke="#000000" stroke-width="4" fill="#FFEAD7" stroke-linecap="round" stroke-linejoin="round"></path>
                <path d="M32.14,106.311 C32.14,106.311 25.621,90.266 37.779,80.341 C43.55,75.63 47.815,72.112 50.705,69.713 L47.659,68.643 C47.659,68.643 42.176,73.281 30.018,83.208 C17.86,93.135 25.39,105.878 25.39,105.878 C27.755,113.702 30.517,123.385 34.978,124.52 C37.814,124.246 38.22,123.246 38.833,121.812 C35.457,119.743 34.589,114.479 32.14,106.311 Z" id="Path_101" fill="#EAB39B"></path>
                <path d="M87.632,133.904 C86.1588567,131.529829 84.0379192,129.626085 81.519,128.417 C73.885,124.749 57.244,116.367 54.319,111.645 C50.156,104.93 34.926,90.421 34.304,88.376 C34.2289892,88.1074191 34.1975895,87.8285363 34.211,87.55 C29.747,87.426 27.577,89.208 27.606,89.19 C25.634,90.525 24.235,93.057 25.414,94.767 C27.343,97.581 42.602,109.881 46.469,116.117 C49.396,120.839 67.624,129.859 75.26,133.527 C77.779,134.736 80.05,138.68 81.523,141.055 L93.849,160.541 C96.3520587,158.763884 98.7049646,156.784232 100.884,154.622 L87.632,133.904 Z" id="Path_103" fill="#F9D6BF"></path>
                <path d="M18.52,91.411 L23.592,89.8 C30.637,86.684 40.437,78.207 46.056,72.938 L46.056,72.938 C47.1193689,71.9481068 48.6342764,71.6093365 50.018,72.052 C51.636,72.573 53.833,73.393 55.449,73.998 L55.473,74.007 C57.815,74.882 61.602,74.329 63.525,74.924 C72.125,79.324 76.882,81.124 79.788,92.091 L80.232,95.139 C80.352,97.171 80.646,99.73 80.302,101.185 C79.941,102.89 79.321,105.595 77.734,106.303033 L80.401,106.303033 C80.401,106.303033 86.613,106.403 87.522,95.609 C87.946,93.816 87.546,91.097 87.497,88.288 C87.2878209,79.5651748 81.5203737,71.9548674 73.179,69.395 L49.368,61.975 C47.6032465,61.4062428 45.6688433,61.8400668 44.316,63.108 C23.46,82.667 17.072,84.108 17.04,84.125 C17.04,84.125 16.97,84.264 16.97,84.266 C16.97,84.268 16.577,85.148 16.57,85.16 C16.042,86.634 15.544,87.916 16.365,89.241 C16.856,90.032 15.681,91.065 16.685,91.322 C17.2860832,91.4635907 17.9080356,91.4937562 18.52,91.411 Z" id="Path_104" fill="#F9D6BF"></path>
                <g id="Group_29" transform="translate(60.459000, 55.027500) rotate(-130.010958) translate(-60.459000, -55.027500) translate(43.457258, -9.479111)">
                    <rect id="Rectangle_13" fill="#E64015" x="2.07221237" y="2.07221237" width="16.577699" height="124.333742" rx="8.288"></rect>
                    <polygon id="Path_80" fill="#E0E0E2" points="24.8665484 18.6499113 31.0831855 18.6499113 31.0831855 58.0219463 24.8665484 58.0219463"></polygon>
                    <path d="M31.0831855,16.577699 L24.8665484,16.577699 C23.7220971,16.577699 22.7943361,17.50546 22.7943361,18.6499113 L22.7943361,22.7943361 L20.7221237,22.7943361 L20.7221237,8.28884948 C20.7155139,3.71378498 17.0083387,0.00660978328 12.4332742,-9.21579558e-16 L8.28884948,-9.21579558e-16 C3.71378498,0.00660978328 0.00660978328,3.71378498 -9.21579558e-16,8.28884948 L-9.21579558e-16,120.189318 C0.00660978328,124.764382 3.71378498,128.471557 8.28884948,128.478167 L12.4332742,128.478167 C17.0083387,128.471557 20.7155139,124.764382 20.7221237,120.189318 L20.7221237,26.9387608 L22.7943361,26.9387608 L22.7943361,58.0219463 C22.7943361,58.5715312 23.0126578,59.0986066 23.401273,59.4872218 C23.7898882,59.875837 24.3169635,60.0941587 24.8665484,60.0941587 L31.0831855,60.0941587 C31.6327704,60.0941587 32.1598458,59.875837 32.548461,59.4872218 C32.9370762,59.0986066 33.1553979,58.5715312 33.1553979,58.0219463 L33.1553979,18.6499113 C33.1553979,18.1003264 32.9370762,17.5732511 32.548461,17.1846359 C32.1598458,16.7960207 31.6327704,16.577699 31.0831855,16.577699 Z M16.5816994,120.188317 C16.578944,122.476078 14.7250349,124.329987 12.4372746,124.332742 L8.28884948,124.332742 C6.00108917,124.329987 4.14718008,122.476078 4.14442474,120.188317 L4.14442474,41.4442474 L16.577699,41.4442474 L16.5816994,120.188317 Z M16.5816994,37.2988225 L4.14442474,37.2988225 L4.14442474,8.28884948 C4.14718008,6.00108917 6.00108917,4.14718008 8.28884948,4.14442474 L12.4332742,4.14442474 C14.7210345,4.14718008 16.5749436,6.00108917 16.577699,8.28884948 L16.5816994,37.2988225 Z M29.0109732,55.949734 L26.9387608,55.949734 L26.9387608,20.7221237 L29.0109732,20.7221237 L29.0109732,55.949734 Z" id="Path_86" fill="#000000"></path>
                    <path d="M12.4332742,43.5164598 C11.2888229,43.5164598 10.3610618,44.4442208 10.3610618,45.5886721 L10.3610618,70.4552205 C10.3610618,71.5996718 11.2888229,72.5274329 12.4332742,72.5274329 C13.5777255,72.5274329 14.5054866,71.5996718 14.5054866,70.4552205 L14.5054866,45.5886721 C14.5054866,44.4442208 13.5777255,43.5164598 12.4332742,43.5164598 Z" id="Path_87" fill="#000000"></path>
                    <path d="M12.4332742,74.6006454 C11.2888229,74.6006454 10.3610618,75.5284065 10.3610618,76.6728578 L10.3610618,78.7450701 C10.3610618,79.8895214 11.2888229,80.8172825 12.4332742,80.8172825 C13.5777255,80.8172825 14.5054866,79.8895214 14.5054866,78.7450701 L14.5054866,76.6728578 C14.5054866,75.5284065 13.5777255,74.6006454 12.4332742,74.6006454 Z" id="Path_88" fill="#000000"></path>
                </g>
                <path d="M61.69,100.968 C60.446,100.068 39.923,83.048 28.552,88.638 C28.089,88.867 28.522,88.657 28.552,88.638 C27.125,89.603 24.935,91.762 24.991,93.447 C25.019,95.047 26.291,95.793 35.36,105.675 C46.282,117.523 44.035,116.593 46.441,118.938 L69.907,104.389 L61.69,100.968 Z" id="Path_109" stroke="#000000" stroke-width="4" fill="#FFEAD7" stroke-linejoin="round"></path>
                <path d="M57.583,115.072 C57.008,114.512 54.62,112.136 54.316,111.645 C50.153,104.93 35.842,92.307 35.216,90.262 C35.116,89.915 34.853,89.642 34.858,89.452 C30.787,89.339 28.04,90.181 26.915,93.137 C26.762,93.89 26.602,93.306 36.484,104.063 C47.928,116.422 46.112,116.802 49.659,119.176 C49.659,119.176 52.327,119.176 52.327,119.176 L57.583,115.072 Z" id="Path_110" fill="#F9D6BF"></path>
                <polygon id="Path_111" fill="#FFEAD7" points="61.835 103.215 70.541 106.802 60.207 116.821 57.046 114.551 55.585 113.091 54.312 111.691 53.921 110.983"></polygon>
            </g>
        </g>
    </g>
</svg>