<?xml version="1.0" encoding="UTF-8"?>
<svg width="180px" height="180px" viewBox="0 0 180 180" version="1.1" xmlns="http://www.w3.org/2000/svg" xmlns:xlink="http://www.w3.org/1999/xlink">
    <title>pen_color</title>
    <defs>
        <rect id="path-1" x="0" y="0" width="180" height="180" rx="13"></rect>
    </defs>
    <g id="Login-Signup-Flow" stroke="none" stroke-width="1" fill="none" fill-rule="evenodd">
        <g id="pen_color">
            <rect id="Rectangle_15" fill="#3B404E" fill-rule="nonzero" x="0" y="0" width="180" height="180" rx="13"></rect>
            <g id="Group_27" transform="translate(53.034000, 86.077000) rotate(19.992894) translate(-53.034000, -86.077000) translate(33.528502, 11.555994)" fill-rule="nonzero">
                <rect id="Rectangle_14" fill="#5DB6ED" x="16.432632" y="1.5414345" width="19.0053572" height="144.040602" rx="9.5"></rect>
                <polygon id="Path_90" fill="#E0E0E2" points="9.6037071 21.612092 2.40167699 21.612092 2.40167699 67.2369528 9.6037071 67.2369528"></polygon>
                <path d="M2.4006767,19.2054136 L9.60270682,19.2054136 C10.928564,19.2054136 12.0033835,20.2802332 12.0033835,21.6060903 L12.0033835,26.4074438 L14.4040602,26.4074438 L14.4040602,9.60270682 C14.4112234,4.3022482 18.7063084,0.00716316403 24.006767,0 L28.8081205,0 C34.1085791,0.00716316403 38.4036641,4.3022482 38.4108273,9.60270682 L38.4108273,139.275259 C38.4025654,144.575262 34.108123,148.869704 28.8081205,148.877966 L24.006767,148.877966 C18.7067645,148.869704 14.4123221,144.575262 14.4040602,139.275259 L14.4040602,31.2167994 L12.0033835,31.2167994 L12.0033835,67.2359525 C12.0033835,67.8726516 11.7504558,68.4832731 11.3002416,68.9334873 C10.8500274,69.3837015 10.2394059,69.6366292 9.60270682,69.6366292 L2.4006767,69.6366292 C1.07481957,69.6366292 -7.51287579e-06,68.5618097 -7.51287579e-06,67.2359525 L-7.51287579e-06,21.612092 C-0.00159435069,20.9743538 0.250629343,20.3621893 0.70101648,19.9106762 C1.15140362,19.459163 1.76293643,19.2054116 2.4006767,19.2054136 L2.4006767,19.2054136 Z M19.2054136,139.270258 C19.2098191,141.920145 21.3568797,144.067206 24.006767,144.071611 L28.8081205,144.071611 C31.4580078,144.067206 33.6050684,141.920145 33.6094739,139.270258 L33.6094739,48.0255375 L19.2054136,48.0255375 L19.2054136,139.270258 Z M19.2054136,43.2191827 L33.6094739,43.2191827 L33.6094739,9.60270682 C33.6050684,6.9528195 31.4580078,4.80575888 28.8081205,4.80135341 L24.006767,4.80135341 C21.3568797,4.80575888 19.2098191,6.9528195 19.2054136,9.60270682 L19.2054136,43.2191827 Z M4.80135341,64.8352758 L7.20203011,64.8352758 L7.20203011,24.0127687 L4.80135341,24.0127687 L4.80135341,64.8352758 Z" id="Path_89" fill="#000000"></path>
                <path d="M24.0117685,50.4272145 C25.3376256,50.4272145 26.4124452,51.502034 26.4124452,52.8278912 L26.4124452,81.6430136 C26.4124452,82.9688707 25.3376256,84.0436903 24.0117685,84.0436903 C22.6859113,84.0436903 21.6110918,82.9688707 21.6110918,81.6430136 L21.6110918,52.8278912 C21.6110918,51.502034 22.6859113,50.4272145 24.0117685,50.4272145 L24.0117685,50.4272145 Z" id="Path_91" fill="#000000"></path>
                <path d="M24.0117685,86.4463676 C25.3376256,86.4463676 26.4124452,87.5211871 26.4124452,88.8470443 L26.4124452,91.247721 C26.4124452,92.5735781 25.3376256,93.6483977 24.0117685,93.6483977 C22.6859113,93.6483977 21.6110918,92.5735781 21.6110918,91.247721 L21.6110918,88.8470443 C21.6110918,87.5211871 22.6859113,86.4463676 24.0117685,86.4463676 Z" id="Path_92" fill="#000000"></path>
            </g>
            <g id="Mask_Group_1-Clipped">
                <mask id="mask-2" fill="white">
                    <use xlink:href="#path-1"></use>
                </mask>
                <g id="Rectangle_16"></g>
                <g id="Mask_Group_1" mask="url(#mask-2)">
                    <g transform="translate(81.000000, 39.000000)" id="Group_28">
                        <g transform="translate(44.471493, 76.902293) rotate(160.000000) translate(-44.471493, -76.902293) translate(24.971493, 2.402293)">
                            <rect id="Rectangle_14-2" fill="#E64015" fill-rule="nonzero" x="16.428" y="3.297" width="19" height="144" rx="9.5"></rect>
                            <polygon id="Path_90-2" fill="#E0E0E2" fill-rule="nonzero" points="9.601 127.233 2.401 127.233 2.401 81.621 9.601 81.621"></polygon>
                            <path d="M2.4,129.633 L9.6,129.633 C10.9254834,129.633 12,128.558483 12,127.233 L12,122.433 L14.4,122.433 L14.4,139.233 C14.4071611,144.531965 18.7010355,148.825839 24,148.833 L28.8,148.833 C34.0989645,148.825839 38.3928389,144.531965 38.4,139.233 L38.4,9.6 C38.3917404,4.3014914 34.0985086,0.00825957638 28.8,0 L24,0 C18.7014914,0.00825957638 14.4082596,4.3014914 14.4,9.6 L14.4,117.63 L12,117.63 L12,81.621 C12,80.2955166 10.9254834,79.221 9.6,79.221 L2.4,79.221 C1.0745166,79.221 0,80.2955166 0,81.621 L0,127.233 C0,128.558483 1.0745166,129.633 2.4,129.633 Z M19.2,9.6 C19.2044042,6.95085964 21.3508596,4.80440423 24,4.8 L28.8,4.8 C31.4491404,4.80440423 33.5955958,6.95085964 33.6,9.6 L33.6,100.823 L19.2,100.823 L19.2,9.6 Z M19.2,105.624 L33.6,105.624 L33.6,139.233 C33.5955958,141.88214 31.4491404,144.028596 28.8,144.033 L24,144.033 C21.3508596,144.028596 19.2044042,141.88214 19.2,139.233 L19.2,105.624 Z M4.8,84.021 L7.2,84.021 L7.2,124.831 L4.8,124.831 L4.8,84.021 Z" id="Path_89-2" fill="#000000" fill-rule="nonzero"></path>
                            <path d="M24.006,98.426 C25.3314834,98.426 26.406,97.3514834 26.406,96.026 L26.406,67.217 C26.406,65.8915166 25.3314834,64.817 24.006,64.817 C22.6805166,64.817 21.6059998,65.8915166 21.6059998,67.217 L21.6059998,96.025 C21.6057347,96.6616928 21.858474,97.2723991 22.3085901,97.7227028 C22.7587061,98.1730064 23.3693071,98.426 24.006,98.426 L24.006,98.426 Z" id="Path_91-2" fill="#000000" fill-rule="nonzero"></path>
                            <path d="M24.006,62.414 C25.3314834,62.414 26.406,61.3394834 26.406,60.014 L26.406,57.614 C26.406,56.2885166 25.3314834,55.214 24.006,55.214 C22.6805166,55.214 21.606,56.2885166 21.606,57.614 L21.606,60.014 C21.606,61.3394834 22.6805166,62.414 24.006,62.414 Z" id="Path_92-2" fill="#000000" fill-rule="nonzero"></path>
                        </g>
                    </g>
                </g>
            </g>
        </g>
    </g>
</svg>