<?xml version="1.0" encoding="UTF-8"?>
<svg width="181px" height="180px" viewBox="0 0 181 180" version="1.1" xmlns="http://www.w3.org/2000/svg" xmlns:xlink="http://www.w3.org/1999/xlink">
    <title>surrounding_light</title>
    <defs>
        <rect id="path-1" x="0" y="0" width="178.021978" height="177.027541" rx="13.355"></rect>
    </defs>
    <g id="Login-Signup-Flow" stroke="none" stroke-width="1" fill="none" fill-rule="evenodd">
        <g id="surrounding_light">
            <rect id="Rectangle_12" fill="#3B404E" fill-rule="nonzero" x="0.989010989" y="0.983606557" width="178.021978" height="177.04918" rx="13"></rect>
            <g id="Group_11" transform="translate(0.689341, 0.087541)">
                <g id="Group_2-Clipped" transform="translate(0.300659, 0.920656)">
                    <mask id="mask-2" fill="white">
                        <use xlink:href="#path-1"></use>
                    </mask>
                    <g id="Rectangle_2"></g>
                    <g id="Group_2" mask="url(#mask-2)">
                        <g transform="translate(47.472527, -57.049180)" id="Group_1">
                            <g transform="translate(0.691319, 0.371803)">
                                <ellipse id="Ellipse_1" fill="#FFC23F" fill-rule="nonzero" opacity="0.15" cx="93.4279121" cy="89.2721311" rx="46.800989" ry="46.5403279"></ellipse>
                                <ellipse id="Ellipse_2" fill="#FFC23F" fill-rule="nonzero" opacity="0.12" cx="93.4279121" cy="92.9065574" rx="93.4279121" ry="92.9065574"></ellipse>
                            </g>
                        </g>
                    </g>
                </g>
                <g id="Group_5" transform="translate(12.541648, 50.203279)" fill-rule="nonzero">
                    <path d="M31.8738462,54.4101639 L31.8738462,65.3360656 C31.8738309,66.9978944 30.7838574,68.4653276 29.1867033,68.9537705 L12.509011,74.0577049 C9.3162239,75.0359316 7.13732699,77.9695252 7.13571429,81.2921311 L7.13571429,108.821311 C7.13571429,111.330868 8.13862321,113.737536 9.92308337,115.511876 C11.7075435,117.286217 14.1276435,118.282623 16.650989,118.282623 L71.3591209,118.282623 L71.3591209,54.4101639 L31.8738462,54.4101639 Z" id="Path_1" fill="#CA8759"></path>
                    <path d="M45.1968132,82.7980328 C36.2876085,82.7756539 28.0010221,78.2499771 23.2012088,70.7852459 L12.509011,74.0567213 C9.3162239,75.034948 7.13732699,77.9685416 7.13571429,81.2911475 L7.13571429,108.820328 C7.13735266,114.045441 11.3971664,118.279672 16.650989,118.279672 L71.3591209,118.279672 L71.3591209,56.7757377 C71.3167633,71.1288181 59.6287517,82.754279 45.1968132,82.7980328 L45.1968132,82.7980328 Z" id="Path_2" fill="#4FC5F3"></path>
                    <g id="Group_4" transform="translate(7.135714, 56.775738)" fill="#00B8EB">
                        <path d="M64.2234446,0 C64.2431295,11.5587903 56.5839527,21.7411906 45.4289842,24.9860184 C34.2740157,28.2308462 22.3048698,23.7580565 16.0585714,14.0104918 L11.3489011,15.4514754 C16.7763487,24.7637208 26.7115401,30.5684682 37.5326987,30.7496538 C48.3538574,30.9308395 58.4798899,25.4619902 64.2194505,16.3367213 L64.2234446,0 Z" id="Path_3"></path>
                        <path d="M40.4347253,49.6790164 L16.650989,49.6790164 C16.0204366,49.6805842 15.4151699,49.4325652 14.9687443,48.9896864 C14.5223188,48.5468075 14.2714266,47.9454694 14.2714286,47.3183607 L14.2714286,36.0580328 C14.2704795,34.1766096 13.5188829,32.3724465 12.1816484,31.0416393 L1.34010989,20.257377 C0.47154372,21.5100511 0.00437536784,22.9947634 0,24.5163934 L0,52.0455738 C0,54.5551305 1.00290892,56.9617986 2.78736909,58.7361387 C4.57182925,60.5104788 6.99192926,61.5068853 9.51527473,61.5068853 L47.5724176,61.5068853 L47.5724176,56.7757377 C47.5724176,54.8932293 46.8203498,53.0878523 45.481716,51.7569023 C44.1430821,50.4259523 42.3275771,49.6784946 40.4347253,49.6790164 L40.4347253,49.6790164 Z" id="Path_4"></path>
                    </g>
                    <path d="M65.4121978,37.8511475 L65.0591209,37.8511475 L64.2224176,21.2911475 L26.462967,21.2911475 L26.462967,37.8511475 L24.9794505,37.8511475 C23.0092506,37.8511475 21.4120879,39.4395825 21.4120879,41.3990164 L21.4120879,46.1301639 C21.4120879,48.089757 23.0090906,49.6784733 24.9794505,49.6790164 L27.2353846,49.6790164 L27.6210989,52.0809836 C27.9111803,53.8889814 28.8499703,55.5312724 30.2637363,56.7039344 L37.9018681,63.0334426 C38.9273174,63.8819576 40.2193338,64.3462403 41.5532967,64.3455745 L48.8373626,64.3455745 C50.172837,64.3455745 51.4660732,63.8800902 52.4917582,63.0295082 L60.1298901,56.7 C61.5441458,55.5277452 62.4830484,53.8852572 62.7725275,52.0770492 L63.1582418,49.675082 L65.4131868,49.675082 C67.383933,49.675082 68.9815385,48.0862066 68.9815385,46.1262295 L68.9815385,41.395082 C68.9788096,39.4366417 67.3814006,37.8506029 65.4121978,37.8511475 L65.4121978,37.8511475 Z" id="Path_5" fill="#EEB172"></path>
                    <path d="M64.2234066,21.2911475 L26.462967,21.2911475 L26.462967,37.8511475 L24.9794505,37.8511475 C23.0092506,37.8511475 21.4120879,39.4395825 21.4120879,41.3990164 L21.4120879,46.1301639 C21.4120879,48.089757 23.0090906,49.6784733 24.9794505,49.6790164 L27.2353846,49.6790164 L27.6210989,52.08 C27.9111803,53.8879978 28.8499703,55.5302888 30.2637363,56.7029508 L37.9018681,63.032459 C38.9275283,63.8806077 40.219407,64.3445903 41.5532967,64.3445903 L44.5608791,64.3445903 L41.1695604,54.2281967 C40.6847776,52.7809416 40.437654,51.2654509 40.4376923,49.74 L40.4376923,35.4845902 C40.4361159,34.8574834 40.6854976,34.2555241 41.1308099,33.8115381 C41.5761221,33.367552 42.1807643,33.1180308 42.8113187,33.1180328 L42.8113187,33.1180328 C42.8113187,33.1180328 45.1908791,33.1180328 46.1423077,31.9819672 C49.1304052,33.4972104 52.6675068,33.4972104 55.6556044,31.9819672 C57.1284588,32.7300429 58.758939,33.1194221 60.4127473,33.1180328 C60.6480674,33.1174604 60.8831672,33.103668 61.1169231,33.0767213 L64.8138462,33.0767213 L64.2234066,21.2911475 Z" id="Path_6" fill="#E29E63"></path>
                    <path d="M73.7386813,20.8170492 C73.7329075,18.2573146 72.0012034,16.0197317 69.5146154,15.3590164 C70.2283638,13.6110936 70.0194623,11.62439 68.957545,10.0611432 C67.8956277,8.49789636 66.1203247,7.56365563 64.2234066,7.56983607 C64.1067033,7.56983607 63.9989011,7.59737705 63.8851648,7.60327869 C63.0958517,5.32257929 60.9400977,3.78981559 58.5148352,3.78491803 C57.9216345,3.78778667 57.3329295,3.88747248 56.7721978,4.08 C55.1808083,2.29043322 52.7297049,1.51476405 50.3910989,2.06065574 C47.4794477,-0.691202522 42.9102227,-0.691202522 39.9985714,2.06065574 C37.7943642,1.548233 35.4801892,2.20092767 33.8746154,3.78786885 C33.840989,3.78786885 33.8103297,3.78196721 33.7757143,3.78196721 C31.3504518,3.78686477 29.1946978,5.31962847 28.4053846,7.60032787 C28.2916484,7.59442623 28.1828571,7.56688525 28.0671429,7.56688525 C26.1702247,7.56070481 24.3949218,8.49494554 23.3330045,10.0581923 C22.2710872,11.6214391 22.0621857,13.6081428 22.7759341,15.3560656 C20.8574596,15.8557511 19.3418762,17.3175812 18.7809328,19.2093759 C18.2199893,21.1011706 18.6955155,23.1469577 20.0343956,24.6019672 C18.872089,25.8624152 18.3518189,27.5815527 18.6214935,29.2706441 C18.8911681,30.9597355 19.9212923,32.4340401 21.419011,33.2744262 C21.498049,35.8226248 23.596912,37.8481893 26.1603297,37.8501651 L28.2372527,37.8501651 C29.1683545,37.8511878 29.9634489,37.1819639 30.1163736,36.2685246 L31.4446154,28.3445902 C31.587033,28.3554098 31.7235165,28.3868852 31.8689011,28.3868852 C33.7840483,28.3875757 35.5713831,27.4311628 36.626044,25.8413115 C37.6811487,27.4310138 39.4684146,28.3875342 41.3836813,28.3875342 C43.2989481,28.3875342 45.086214,27.4310138 46.1413187,25.8413115 C47.1962656,27.430596 48.9831378,28.3868459 50.897967,28.3868459 C52.8127962,28.3868459 54.5996684,27.430596 55.6546154,25.8413115 C56.7095253,27.4308919 58.4967012,28.3872197 60.4117582,28.3868852 C60.5571429,28.3868852 60.6936264,28.3554098 60.837033,28.3445902 L62.1642857,36.2685246 C62.3175903,37.1817492 63.1124549,37.8507797 64.0434066,37.8501651 L66.599011,37.8501651 C69.2259222,37.8496208 71.3551649,35.731573 71.3551648,33.1190164 C71.3551648,33.0708197 71.3423077,33.0206557 71.3413187,32.9763934 C72.6672488,32.0485375 73.5273224,30.5978562 73.7018923,28.9948268 C73.8764622,27.3917974 73.3486273,25.7916201 72.2531868,24.6029508 C73.2045182,23.5686202 73.734143,22.2188291 73.7386813,20.8170492 Z" id="Path_7" fill="#563A3B"></path>
                    <path d="M43.8013187,24.2655738 C41.99223,23.6551134 40.615034,22.1779698 40.139366,20.3378613 C39.663698,18.4977529 40.1537941,16.5431752 41.4425275,15.1406557 C40.1048226,13.6850868 39.6301635,11.6396435 40.1911861,9.74826411 C40.7522087,7.85688476 42.267164,6.39517038 44.1850549,5.8947541 C43.3631361,3.89231692 43.7755968,1.59806994 45.2442857,0.00295081967 C45.2274725,0.00295081967 45.2126374,0.00295081967 45.1948352,0.00295081967 C43.2609676,0.00571307082 41.4015728,0.74484357 39.9985714,2.06852459 C37.7943642,1.55610186 35.4801892,2.20879653 33.8746154,3.7957377 C33.840989,3.7957377 33.8103297,3.78983607 33.7757143,3.78983607 C31.3504518,3.79473363 29.1946978,5.32749732 28.4053846,7.60819672 C28.2916484,7.60229508 28.1818681,7.5747541 28.0671429,7.5747541 C26.1702247,7.56857366 24.3949218,8.50281439 23.3330045,10.0660612 C22.2710872,11.629308 22.0621857,13.6160117 22.7759341,15.3639344 C20.8576683,15.8638587 19.3422686,17.3255788 18.7811789,19.2171844 C18.2200891,21.10879 18.6951184,23.154478 20.0334066,24.6098361 C18.8711,25.870284 18.3508298,27.5894215 18.6205044,29.2785129 C18.8901791,30.9676043 19.9203033,32.441909 21.418022,33.2822951 C21.4970721,35.8308748 23.5965282,37.8565891 26.1603297,37.8580332 L28.2372527,37.8580332 C29.1682044,37.8586486 29.963069,37.1896181 30.1163736,36.2763934 L31.4436264,28.352459 C31.587033,28.3632787 31.7225275,28.3947541 31.8689011,28.3947541 C33.7837428,28.3952919 35.5707117,27.438876 36.6250549,25.8491803 C37.6799649,27.4387607 39.4671407,28.3950885 41.3821978,28.3947541 C42.6399732,28.3860518 43.8585996,27.9587468 44.8437363,27.1809836 C44.1592182,26.497 43.7708888,25.5738443 43.7617582,24.6088525 C43.7686152,24.4937922 43.7818219,24.3791933 43.8013187,24.2655738 L43.8013187,24.2655738 Z" id="Path_8" fill="#483237"></path>
                    <path d="M40.4367033,106.45377 L47.5724176,106.45377 C51.51391,106.45377 54.7091209,109.631521 54.7091209,113.551475 L54.7091209,118.281639 L40.4367033,118.281639 L40.4367033,106.45377 Z" id="Path_9" fill="#E29E63"></path>
                    <path d="M130.825385,101.722623 L59.4652747,101.722623 C55.5243285,101.722623 52.3295604,98.5453126 52.3295604,94.6259016 L52.3295604,52.0436066 C52.3295604,48.1244206 55.5245548,44.9468852 59.4652747,44.9468852 L130.825385,44.9468852 C134.766491,44.9468852 137.962088,48.1240365 137.962088,52.0436066 L137.962088,94.6259016 C137.962088,98.5454717 134.766491,101.722623 130.825385,101.722623 Z" id="Path_10" fill="#CAD4E8"></path>
                    <path d="M109.417253,118.282623 L105.210989,86.9055738 C104.895322,84.5553714 102.879491,82.8 100.495385,82.8 L89.7952747,82.8 C87.4111688,82.8 85.3953376,84.5553714 85.0796703,86.9055738 L80.8734066,118.282623 L80.8734066,123.01377 L109.417253,123.01377 L109.417253,118.282623 L109.417253,118.282623 Z" id="Path_11" fill="#9CABC8"></path>
                    <ellipse id="Ellipse_3" fill="#FFFFFF" cx="95.1448352" cy="68.6036066" rx="4.75714286" ry="4.73114754"></ellipse>
                    <path d="M135.584505,127.745902 L2.37857143,127.745902 C1.74801708,127.745902 1.14337489,127.496382 0.698062626,127.052396 C0.252750359,126.60841 0.00336866907,126.006451 0.00493762672,125.379344 L0.00493762672,120.64918 C0.00336866907,120.022074 0.252750359,119.420114 0.698062626,118.976128 C1.14337489,118.532142 1.74801708,118.282623 2.37857143,118.282623 L135.584505,118.282623 C136.8987,118.282623 137.964066,119.342167 137.964066,120.64918 L137.964066,125.379344 C137.964066,126.686133 136.898474,127.745359 135.584505,127.745902 Z" id="Path_12" fill="#F5D3A4"></path>
                </g>
                <g id="Group_7" transform="translate(113.841099, 0.896066)" fill-rule="nonzero">
                    <path d="M23.4652747,14.0891803 L23.4652747,0 L26.461978,0 L26.461978,14.0891803 C25.978218,13.9603886 25.4792427,13.8968688 24.9784615,13.9003279 C24.469173,13.8991844 23.9619889,13.9653369 23.4702198,14.0970492 L23.4652747,14.0891803 Z" id="Path_13" fill="#424B54"></path>
                    <path d="M29.9798901,26.9055738 L29.9798901,25.8236066 L19.979011,25.8236066 L19.979011,26.9055738 C14.8604521,29.2428976 12.0692381,34.8097696 13.2720705,40.2820761 C14.4749028,45.7543826 19.3471396,49.6551601 24.9794505,49.6551601 C30.6117615,49.6551601 35.4839983,45.7543826 36.6868306,40.2820761 C37.889663,34.8097696 35.098449,29.2428976 29.9798901,26.9055738 L29.9798901,26.9055738 Z" id="Path_14" fill="#F7AB2C"></path>
                    <g id="Group_6" transform="translate(0.000000, 30.793770)" fill="#FFC23F">
                        <path d="M21.9946154,9.93442623 C20.6156179,9.9317186 19.4985503,8.82031544 19.4963736,7.44885246 C19.4963736,6.90018925 19.9435969,6.45540984 20.4952747,6.45540984 C21.0469526,6.45540984 21.4941758,6.90018925 21.4941758,7.44885246 C21.4859936,7.63176522 21.5794526,7.80437609 21.7375061,7.89826266 C21.8955595,7.99214924 22.0926823,7.99214924 22.2507357,7.89826266 C22.4087891,7.80437609 22.5022481,7.63176522 22.4940659,7.44885246 C22.4940659,6.90018925 22.9412892,6.45540984 23.492967,6.45540984 C24.0446449,6.45540984 24.4918681,6.90018925 24.4918681,7.44885246 C24.4896932,8.81993244 23.3732266,9.93117764 21.9946154,9.93442623 Z" id="Path_15"></path>
                        <path d="M24.9972527,9.93442623 C23.6182552,9.9317186 22.5011877,8.82031544 22.499011,7.44885246 C22.499011,6.90018925 22.9462342,6.45540984 23.4979121,6.45540984 C24.0495899,6.45540984 24.4968132,6.90018925 24.4968132,7.44885246 C24.488631,7.63176522 24.58209,7.80437609 24.7401434,7.89826266 C24.8981968,7.99214924 25.0953197,7.99214924 25.2533731,7.89826266 C25.4114265,7.80437609 25.5048855,7.63176522 25.4967033,7.44885246 C25.4967033,6.90018925 25.9439266,6.45540984 26.4956044,6.45540984 C27.0472822,6.45540984 27.4945055,6.90018925 27.4945055,7.44885246 C27.4923306,8.81993244 26.375864,9.93117764 24.9972527,9.93442623 Z" id="Path_16"></path>
                        <path d="M27.990989,9.93442623 C26.611766,9.93225852 25.494381,8.82053948 25.4927473,7.44885246 C25.4927473,6.90018925 25.9399705,6.45540984 26.4916484,6.45540984 C27.0433262,6.45540984 27.4905495,6.90018925 27.4905495,7.44885246 C27.4823672,7.63176522 27.5758263,7.80437609 27.7338797,7.89826266 C27.8919331,7.99214924 28.0890559,7.99214924 28.2471093,7.89826266 C28.4051627,7.80437609 28.4986218,7.63176522 28.4904396,7.44885246 C28.4904396,6.90018925 28.9376628,6.45540984 29.4893407,6.45540984 C30.0410185,6.45540984 30.4882418,6.90018925 30.4882418,7.44885246 C30.4860669,8.81993244 29.3696002,9.93117764 27.990989,9.93442623 Z" id="Path_17"></path>
                        <path d="M20.4942857,8.44230035 C20.1426346,8.44246358 19.8168512,8.25854746 19.6367341,7.95817732 C19.4566171,7.65780718 19.4487569,7.28532617 19.616044,6.97770492 L23.1141758,0.523278689 C23.3763594,0.0403464171 23.9825461,-0.139767226 24.4681319,0.120983607 C24.9537176,0.381734439 25.1348209,0.984608712 24.8726374,1.46754098 L21.3735165,7.92196721 C21.1994257,8.24346816 20.8614478,8.44348316 20.4942857,8.44230035 L20.4942857,8.44230035 Z" id="Path_18"></path>
                        <path d="M29.4913187,8.44229705 C29.1234974,8.44302235 28.7851568,8.24226158 28.6110989,7.92 L25.111978,1.46557377 C24.8719647,0.986055508 25.0574152,0.403633008 25.5312152,0.14892437 C26.0050153,-0.105784268 26.5965489,0.0589419137 26.8684615,0.521311475 L30.3675824,6.9757377 C30.4934936,7.20775312 30.5215057,7.4800302 30.445449,7.73259781 C30.3693922,7.98516542 30.1955052,8.19730641 29.9620879,8.32229508 C29.8173513,8.40066555 29.6551272,8.44159188 29.4903297,8.44131148 L29.4913187,8.44229705 Z" id="Path_19"></path>
                        <path d="M24.9764835,31.8009841 C24.711478,31.8012449 24.4572509,31.6966629 24.2698636,31.5102996 C24.0824763,31.3239363 23.9773196,31.0710984 23.9775819,30.807541 L23.9775819,22.8639344 C23.9775819,22.3152712 24.4248057,21.8704918 24.9764835,21.8704918 C25.5281614,21.8704918 25.9753846,22.3152712 25.9753846,22.8639344 L25.9753846,30.812459 C25.9732046,31.3594259 25.5264598,31.80153 24.9764835,31.8009841 L24.9764835,31.8009841 Z" id="Path_20"></path>
                        <path d="M36.9682418,28.605248 C36.6106453,28.6057096 36.2801346,28.4158414 36.1018681,28.107541 L32.1062637,21.2222951 C31.8304248,20.746968 31.9942591,20.1392496 32.4721978,19.864918 C32.9501365,19.5905864 33.561194,19.7535254 33.837033,20.2288525 L37.8326374,27.1140984 C37.9651264,27.342192 38.0010038,27.613312 37.9323655,27.8677306 C37.8637273,28.1221493 37.6962048,28.3389933 37.4667033,28.4704918 C37.3157114,28.5590645 37.1435415,28.6056089 36.9682418,28.605248 Z" id="Path_21"></path>
                        <path d="M45.7378022,19.8786885 C45.5641023,19.878382 45.3935471,19.8325837 45.2432967,19.7459016 L38.3202198,15.7721311 C37.8422811,15.4977995 37.6784469,14.8900811 37.9542858,14.4147541 C38.2301247,13.9394271 38.8411822,13.7764881 39.3191209,14.0508197 L46.2421978,18.0245902 C46.6333401,18.2498859 46.8236192,18.708329 46.7061594,19.1424218 C46.5886996,19.5765146 46.1927755,19.8780676 45.7407692,19.8777049 L45.7378022,19.8786885 Z" id="Path_22"></path>
                        <path d="M40.9589011,7.95737705 C40.4072233,7.95737705 39.9600001,7.51259759 39.9600001,6.96393443 C39.9600001,6.41527126 40.4072233,5.9704918 40.9589011,5.9704918 L48.9501099,5.9704918 C49.3069829,5.9704918 49.6367472,6.15984085 49.8151837,6.46721308 C49.9936202,6.77458532 49.9936202,7.15328354 49.8151837,7.46065577 C49.6367472,7.76802801 49.3069829,7.95737705 48.9501099,7.95737705 L40.9589011,7.95737705 Z" id="Path_23"></path>
                        <path d="M8.99208791,7.95737705 L0.998901099,7.95737705 C0.447223302,7.95737705 1.19078289e-07,7.51259759 1.19078289e-07,6.96393443 C1.19078289e-07,6.41527126 0.447223302,5.9704918 0.998901099,5.9704918 L8.99208791,5.9704918 C9.34896093,5.9704918 9.67872522,6.15984085 9.85716174,6.46721308 C10.0355983,6.77458532 10.0355983,7.15328354 9.85716174,7.46065577 C9.67872522,7.76802801 9.34896093,7.95737705 8.99208791,7.95737705 Z" id="Path_24"></path>
                        <path d="M4.2121978,19.8796812 C3.75881518,19.8815915 3.36099438,19.579592 3.24329238,19.1441424 C3.12559038,18.7086928 3.31753069,18.2490182 3.71076923,18.0245902 L10.6338462,14.0508197 C11.1117849,13.7764881 11.7228423,13.9394271 11.9986813,14.4147541 C12.2745202,14.8900811 12.1106859,15.4977995 11.6327473,15.7721311 L4.70967033,19.7459016 C4.55875686,19.8336931 4.3870323,19.8798699 4.2121978,19.8796812 L4.2121978,19.8796812 Z" id="Path_25"></path>
                        <path d="M12.9857143,28.6062298 C12.8118342,28.6053255 12.641267,28.5588455 12.4912088,28.4714754 C12.261304,28.3403513 12.0934312,28.1235009 12.024751,27.8689266 C11.9560707,27.6143522 11.9922481,27.3430522 12.1252747,27.115082 L16.1228571,20.2298361 C16.4036389,19.7655973 17.0066395,19.6106865 17.4783645,19.8816063 C17.9500895,20.1525261 18.1165857,20.7493722 17.8526374,21.2232787 L13.8550549,28.1085246 C13.6766382,28.4166758 13.3462229,28.6064892 12.9886813,28.6062298 L12.9857143,28.6062298 Z" id="Path_26"></path>
                    </g>
                    <path d="M24.9784615,33.7691924 C24.448531,33.7694414 23.9402297,33.5601933 23.5655121,33.1875234 C23.1907946,32.8148536 22.9803968,32.3093298 22.9806591,31.7822951 L22.9806591,23.8337705 L26.9762758,23.8337705 L26.9762758,31.7822951 C26.9781114,32.309811 26.7682227,32.8162514 26.3931608,33.1892638 C26.018099,33.5622761 25.5088759,33.7710179 24.9784615,33.7691924 L24.9784615,33.7691924 Z" id="Path_27" fill="#E0E3E8"></path>
                    <path d="M24.9745055,13.9002137 C25.4752057,13.89715 25.9741,13.9603287 26.458022,14.0881967 C29.1139298,14.7592921 30.9737368,17.1366537 30.9748352,19.8619672 L30.963956,19.8619672 L30.963956,24.8301639 L29.9749451,25.8236066 L19.979011,25.8236066 L18.9801099,24.8301639 L18.9801099,19.8619672 C18.9797678,17.1490714 20.8243832,14.779345 23.4652747,14.1 C23.9572285,13.9672051 24.4647533,13.9000593 24.9745055,13.9002137 Z" id="Path_28" fill="#525B66"></path>
                    <path d="M29.969011,25.8009836 L19.98,25.8009836 C19.623127,25.8009836 19.2933627,25.6116346 19.1149262,25.3042623 C18.9364897,24.9968901 18.9364897,24.6181919 19.1149262,24.3108196 C19.2933627,24.0034474 19.623127,23.8140984 19.98,23.8140984 L29.969011,23.8140984 C30.325884,23.8140984 30.6556483,24.0034474 30.8340848,24.3108196 C31.0125213,24.6181919 31.0125213,24.9968901 30.8340848,25.3042623 C30.6556483,25.6116346 30.325884,25.8009836 29.969011,25.8009836 Z" id="Path_29" fill="#525B66"></path>
                </g>
            </g>
        </g>
    </g>
</svg>