<?xml version="1.0" encoding="UTF-8"?>
<svg width="181px" height="180px" viewBox="0 0 181 180" version="1.1" xmlns="http://www.w3.org/2000/svg" xmlns:xlink="http://www.w3.org/1999/xlink">
    <title>setup_point</title>
    <defs>
        <linearGradient x1="50%" y1="100%" x2="50%" y2="0%" id="linearGradient-1">
            <stop stop-color="#000000" offset="0%"></stop>
            <stop stop-color="#272727" offset="100%"></stop>
        </linearGradient>
        <linearGradient x1="50%" y1="100%" x2="50%" y2="0%" id="linearGradient-2">
            <stop stop-color="#B9ACF4" offset="0%"></stop>
            <stop stop-color="#E1D1F5" offset="100%"></stop>
        </linearGradient>
        <linearGradient x1="50%" y1="100%" x2="50%" y2="0%" id="linearGradient-3">
            <stop stop-color="#393939" offset="0%"></stop>
            <stop stop-color="#717171" offset="100%"></stop>
        </linearGradient>
        <linearGradient x1="0%" y1="50%" x2="100%" y2="50%" id="linearGradient-4">
            <stop stop-color="#ADADAD" offset="0%"></stop>
            <stop stop-color="#CCCCCC" offset="100%"></stop>
        </linearGradient>
        <linearGradient x1="0%" y1="50%" x2="100%" y2="50%" id="linearGradient-5">
            <stop stop-color="#CF6074" offset="0%"></stop>
            <stop stop-color="#FF817F" offset="100%"></stop>
        </linearGradient>
        <linearGradient x1="50%" y1="100%" x2="50%" y2="0%" id="linearGradient-6">
            <stop stop-color="#8B8BE0" offset="0%"></stop>
            <stop stop-color="#FFFFFF" offset="100%"></stop>
        </linearGradient>
        <linearGradient x1="0%" y1="50%" x2="100%" y2="50%" id="linearGradient-7">
            <stop stop-color="#CF6074" offset="0%"></stop>
            <stop stop-color="#FF817F" offset="100%"></stop>
        </linearGradient>
        <linearGradient x1="0%" y1="50%" x2="100%" y2="50%" id="linearGradient-8">
            <stop stop-color="#B9ACF4" offset="0%"></stop>
            <stop stop-color="#E1D1F5" offset="100%"></stop>
        </linearGradient>
        <linearGradient x1="50%" y1="100%" x2="50%" y2="0%" id="linearGradient-9">
            <stop stop-color="#B9ACF4" offset="0%"></stop>
            <stop stop-color="#E1D1F5" offset="100%"></stop>
        </linearGradient>
        <linearGradient x1="50%" y1="100%" x2="50%" y2="0%" id="linearGradient-10">
            <stop stop-color="#CF6074" offset="0%"></stop>
            <stop stop-color="#FF817F" offset="100%"></stop>
        </linearGradient>
        <linearGradient x1="50%" y1="100%" x2="50%" y2="0%" id="linearGradient-11">
            <stop stop-color="#B9ACF4" offset="0%"></stop>
            <stop stop-color="#E1D1F5" offset="100%"></stop>
        </linearGradient>
        <linearGradient x1="50%" y1="100%" x2="50%" y2="0%" id="linearGradient-12">
            <stop stop-color="#FDFDFF" offset="0%"></stop>
            <stop stop-color="#DBCAFF" offset="100%"></stop>
        </linearGradient>
        <linearGradient x1="50%" y1="100%" x2="50%" y2="0%" id="linearGradient-13">
            <stop stop-color="#CF6074" offset="0%"></stop>
            <stop stop-color="#FF817F" offset="100%"></stop>
        </linearGradient>
        <linearGradient x1="50%" y1="100%" x2="50%" y2="0%" id="linearGradient-14">
            <stop stop-color="#B9ACF4" offset="0%"></stop>
            <stop stop-color="#E1D1F5" offset="100%"></stop>
        </linearGradient>
    </defs>
    <g id="Login-Signup-Flow" stroke="none" stroke-width="1" fill="none" fill-rule="evenodd">
        <g id="setup_point">
            <rect id="Rectangle_18" fill="#3B404E" fill-rule="nonzero" x="0" y="0" width="179.951" height="180" rx="13"></rect>
            <g id="Group_32" transform="translate(13.904000, 40.838000)">
                <path d="M148.042,5.321 L145.984,42.615 L145.972,42.637 L143.362,89.867 L13.227,90.913 L8.998,5.133 C9.07602218,3.05309283 10.5235917,1.27699394 12.545,0.781 L66.676,0.461 L143.913,-0.001 C146.431716,0.482449727 148.199617,2.7611539 148.042,5.321 L148.042,5.321 Z" id="Path_65" fill="url(#linearGradient-1)" fill-rule="nonzero"></path>
                <path d="M19.05,86.666 L137.486,86.666 C137.486,86.666 144.093,32.773 142.259,6.056 C100.258033,3.72321195 58.1599668,3.72321195 16.159,6.056 C15.339387,32.9603651 16.3051735,59.8894701 19.05,86.666 L19.05,86.666 Z" id="Path_66" fill="#F7FEFF" fill-rule="nonzero"></path>
                <path d="M0,98.784 L1.285,105.028 C1.285,105.028 96.877,104.57 155.939,105.855 L157.683,96.214 L0,98.784 Z" id="Path_67" fill="#565159" fill-rule="nonzero"></path>
                <polygon id="Path_68" fill="#6F5E68" fill-rule="nonzero" points="13.221 90.912 0 98.789 157.682 96.218 143.362 89.874"></polygon>
                <path d="M13.017,86.666 L11.296,51.714 L15.867,55.725 C15.867,55.725 16.527,75.005 18.18,86.666 L13.017,86.666 Z" id="Path_71" fill="url(#linearGradient-2)" fill-rule="nonzero" style="mix-blend-mode: soft-light;"></path>
                <polygon id="Path_72" fill="url(#linearGradient-3)" fill-rule="nonzero" points="19.05 86.666 18.178 87.309 137.988 87.883 137.488 86.667"></polygon>
                <polygon id="Path_73" fill="url(#linearGradient-4)" fill-rule="nonzero" opacity="0.62" style="mix-blend-mode: multiply;" points="49.608 97.522 53.79 94.327 98.144 93.551 102.788 96.73"></polygon>
                <path d="M25.146,90.914 C25.0834965,90.0387396 25.293061,89.1655542 25.746,88.414 L49.829,88.414 C49.5360998,89.2141457 49.3960072,90.0621644 49.416,90.914 L25.146,90.914 Z" id="Path_74" fill="#5F5159" fill-rule="nonzero"></path>
                <path d="M133.335,90.914 C133.397833,90.0387125 133.188245,89.1654286 132.735,88.414 L108.654,88.414 C108.946988,89.2141471 109.087412,90.0621195 109.068,90.914 L133.335,90.914 Z" id="Path_75" fill="#5F5159" fill-rule="nonzero"></path>
                <path d="M109.074,90.914 L108.396,90.155 L108.661,88.411 C109.072441,89.1764434 109.217726,90.0569529 109.074,90.914 L109.074,90.914 Z" id="Path_76" fill="#343434" fill-rule="nonzero"></path>
                <path d="M49.409,90.914 L50.091,90.603 L49.821,88.41 C49.821,88.41 49.416,88.668 49.409,90.914 Z" id="Path_77" fill="#140047" fill-rule="nonzero"></path>
                <circle id="Ellipse_1" fill="#6EFFE8" fill-rule="nonzero" cx="77.168" cy="1.927" r="1"></circle>
                <polyline id="Path_395" stroke="#E64015" stroke-width="2" stroke-linecap="round" stroke-linejoin="round" points="99.991 25.084 60.857 25.084 61.647 62.789 104.876 61.914 104.876 33.639"></polyline>
                <circle id="Ellipse_7" fill="#E64015" fill-rule="nonzero" opacity="0.502" cx="104.896" cy="33.662" r="2.5"></circle>
            </g>
            <g id="Group_33" transform="translate(125.140000, 56.036000)" fill-rule="nonzero">
                <path d="M18.821,11.003 C18.821,11.003 16.469,19.13 16.886,22.462 C17.1084477,24.552838 18.8450657,26.1556068 20.947,26.21 L25.008,16.045 L18.821,11.003 Z" id="Path_7" fill="url(#linearGradient-5)"></path>
                <path d="M1.37,18.262 C1.37,18.262 -0.087,19.325 0.004,19.793 C0.089,20.232 1.683,21.004 1.683,21.004 L1.37,18.262 Z" id="Path_8" fill="#972410"></path>
                <path d="M51.349,61.715 L42.797,79.308 C42.797,79.308 28.024,59.324 21.468,54.117 C20.901,53.668 20.36,53.251 19.851,52.876 C17.224146,50.7785668 14.2949749,49.090787 11.163,47.87 C9.91942446,46.7969714 8.95337456,45.4394929 8.347,43.913 C8.139,43.08 8.139,31.001 7.447,28.293 C6.755,25.585 3.557,22.812 3.282,21.837 C3.007,20.862 4.182,19.196 5.365,18.988 C6.548,18.78 12.654,20.588 14.528,26.769 C14.0172749,27.7359024 13.6202949,28.7587217 13.345,29.817 C13.1456645,31.275472 13.2165118,32.7581787 13.554,34.191 C14.7643679,34.4414713 16.005124,34.5115629 17.236,34.399 C18.344,34.124 20.426,28.018 20.285,23.299 C20.144,18.58 15.57,9.553 15.57,9.553 L12.162,1.573 C12.162,1.573 16.119,-0.301 18.277,0.115 C18.277,0.115 21.677,5.597 23.692,6.78 C23.692,6.78 28.174,7.537 30.739,8.304 C32.8114958,8.66661604 34.7579812,9.54953661 36.396,10.87 C36.396,10.87 39.236,11.078 40.561,12.119 C41.886,13.16 47.642,20.45 47.983,22.399 L47.992,22.516 C48.167,24.84 43.692,38.36 34.905,47.249 C34.905,47.249 37.005,49.273 40.069,52.055 L40.069,52.064 C43.218,54.925 47.392,58.599 51.349,61.715 Z" id="Path_9" fill="#FEA589"></path>
                <path d="M41.935,14.798 L41.919,14.806 C41.5502822,14.9992958 41.1493792,15.1236673 40.736,15.173 C40.736,15.173 27.836,17.222 18.377,18.955 L18.377,18.963 C13.395,19.863 9.363,20.687 8.697,21.071 C8.1764546,21.3595539 7.72686213,21.7606342 7.381,22.245 C7.0080975,22.7529908 6.78844147,23.3571316 6.748,23.986 C4.75164373,23.6452934 2.94954256,22.584313 1.683,21.004 C1.05897158,20.3331783 0.834071715,19.3834323 1.091,18.504 C1.8153867,16.8841151 3.00425125,15.515668 4.507,14.572 L4.515,14.572 C5.12474852,14.1799833 5.78294893,13.8690357 6.473,13.647 C6.4817073,13.7729328 6.49840761,13.8981852 6.523,14.022 C6.606,14.472 6.856,15.172 7.514,15.172 C8.006,15.172 14.145,12.906 21.309,10.007 L21.318,9.998 C28.0027027,7.37026231 34.5503815,4.4064848 40.936,1.118 C43.6563774,1.30052548 45.8541727,3.40771178 46.151,6.118 C46.7906185,9.621374 45.084074,13.1348481 41.935,14.798 Z" id="Path_10" fill="#E64015"></path>
                <path d="M18.377,18.955 L18.377,18.963 C13.395,19.863 9.363,20.687 8.697,21.071 C8.1764546,21.3595539 7.72686213,21.7606342 7.381,22.245 L4.249,23.02 C2.649,19.671 4.507,14.573 4.507,14.573 L4.515,14.573 L6.523,14.023 C6.606,14.473 6.856,15.173 7.514,15.173 C8.006,15.173 14.145,12.907 21.309,10.008 C17.902,13.648 18.377,18.955 18.377,18.955 Z" id="Path_11" fill="#9A7AB3" opacity="0.86" style="mix-blend-mode: multiply;"></path>
                <path d="M4.506,14.569 C4.506,14.569 5.431,17.569 10.846,15.016 C10.846,15.016 18.135,8.579 19.616,2.136 L18.274,0.108 C18.274,0.108 14.265,-0.534 12.165,1.566 C11.6349515,4.47061572 10.6459095,7.27233884 9.235,9.866 C8.535,11.003 4.506,13.398 4.506,13.398 L4.506,14.569 Z" id="Path_12" fill="#FEA589"></path>
                <path d="M3.279,21.837 C3.279,21.837 7.214,26.871 7.445,28.293 C7.676,29.715 8.301,43.5 8.301,43.5 C8.42186013,39.7247903 10.3842978,36.248216 13.554,34.194 C13.408668,32.9167876 13.408668,31.6272124 13.554,30.35 C13.7597179,29.1263562 14.085285,27.9259114 14.526,26.766 C14.699,25.95 12.262,19.234 6.188,18.401 C5.50542689,18.6442545 4.87844572,19.0216672 4.344,19.511 C3.796544,20.1828828 3.42993787,20.9835644 3.279,21.837 Z" id="Path_13" fill="#FEA589"></path>
                <path d="M54.816,85.319 C54.835,85.319 54.906,90.951 54.816,90.8993579 L42.502,79.009 C42.502,79.009 39.602,80.625 38.778,80.458 C36.621,80.042 36.621,75.358 36.621,75.358 C36.3129969,71.5954088 36.6053141,67.8077749 37.487,64.137 C37.4916322,64.1234468 37.4943255,64.109307 37.495,64.095 C38.512,60.155 40.544,56.195 44.485,54.115 C44.485,54.115 47.134,53.232 49.066,57.764 L54.816,61.63 C54.816,61.63 54.836,85.309 54.816,85.319 Z" id="Path_14" fill="#6F5E68"></path>
                <path d="M54.803,85.6 C54.835,88.321 54.866,89.245 54.803,90.871 L42.503,79.009 C42.503,79.009 39.603,80.625 38.779,80.458 C36.622,80.042 36.622,75.358 36.622,75.358 C36.3139969,71.5954088 36.6063141,67.8077749 37.488,64.137 C37.38,64.837 35.939,73.975 37.921,77.024 C39.987,80.198 43.478,59.947 49.067,57.764 C49.067,57.764 43.403,67.094 43.894,73.55 C44.385,80.006 54.803,85.6 54.803,85.6 Z" id="Path_15" fill="url(#linearGradient-6)" opacity="0.5" style="mix-blend-mode: multiply;"></path>
                <path d="M13.554,34.194 C14.4794722,35.0760715 15.6059772,35.7192983 16.836,36.068 C17.8758245,34.6111638 18.6139515,32.9611728 19.007,31.215 C19.007,31.215 18.207,33.465 17.198,33.985 C16.0380283,34.447497 14.7592438,34.5208411 13.554,34.194 L13.554,34.194 Z" id="Path_17" fill="url(#linearGradient-7)"></path>
                <path d="M3.279,21.837 C3.279,21.837 6.467,25.897 7.41,25.898 C8.672,25.898 9.388,23.989 8.503,21.473 C8.04153356,20.3267489 7.13306764,19.4179219 5.987,18.956 C5.987,18.956 4.355,19.234 3.279,21.837 Z" id="Path_18" fill="url(#linearGradient-8)" style="mix-blend-mode: soft-light;"></path>
                <path d="M3.702,22.379 C4.35313793,21.077396 5.38294117,20.0033189 6.656,19.298 L5.987,18.959 C4.71564531,19.4904505 3.73080229,20.53821 3.279,21.84 L3.702,22.379 Z" id="Path_19" fill="url(#linearGradient-9)" style="mix-blend-mode: soft-light;"></path>
                <path d="M7.543,19.987 C8.60604174,21.0258544 9.08477228,22.5242285 8.821,23.987 C8.457,26.625 6.844,25.776 6.188,25.135 C6.56068421,25.5688211 7.05390004,25.8820845 7.605,26.035 C8.334,26.135 9.271,25.215 9.284,23.419 C9.12555332,22.1057878 8.50906656,20.8905192 7.543,19.987 Z" id="Path_20" fill="url(#linearGradient-10)"></path>
                <path d="M41.935,14.798 L41.919,14.806 L41.444,14.998 C39.2875512,13.0718241 38.0973772,10.2877915 38.195,7.398 C38.195,2.875 40.936,1.117 40.936,1.117 C43.6563774,1.29952548 45.8541727,3.40671178 46.151,6.117 C46.7910906,9.62070628 45.0844764,13.1347285 41.935,14.798 Z" id="Path_21" fill="url(#linearGradient-11)" style="mix-blend-mode: soft-light;"></path>
                <path d="M44.095,8.379 L44.095,8.379 L43.983,8.424 C43.3767602,7.99476846 43.0086817,7.30457483 42.99,6.562 C42.9723285,5.95433725 43.3140178,5.39321445 43.862,5.13 C44.5077052,5.17273036 45.0296182,5.67272126 45.1,6.316 C45.2525654,7.14950169 44.8453696,7.98536727 44.095,8.379 L44.095,8.379 Z" id="Path_22" fill="url(#linearGradient-12)"></path>
                <path d="M43.692,7.802 L43.692,7.802 L43.621,7.831 C43.2747252,7.59886783 43.0796424,7.1987764 43.11,6.783 C43.103286,6.38863703 43.2604385,6.00915347 43.544,5.735 C43.9548752,5.76255981 44.2868987,6.08067876 44.332,6.49 C44.428286,7.02019924 44.1691115,7.55150684 43.692,7.802 L43.692,7.802 Z" id="Path_23" fill="#9A7AD9" opacity="0.86" style="mix-blend-mode: multiply;"></path>
                <path d="M15.668,9.747 L13.554,4.827 L14.189,11.527 C14.189,11.527 14.954,10.654 15.668,9.747 Z" id="Path_24" fill="url(#linearGradient-13)"></path>
                <polygon id="Path_25" fill="url(#linearGradient-14)" style="mix-blend-mode: soft-light;" points="12.929 14.062 31.429 6.784 30.738 8.3 12.928 14.825"></polygon>
                <polygon id="Path_26" fill="#FFFFFF" style="mix-blend-mode: soft-light;" points="32.024 8.126 32.818 6.087 36.552 4.208 35.63 7.12"></polygon>
                <path d="M44.436,9.509 C44.2283722,10.3591857 43.8070602,11.1422614 43.212,11.784 L43.925,12.497 C44.6966429,11.8450883 45.242332,10.9658252 45.484,9.985 L44.436,9.509 Z" id="Path_27" fill="#FFFFFF" style="mix-blend-mode: soft-light;"></path>
                <g id="Group_11" style="mix-blend-mode: soft-light;" transform="translate(36.464000, 53.912000)" fill="#FFFFFF">
                    <g id="Group_3" transform="translate(7.982000, 0.000000)">
                        <path d="M3.815,4.54 C3.48955747,2.52211559 1.98753154,0.895216274 0.002,0.41 L0.078,0 C2.23206485,0.521562046 3.86518508,2.28109453 4.225,4.468 L3.815,4.54 Z" id="Path_28"></path>
                    </g>
                    <g id="Group_4" transform="translate(5.093000, 2.152000)">
                        <path d="M5.235,4.508 C4.06293066,2.53581138 2.1955894,1.07332826 -5.68434189e-14,0.408 L0.1,0.003 C2.41502576,0.685668312 4.3822193,2.22615969 5.6,4.31 L5.235,4.508 Z" id="Path_29"></path>
                    </g>
                    <g id="Group_5" transform="translate(2.589000, 5.689000)">
                        <path d="M6.494,3.353 C4.57857668,1.89548481 2.35866997,0.889450717 0,0.41 L0.074,5.68434189e-14 C2.50710516,0.482818908 4.79567544,1.52152248 6.761,3.035 L6.494,3.353 Z" id="Path_30"></path>
                    </g>
                    <g id="Group_6" transform="translate(1.168000, 9.298000)">
                        <path d="M6.675,3.641 C4.64846304,2.19330046 2.39162213,1.09885941 -5.68434189e-14,0.404 L0.1,0.004 C2.54239571,0.71191798 4.84754107,1.82763809 6.918,3.304 L6.675,3.641 Z" id="Path_31"></path>
                    </g>
                    <g id="Group_7" transform="translate(0.226000, 14.277000)">
                        <path d="M6.706,2.238 C2.319,0.146 0.083,0.429 0.06,0.438 L0,0.026 C0.094,0.014 2.369,-0.287 6.885,1.868 L6.706,2.238 Z" id="Path_32"></path>
                    </g>
                    <g id="Group_8" transform="translate(0.000000, 18.427000)">
                        <path d="M4.044,1.858 C2.68256986,1.86912899 1.32476606,1.71602352 5.68434189e-14,1.402 L0.107,1.002 C2.17561456,1.47195463 4.31169843,1.56746369 6.414,1.284 L6.471,1.696 C5.66665958,1.80546743 4.85575371,1.85959464 4.044,1.858 Z" id="Path_33"></path>
                    </g>
                    <g id="Group_9" transform="translate(0.729000, 22.938000)">
                        <path d="M0.085,2.159 C0.038,2.159 0.01,2.159 0,2.159 L0.019,1.743 C1.8717945,1.64255103 3.6625254,1.04080185 5.2,0.002 L5.418,0.355 C3.8336303,1.42239479 1.99199926,2.04536543 0.085,2.159 L0.085,2.159 Z" id="Path_34"></path>
                    </g>
                    <g id="Group_10" transform="translate(5.830000, 3.707000)">
                        <path d="M0.416,21.392 L0,21.392 C0,21.242 0.222,6.415 6.625,0.004 L6.92,0.299 C0.637,6.585 0.418,21.244 0.416,21.392 Z" id="Path_35"></path>
                    </g>
                </g>
            </g>
            <rect id="Rectangle_24" fill="#FFFFFF" fill-rule="nonzero" x="0" y="146" width="180" height="11"></rect>
            <g id="Group_63" transform="translate(8.064000, 127.962000)">
                <polygon id="Path_133" fill="#FFFFFF" fill-rule="nonzero" points="95.85 12.596 0.003 12.596 0.003 7.103 34.263 2.903 95.854 7.103"></polygon>
                <rect id="Rectangle_19" fill="#F8ECED" fill-rule="nonzero" x="27.331" y="7.103" width="68.519" height="10.987"></rect>
                <rect id="Rectangle_20" fill="#F5DEBF" fill-rule="nonzero" x="0" y="7.103" width="62.966" height="10.987"></rect>
                <path d="M62.97,12.071 C62.97,12.071 99.526,12.237 102.615,11.209 C102.615,11.209 91.315,13.867 62.97,13.12 L62.97,12.071 Z" id="Path_134" fill="#FFFFFF" fill-rule="nonzero"></path>
                <path d="M94.709,1.561 C93.8381507,3.80253526 92.3170128,5.73251383 90.341,7.103 L86.015,7.103 L91.326,4.803 L94.709,1.561 Z" id="Path_135" fill="#F8ECED" fill-rule="nonzero"></path>
                <path d="M95.2,0 C95.2,0 93.967,7.1 84.48,7.1 C74.993,7.1 85.873,6.42 85.873,6.42 C85.873,6.42 92.773,5.729 95.2,0 Z" id="Path_136" fill="#FFFFFF" fill-rule="nonzero"></path>
                <line x1="61.686" y1="14.814" x2="10.947" y2="14.814" id="Line_9" stroke="#FFFFFF" stroke-width="0.266"></line>
                <line x1="57.24" y1="10.895" x2="43.479" y2="10.895" id="Line_10" stroke="#FFFFFF" stroke-width="0.266"></line>
                <line x1="37.365" y1="10.422" x2="31.483" y2="10.422" id="Line_11" stroke="#FFFFFF" stroke-width="0.266"></line>
            </g>
        </g>
    </g>
</svg>