<?xml version="1.0" encoding="UTF-8"?>
<svg width="180px" height="181px" viewBox="0 0 180 181" version="1.1" xmlns="http://www.w3.org/2000/svg" xmlns:xlink="http://www.w3.org/1999/xlink">
    <title>surrounding_clear bg</title>
    <g id="Login-Signup-Flow" stroke="none" stroke-width="1" fill="none" fill-rule="evenodd">
        <g id="surrounding_clear-bg" fill-rule="nonzero">
            <rect id="Rectangle_11" fill="#3B404E" x="0" y="0.989010989" width="180" height="178.021978" rx="13"></rect>
            <g id="Group_12" transform="translate(8.000000, 0.033626)">
                <g id="Group_9" transform="translate(0.913000, 70.112967)">
                    <path d="M27.131,46.0552747 L27.131,55.3025275 C27.1318117,56.710215 26.204175,57.9537974 24.844,58.3684615 L10.644,62.6874725 C7.92568567,63.5148394 6.07059183,65.9985546 6.07,68.8114286 L6.07,92.1125275 C6.07,96.5368745 9.69649353,100.123516 14.17,100.123516 L60.737,100.123516 L60.737,46.0552747 L27.131,46.0552747 Z" id="Path_30" fill="#CA8759"></path>
                    <path d="M38.469,70.0842857 C30.8856947,70.0656632 23.8322704,66.2349093 19.747,59.9162637 L10.647,62.6854945 C7.92868567,63.5128614 6.07359183,65.9965766 6.073,68.8094505 L6.073,92.1105495 C6.073,96.5348965 9.69949353,100.121538 14.173,100.121538 L60.74,100.121538 L60.74,48.0530769 C60.7070457,60.2051229 50.7560611,70.0489656 38.469,70.0842857 Z" id="Path_31" fill="#4FC5F3"></path>
                    <g id="Group_8" transform="translate(6.074000, 48.057033)" fill="#00B8EB">
                        <path d="M54.6710426,-0.00395604396 C54.6902758,9.78188802 48.1709189,18.4037129 38.6743943,21.1514945 C29.1778698,23.899276 18.9878298,20.1122487 13.671,11.8592308 L9.662,13.0786813 C14.2824389,20.9593643 22.7382561,25.8714835 31.947889,26.0249099 C41.1575219,26.1783363 49.7758171,21.5506606 54.662,13.8283516 L54.6710426,-0.00395604396 Z" id="Path_32"></path>
                        <path d="M34.42,42.0517582 L14.173,42.0517582 C13.0550139,42.0512122 12.1489999,41.1547116 12.149,40.049011 L12.149,30.5238462 C12.1497946,28.9290115 11.5098515,27.3992102 10.37,26.2710989 L1.14,17.1435165 C0.401552863,18.2041798 0.00420610306,19.4606826 0,20.7484615 L0,44.0495604 C0,48.4739075 3.62649353,52.0605495 8.1,52.0605495 L40.495,52.0605495 L40.495,48.056044 C40.4933436,44.7391024 37.7737968,42.0512117 34.42,42.0517582 Z" id="Path_33"></path>
                    </g>
                    <path d="M55.678,32.038022 L55.378,32.038022 L54.666,18.0207692 L22.524,18.0207692 L22.524,32.038022 L21.258,32.038022 C19.5811018,32.0385681 18.222,33.3831775 18.222,35.0416484 L18.222,39.0451648 C18.222,40.7036357 19.5811018,42.0482451 21.258,42.0487912 L23.178,42.0487912 L23.507,44.0812088 C23.7538808,45.6108037 24.5528745,47.0000899 25.756,47.9917582 L32.256,53.3492308 C33.1292698,54.0690767 34.2301811,54.4628573 35.367,54.4628573 L41.567,54.4628573 C42.7038189,54.4628573 43.8047302,54.0690767 44.678,53.3492308 L51.178,47.9917582 C52.3815164,47.000119 53.1811623,45.6109343 53.429,44.0812088 L53.758,42.0487912 L55.677,42.0487912 C57.3542888,42.0487912 58.714,40.7040219 58.714,39.0451648 L58.714,35.0416484 C58.7134485,33.3834034 57.3546696,32.0391136 55.678,32.038022 Z" id="Path_34" fill="#EEB172"></path>
                    <path d="M54.666,18.0217582 L22.524,18.0217582 L22.524,32.038022 L21.258,32.038022 C19.5814922,32.0385678 18.2225519,33.3825747 18.222,35.0406593 L18.222,39.0451648 C18.222,40.7036357 19.5811018,42.0482451 21.258,42.0487912 L23.178,42.0487912 L23.507,44.0812088 C23.7535871,45.6106289 24.5526584,46.9996986 25.756,47.9907692 L32.256,53.3492308 C33.1292624,54.0684169 34.2296138,54.4624299 35.366,54.4628571 L37.926,54.4628571 L35.04,45.9 C34.6271887,44.6747551 34.4168225,43.391697 34.417,42.1002198 L34.417,30.0342857 C34.417,28.9287452 35.3231757,28.0325275 36.441,28.0325275 L36.441,28.0325275 C36.441,28.0325275 38.466,28.0325275 39.276,27.0702198 C41.8199898,28.3539964 44.8320102,28.3539964 47.376,27.0702198 C48.6295983,27.7035071 50.0173343,28.0333241 51.425,28.0325275 C51.6255239,28.0320169 51.825853,28.0201292 52.025,27.9969231 L55.172,27.9969231 L54.666,18.0217582 Z" id="Path_35" fill="#E29E63"></path>
                    <path d="M62.764,17.6212088 C62.758641,15.453041 61.2824727,13.5583547 59.164,13.0005495 C59.7716531,11.5217953 59.5943789,9.84081541 58.6912652,8.51790265 C57.7881514,7.1949899 56.2779384,6.40407905 54.664,6.40879121 C54.564,6.40879121 54.474,6.43153846 54.376,6.43747253 C53.704444,4.50666292 51.8695335,3.20882723 49.805,3.2043956 C49.2997218,3.207688 48.798407,3.29288374 48.321,3.45659341 C46.9673505,1.94073911 44.8804399,1.28403625 42.89,1.74758242 C40.4112345,-0.581719214 36.5217655,-0.581719214 34.043,1.74758242 C32.1668196,1.31175683 30.1960843,1.86484348 28.831,3.21032967 C28.802,3.21032967 28.776,3.2043956 28.747,3.2043956 C26.6827367,3.20894838 24.8481804,4.5068174 24.177,6.43747253 C24.077,6.43153846 23.987,6.40879121 23.888,6.40879121 C22.2744477,6.40506186 20.7649474,7.19618744 19.8620511,8.51878162 C18.9591549,9.84137581 18.7814129,11.5217821 19.388,13.0005495 C17.7558655,13.4245234 16.4667716,14.6617994 15.9893666,16.2625674 C15.5119616,17.8633355 15.9157746,19.5944601 17.054,20.8265934 C16.065701,21.8942084 15.6238914,23.349433 15.8540717,24.7788955 C16.084252,26.2083579 16.9612702,27.455859 18.236,28.167033 C18.3045371,30.3238806 20.0911118,32.0378624 22.273,32.0400004 L24.043,32.0400004 C24.8356442,32.0405515 25.5124412,31.4741058 25.643,30.7008791 L26.773,23.9934066 C26.894,24.0023077 27.011,24.029011 27.135,24.029011 C28.7650421,24.0290842 30.2861496,23.2194843 31.184,21.873956 C32.0819328,23.2200303 33.6034517,24.0300333 35.234,24.0300333 C36.8645483,24.0300333 38.3860672,23.2200303 39.284,21.873956 C40.1816183,23.2204741 41.7032503,24.0308407 43.334,24.0308407 C44.9647497,24.0308407 46.4863817,23.2204741 47.384,21.873956 C48.2818504,23.2194843 49.8029579,24.0290842 51.433,24.029011 C51.557,24.029011 51.673,24.0013187 51.795,23.9934066 L52.925,30.7008791 C53.0559421,31.4738902 53.7325074,32.0400004 54.525,32.0400004 L56.699,32.0400004 C58.935201,32.0400004 60.748,30.2471218 60.748,28.0354945 C60.748,27.9949451 60.737,27.9553846 60.735,27.9138462 C61.8629869,27.1281095 62.5945713,25.9003253 62.7431079,24.543732 C62.8916445,23.1871386 62.4427687,21.8329282 61.511,20.8265934 C62.3165134,19.9490127 62.7631432,18.8064586 62.764,17.6212088 Z" id="Path_36" fill="#563A3B"></path>
                    <path d="M37.283,20.5397802 C35.7429258,20.0231982 34.5704658,18.7728156 34.16552,17.21511 C33.7605741,15.6574043 34.1778409,14.0027845 35.275,12.8156044 C34.1371958,11.5836548 33.7336419,9.85293501 34.2110387,8.25259897 C34.6884356,6.65226292 35.9772613,5.4153628 37.609,4.99153846 C36.9084102,3.29678149 37.2589075,1.3544097 38.509,0.00395604396 C38.495,0.00395604396 38.481,0.00395604396 38.466,0.00395604396 C36.8204357,0.00564585076 35.238031,0.630661141 34.044,1.75054945 C32.1675178,1.31494698 30.1965967,1.86797967 28.831,3.2132967 C28.803,3.2132967 28.777,3.20736264 28.748,3.20736264 C26.6835641,3.21209398 24.8488112,4.50981817 24.177,6.44043956 C24.077,6.43450549 23.988,6.41175824 23.889,6.41175824 C22.2750616,6.40704608 20.7648486,7.19795693 19.8617348,8.52086969 C18.9586211,9.84378245 18.7813469,11.5247624 19.389,13.0035165 C17.7568655,13.4274905 16.4677716,14.6647664 15.9903666,16.2655345 C15.5129616,17.8663025 15.9167746,19.5974271 17.055,20.8295604 C16.066701,21.8971754 15.6248914,23.3524001 15.8550717,24.7818625 C16.085252,26.211325 16.9622702,27.4588261 18.237,28.17 C18.3044927,30.3269151 20.0910757,32.0413296 22.273,32.0429683 L24.043,32.0429683 C24.835796,32.0439289 25.5128254,31.4772888 25.643,30.7038462 L26.773,23.9963736 C26.896,24.0052747 27.011,24.031978 27.135,24.031978 C28.7651333,24.0324092 30.2864014,23.2227237 31.184,21.8769231 C32.0818504,23.2224513 33.6029579,24.0320512 35.233,24.031978 C36.3032617,24.0241866 37.3401886,23.6628484 38.179,23.0053846 C37.5959639,22.4271511 37.2650098,21.646134 37.257,20.8295604 C37.256,20.7276923 37.274,20.6347253 37.283,20.5397802 Z" id="Path_37" fill="#483237"></path>
                    <path d="M34.419,90.1087912 L40.493,90.1087912 C42.103925,90.1087912 43.6488706,90.7416964 44.7879666,91.8682748 C45.9270626,92.9948532 46.567,94.5228215 46.567,96.116044 L46.567,100.120549 L34.419,100.120549 L34.419,90.1087912 Z" id="Path_38" fill="#E29E63"></path>
                    <path d="M111.357,86.0993407 L50.617,86.0993407 C49.0059018,86.0993407 47.4606992,85.4668136 46.3213869,84.3402068 C45.1820747,83.2135999 44.542,81.6854818 44.542,80.0920879 L44.542,44.0535165 C44.542,40.7352562 47.2618701,38.0452747 50.617,38.0452747 L111.357,38.0452747 C114.71213,38.0452747 117.432,40.7352562 117.432,44.0535165 L117.432,80.097033 C117.428689,83.4129756 114.709788,86.0993407 111.357,86.0993407 Z" id="Path_39" fill="#CAD4E8"></path>
                    <path d="M93.135,100.120549 L89.555,73.5596703 C89.2864117,71.5701823 87.5704452,70.0842857 85.541,70.0842857 L76.434,70.0842857 C74.4047703,70.0842857 72.6891249,71.5703362 72.421,73.5596703 L68.841,100.120549 L68.841,104.125055 L93.141,104.125055 L93.141,100.120549 L93.135,100.120549 Z" id="Path_40" fill="#9CABC8"></path>
                    <ellipse id="Ellipse_4" fill="#FFFFFF" cx="80.986" cy="58.0697802" rx="4.049" ry="4.00450549"></ellipse>
                    <path d="M115.406,108.130549 L2.024,108.130549 C0.906013926,108.130003 -5.68434189e-14,107.233503 -5.68434189e-14,106.127802 L-5.68434189e-14,102.124286 C-5.68434189e-14,101.018585 0.906013926,100.122084 2.024,100.121538 L115.406,100.121538 C116.524148,100.122084 117.431,101.018425 117.431,102.124286 L117.431,106.127802 C117.431,107.233663 116.524148,108.130004 115.406,108.130549 L115.406,108.130549 Z" id="Path_41" fill="#F5D3A4"></path>
                </g>
                <g id="Group_13" transform="translate(88.074000, 0.955385)">
                    <path d="M47.374,20.0789082 C47.0739998,20.0799568 46.7859996,19.9624622 46.574,19.7525275 L36.425,9.71010989 C35.9831722,9.27313734 35.9831722,8.56466486 36.425,8.12769231 C36.8668278,7.69071976 37.5831722,7.69071976 38.025,8.12769231 L48.176,18.1681319 C48.4984726,18.4875529 48.5945482,18.9676834 48.4193995,19.3845034 C48.2442509,19.8013235 47.8323966,20.0726859 47.376,20.071978 L47.374,20.0789082 Z" id="Path_55" fill="#E1E7E7"></path>
                    <path d="M33.839,11.1550549 C30.7246663,11.1550549 28.2,8.65813224 28.2,5.57802198 C28.2,2.49791172 30.7246663,0.000989010989 33.839,0.000989010989 C36.9533337,0.000989010989 39.478,2.49791172 39.478,5.57802198 C39.474693,8.65677648 36.9519629,11.1517843 33.839,11.1550549 L33.839,11.1550549 Z M33.839,2.23120879 C31.9700684,2.23120879 30.455,3.72962809 30.455,5.57802198 C30.455,7.42641586 31.9700684,8.92483516 33.839,8.92483516 C35.7079316,8.92483516 37.223,7.42641586 37.223,5.57802198 C37.2202464,3.73075733 35.7067898,2.23393217 33.839,2.23120879 Z" id="Path_56" fill="#7882A1"></path>
                    <path d="M20.302,20.0789029 C19.8456034,20.079609 19.4337491,19.8082466 19.2586005,19.3914265 C19.0834518,18.9746064 19.1795274,18.494476 19.502,18.1750549 L33.041,4.78582418 C33.3268125,4.5031525 33.7433932,4.39275664 34.1338203,4.49622166 C34.5242474,4.59968667 34.8292057,4.90129376 34.9338203,5.28743045 C35.0384349,5.67356714 34.9268125,6.08557008 34.641,6.36824176 L21.1,19.7525275 C20.8884895,19.9619751 20.6013075,20.0794295 20.302,20.0789029 L20.302,20.0789029 Z" id="Path_57" fill="#E1E7E7"></path>
                    <rect id="Rectangle_8" fill="#8C4934" x="0" y="18.9642857" width="65.421" height="46.8534066"></rect>
                    <rect id="Rectangle_9" fill="#E1E7E7" x="5.64" y="24.5413187" width="54.142" height="35.6973626"></rect>
                    <path d="M33.838,48.1935165 C31.8694589,45.9261501 28.9982516,44.6216016 25.9765,44.6216016 C22.9547484,44.6216016 20.0835411,45.9261501 18.115,48.1935165 C15.945,50.671978 13.533,56.1530769 11.278,60.2396703 L40.605,60.2396703 C38.352,56.1520879 36.009,50.670989 33.838,48.1935165 Z" id="Path_58" fill="#99C13B"></path>
                    <path d="M48.468,50.4563736 C44.9213782,46.3716483 38.7825263,45.7000743 34.419,48.9194505 C36.426,51.6303297 38.555,56.5120879 40.611,60.2386813 L55.269,60.2386813 C53.363055,56.746261 51.0829505,53.4666427 48.468,50.4563736 L48.468,50.4563736 Z" id="Path_59" fill="#8DB92E"></path>
                    <g id="Group_17" transform="translate(10.152000, 27.889121)" fill="#E97412">
                        <path d="M6.767,4.46142901 C6.14457509,4.46142901 5.64,3.96239827 5.64,3.34681319 L5.64,1.11461538 C5.64,0.498484194 6.14502291,-0.000988745008 6.768,-0.000988745008 C7.39097709,-0.000988745008 7.896,0.498484194 7.896,1.11461538 L7.896,3.34681319 C7.8957349,3.6426899 7.77663807,3.92634412 7.56490947,4.13537507 C7.35318088,4.34440603 7.06616424,4.46169099 6.767,4.46142901 Z" id="Path_60"></path>
                        <path d="M6.767,13.3852752 C6.14457509,13.3852752 5.64,12.8862444 5.64,12.2706593 L5.64,10.0384615 C5.64,9.42233035 6.14502291,8.92285741 6.768,8.92285741 C7.39097709,8.92285741 7.896004,9.42233035 7.896004,10.0384615 L7.896004,12.2667033 C7.89679761,12.5632652 7.77816994,12.8479366 7.56632598,13.0578238 C7.35448203,13.267711 7.06685796,13.3855387 6.767,13.3852752 Z" id="Path_61"></path>
                        <path d="M12.409,7.80824176 L10.152,7.80824176 C9.5290228,7.80824176 9.024,7.30876866 9.024,6.69263736 C9.024,6.07650607 9.5290228,5.57703297 10.152,5.57703297 L12.409,5.57703297 C13.0319772,5.57703297 13.537,6.07650607 13.537,6.69263736 C13.537,7.30876866 13.0319772,7.80824176 12.409,7.80824176 Z" id="Path_62"></path>
                        <path d="M3.384,7.80824176 L1.127,7.80824176 C0.504022802,7.80824176 -0.001,7.30876866 -0.001,6.69263736 C-0.001,6.07650607 0.504022802,5.57703297 1.127,5.57703297 L3.384,5.57703297 C4.0069772,5.57703297 4.512,6.07650607 4.512,6.69263736 C4.512,7.30876866 4.0069772,7.80824176 3.384,7.80824176 Z" id="Path_63"></path>
                        <path d="M4.375,5.44253083 C4.07506522,5.44325432 3.78718764,5.32580976 3.575,5.11615385 L1.455,3.01945055 C1.16918753,2.73677887 1.05756505,2.32477593 1.16217968,1.93863924 C1.2667943,1.55250255 1.57175258,1.25089546 1.96217968,1.14743045 C2.35260677,1.04396544 2.76918753,1.15436129 3.055,1.43703297 L5.175,3.53373626 C5.49747264,3.85315731 5.59354815,4.33328776 5.41839952,4.75010784 C5.24325088,5.16692791 4.83139656,5.43829029 4.375,5.43758242 L4.375,5.44253083 Z" id="Path_64"></path>
                        <path d="M11.279,12.267697 C10.9786449,12.2685559 10.6904796,12.1502815 10.479,11.9393407 L8.359,9.84362637 C8.0731875,9.5609547 7.961565,9.14895175 8.06617962,8.76281504 C8.17079424,8.37667833 8.47575253,8.07507123 8.86617965,7.97160622 C9.25660677,7.86814121 9.67318753,7.97853709 9.959,8.26120879 L12.079,10.3579121 C12.4014726,10.6773331 12.4975482,11.1574636 12.3223995,11.5742837 C12.1472509,11.9911037 11.7353966,12.2624661 11.279,12.2617582 L11.279,12.267697 Z" id="Path_65"></path>
                        <path d="M9.159,5.44255993 C8.70260344,5.44323534 8.29074912,5.17187296 8.11560048,4.75505289 C7.94045185,4.33823282 8.03652736,3.85810236 8.359,3.53868132 L10.479,1.44197802 C10.9208278,1.00500552 11.6371722,1.00500554 12.0789999,1.44197807 C12.5208277,1.8789506 12.5208278,2.58742305 12.079,3.0243956 L9.959,5.1210989 C9.74611855,5.32912841 9.4582601,5.44478582 9.159,5.44255993 L9.159,5.44255993 Z" id="Path_66"></path>
                        <path d="M2.255,12.2676944 C1.79860344,12.2684002 1.38674912,11.9970378 1.21160048,11.5802177 C1.03645185,11.1633977 1.13252736,10.6832672 1.455,10.3638462 L3.574,8.26714286 C4.01582782,7.83153595 4.73105285,7.83264298 5.17149989,8.26961549 C5.61194694,8.706588 5.6108277,9.41395341 5.169,9.84956044 L3.05,11.9452747 C2.83844784,12.1523607 2.55265228,12.268267 2.255,12.2676944 Z" id="Path_67"></path>
                    </g>
                    <g id="Group_18" transform="translate(5.640000, 50.237802)" fill="#73902C">
                        <path d="M0,5.54043956 L0,10.0018681 L5.64,10.0018681 C7.395,6.82120879 9.247,2.79593407 11.005,0 C4.806,0.313516484 0,2.67131868 0,5.54043956 Z" id="Path_68"></path>
                        <path d="M43.767,1.32527473 C45.9882349,4.03186078 47.9506527,6.93651818 49.629,10.0018681 L54.141,10.0018681 L54.141,3.5732967 C50.809898,2.335803 47.3161109,1.57870735 43.767,1.32527473 L43.767,1.32527473 Z" id="Path_69"></path>
                    </g>
                    <g id="Group_19" transform="translate(30.454000, 29.003736)" fill="#7882A1">
                        <path d="M4.512,13.3872527 C3.8890228,13.3872527 3.384,12.8877796 3.384,12.2716484 C3.3828973,11.0398378 2.37349736,10.0415301 1.128,10.0404396 C0.505022802,10.0404396 0,9.54096646 0,8.92483516 C0,8.30870387 0.505022802,7.80923077 1.128,7.80923077 C2.34119806,7.80830136 3.50337906,8.29188797 4.351,9.15032967 C5.39939643,7.61462363 7.1504398,6.69405996 9.024,6.69362637 C9.6469772,6.69362637 10.152,7.19309947 10.152,7.80923077 C10.152,8.42536206 9.6469772,8.92483516 9.024,8.92483516 C7.15621019,8.92755854 5.64275364,10.4243837 5.64,12.2716484 C5.64,12.8877796 5.1349772,13.3872527 4.512,13.3872527 L4.512,13.3872527 Z" id="Path_70"></path>
                        <path d="M18.047,6.69362637 C17.4244134,6.6930805 16.9199998,6.19376725 16.92,5.57802198 C16.9188973,4.34621141 15.9094974,3.34790377 14.664,3.34681319 C14.0410228,3.34681319 13.536,2.84734009 13.536,2.23120879 C13.536,1.6150775 14.0410228,1.1156044 14.664,1.1156044 C15.8773443,1.11493504 17.0395465,1.59888709 17.887,2.45769231 C18.9342569,0.920989045 20.6852412,-0.000481899272 22.559,-0.000989010989 C23.1822533,-0.000989010989 23.6875,0.498705488 23.6875,1.11510989 C23.6875,1.73151429 23.1822533,2.23120879 22.559,2.23120879 C20.691372,2.23338754 19.1777549,3.72992904 19.175,5.57703297 C19.1752654,5.87308097 19.05654,6.15709346 18.8449702,6.36652382 C18.6334004,6.57595418 18.3463375,6.69362637 18.047,6.69362637 Z" id="Path_71"></path>
                    </g>
                    <path d="M16.919,39.0431868 C14.4270912,39.0431868 12.407,37.0452944 12.407,34.5807692 C12.407,32.1162441 14.4270912,30.1183516 16.919,30.1183516 C19.4109088,30.1183516 21.431,32.1162441 21.431,34.5807692 C21.4293453,37.0446162 19.4102231,39.0415502 16.919,39.0431868 Z" id="Path_72" fill="#ECAA05"></path>
                </g>
                <g id="Group_14" transform="translate(126.524000, 51.308901)">
                    <path d="M36.265004,18.9059341 C36.2698543,11.6512468 31.8548615,5.1082516 25.0792867,2.32876807 C18.3037118,-0.450715462 10.5023393,1.08086932 5.31392778,6.20915229 C0.125516273,11.3374353 -1.42782007,19.0521476 1.37843436,25.7549511 C4.18468879,32.4577545 10.7977035,36.8282007 18.133,36.8278039 C22.9406499,36.8299011 27.5521609,34.942731 30.9527144,31.5815865 C34.3532679,28.2204421 36.2642047,23.660753 36.265004,18.9059341 Z" id="Path_73" fill="#FFFFFF"></path>
                    <path d="M32.7460068,18.9049451 C32.7516638,13.057741 29.1945619,7.78319386 23.7340123,5.54177572 C18.2734627,3.30035757 11.9853473,4.53369093 7.80294778,8.66645011 C3.62054831,12.7992093 2.36791523,19.0171244 4.62937716,24.4196607 C6.89083908,29.8221971 12.2208243,33.3449029 18.133,33.3445067 C26.1998333,33.3477835 32.7421349,26.8831316 32.7460068,18.9049451 Z" id="Path_74" fill="#DB3D3D"></path>
                    <path d="M20.771,18.9049451 L24.501,15.2189011 C24.9877705,14.7563692 25.1838363,14.0697985 25.013644,13.4237567 C24.8434517,12.7777149 24.3335695,12.2730532 23.6804787,12.1042412 C23.027388,11.9354292 22.3330402,12.1288197 21.865,12.6098901 L18.133,16.2979121 L14.4,12.6098901 C13.6675348,11.9138978 12.5066067,11.9256025 11.78864,12.6362182 C11.0706733,13.3468339 11.0597192,14.4950131 11.764,15.2189011 L15.494,18.9049451 L11.764,22.591978 C11.0358126,23.3118903 11.0355887,24.4793201 11.7635,25.1995055 C12.4914113,25.9196909 13.6718126,25.9199123 14.4,25.2 L18.133,21.511978 L21.865,25.2 C22.3360547,25.6657016 23.0225365,25.8474845 23.6658545,25.6768729 C24.3091725,25.5062613 24.8115912,25.0091751 24.9838545,24.3728619 C25.1561178,23.7365487 24.9720547,23.0576796 24.501,22.591978 L20.771,18.9049451 Z" id="Path_75" fill="#FFFFFF"></path>
                </g>
            </g>
        </g>
    </g>
</svg>