<?xml version="1.0" encoding="UTF-8"?>
<svg width="180px" height="180px" viewBox="0 0 180 180" version="1.1" xmlns="http://www.w3.org/2000/svg" xmlns:xlink="http://www.w3.org/1999/xlink">
    <title>setup_distance</title>
    <defs>
        <rect id="path-1" x="0" y="0" width="180" height="180" rx="12"></rect>
    </defs>
    <g id="Login-Signup-Flow" stroke="none" stroke-width="1" fill="none" fill-rule="evenodd">
        <g id="setup_distance">
            <rect id="Rectangle_17" fill="#3B404E" fill-rule="nonzero" x="0" y="0" width="180" height="180" rx="12"></rect>
            <g id="Mask_Group_2-Clipped">
                <mask id="mask-2" fill="white">
                    <use xlink:href="#path-1"></use>
                </mask>
                <g id="Rectangle_22"></g>
                <g id="Mask_Group_2" mask="url(#mask-2)">
                    <g transform="translate(-57.797000, 4.000000)" id="Group_62">
                        <g transform="translate(0.000000, 0.135000)">
                            <g id="Group_34" transform="translate(146.039000, 83.248000)" fill-rule="nonzero">
                                <path d="M124.24,0.058 L108.969,104.919 L36.261,104.919 L52.844,6.019 C53.4242579,2.54445214 56.4333367,-6.42151392e-05 59.956,0.00499245415 L124.24,0.058 Z" id="Path_113" fill="#FFFFFF"></path>
                                <path d="M108.76,113.361 L5.651,113.361 C2.53003888,113.361 0,110.830961 0,107.71 L0,107.71 C0,104.589429 2.53042936,102.06 5.651,102.06 L98.951,102.06 C101.760628,102.05975 104.143188,99.9950352 104.543,97.214 L117.843,4.847 C118.056333,3.36310548 118.85056,2.0247913 120.05087,1.12662155 C121.25118,0.228451797 122.759196,-0.155958389 124.243,0.058 L124.243,0.058 C125.726766,0.271308639 127.06491,1.06561243 127.962761,2.26599799 C128.860612,3.46638354 129.24454,4.97441168 129.03,6.458 L114.354,108.515 C113.95408,111.296787 111.570387,113.361 108.76,113.361 L108.76,113.361 Z" id="Path_114" fill="#F8ECED"></path>
                            </g>
                            <g id="Group_35" transform="translate(50.858000, 141.719000)" stroke="#363039" stroke-width="1.016">
                                <line x1="29.228" y1="7.5" x2="0" y2="153.898" id="Line_3"></line>
                                <line x1="41.69" y1="0" x2="72.825" y2="155.953" id="Line_4"></line>
                            </g>
                            <g id="Group_57" transform="translate(110.414000, 0.000000)">
                                <g id="Group_46" transform="translate(8.608000, 47.250000)">
                                    <path d="M61.437,37.368 C61.437,37.368 38.992,121.736 9.228,52.368" id="Path_121" stroke="#FEA589" stroke-width="6.828" stroke-linecap="round" stroke-linejoin="round"></path>
                                    <g id="Group_42" transform="translate(77.044000, 0.000000)" fill-rule="nonzero">
                                        <path d="M7.259,30.21 L7.259,30.21 C11.2632477,30.1984658 14.5064658,26.9552477 14.518,22.951 L14.518,7.253 C14.5053682,3.2495334 11.2624699,0.00752859091 7.259,-0.004 L7.259,-0.004 C3.25553007,0.00752859091 0.0126317786,3.2495334 -1.13686838e-13,7.253 L-1.13686838e-13,22.953 C0.0126317786,26.9564666 3.25553007,30.1984714 7.259,30.21 Z" id="Path_122" fill="#FEA589"></path>
                                        <path d="M14.518,3.397 L0,3.397 L0,19.097 C0,19.097 4.6,20.664 14.518,13.643 L14.518,3.397 Z" id="Path_123" fill="#363039"></path>
                                    </g>
                                    <path d="M52.006,50.289 C50.773,30.956 63.942,23.013 82.779,23.013 L85.827,23.013 C104.663,23.013 118.768,31.68 117.535,51.013 C116.8,62.535 110.165,66.732 105.942,84.222 C103.234,95.432 109.142,109.822 109.378,116.996 C109.74,127.979 104.578,140.242 85.743,140.242 L82.695,140.242 C63.859,140.242 58.695,127.979 59.06,116.996 C59.296,109.821 65.203,95.432 62.496,84.222 C58.272,66.733 52.74,61.808 52.006,50.289 Z" id="Path_124" fill="#FEA589" fill-rule="nonzero"></path>
                                    <path d="M42.002,147.92 C30.578,159.483 26.218,176.698 27.455,192.902 C28.692,209.106 34.955,224.514 42.367,238.979 C50.7916667,236.697667 59.1006667,234.033333 67.294,230.986 C64.04,221.66 59.858,212.637 57.402,203.071 C54.946,193.505 54.32,183.082 58.135,173.971 C60.216,169.004 63.517,164.65 66.991,160.533 C71.362,155.357 76.132,150.405 81.891,146.841 C87.37,143.451 93.558,141.429 99.524,138.996 C102.751,137.68 106.1,136.096 108.004,133.171 L107.494,133.446 C89.1933333,129.09 70.9343333,124.565333 52.717,119.872 L55.587,120.772 C34.968,121.827 13.417,135.485 6.863,155.063 C5.274,159.811 3.352,163.356 2.613,168.309 C-0.947,192.209 -2.004,201.741 6.863,233.391 C10.0093797,233.429315 13.151232,233.140767 16.238,232.53 C19.163,231.846 21.95,230.582 24.924,230.154 C26.84,229.879 28.798,229.954 30.703,229.618 C30.8866436,229.604167 31.0604526,229.529576 31.197,229.406 C31.3420148,229.163032 31.3602784,228.86485 31.246,228.606 C29.7907398,223.077614 29.5773007,217.295633 30.621,211.675" id="Path_125" fill="#363039" fill-rule="nonzero"></path>
                                    <path d="M95.849,23.013 C101.238,24.492 106.872,26.1 110.338,30.482 C115.329,36.791 115.41,45.534 115.47,53.576 C115.584667,68.338 116.398,83.0713333 117.91,97.776 L117.878,97.476 C117.96842,105.504979 117.17735,113.51963 115.519,121.376 C114.548,125.976 112.712,133.651 108.407,135.538 C106.525,136.36 103.785,135.981 102.333,135.703 C98.055,134.887 93.243,134.653 88.996,133.689 C76.037,130.745 66.734,127.489 54.137,123.257 L51.925,122.465 C49.286,119.44 49.207,113.858 49.868,109.898 C50.529,105.938 51.888,102.06 51.831,98.048 C51.8498099,97.6297863 51.7774728,97.2124827 51.619,96.825 C50.91,95.342 48.724,95.806 47.167,96.34 C37.906,99.511 27.143,96.291 20.123,89.469 C13.103,82.647 8.123,71.13 6.793,61.999 C7.83916011,61.3578278 8.81370784,60.6065511 9.7,59.758 C10.90982,58.4147894 12.3471962,57.2956264 13.946,56.452 L16.602,54.004 C18.702,55.354 19.962,58.164 21.493,60.983 C22.839565,63.6576959 24.6276484,66.086095 26.782,68.166 C29.111,70.373 32.821,71.541 35.572,69.89 C36.971619,68.8957578 38.0963232,67.5629025 38.841,66.016 C42.2834299,60.0378481 44.9846656,53.6625423 46.885,47.031 C47.885,43.548 48.666,39.976 50.215,36.7 C54.6263952,27.7724253 63.9783371,22.3782883 73.915,23.03 L73.955,23.161 C73.244,25.061 74.316,27.269 75.948,28.479 C77.6680082,29.5770001 79.6190212,30.261566 81.648,30.479 C85.683,31.192 90.422,31.492 93.283,28.555 C94.5061501,27.256317 95.356046,25.6515339 95.743,23.91" id="Path_127" fill="#6F5E68" fill-rule="nonzero"></path>
                                    <g id="Group_43" transform="translate(7.981000, 23.462000)" stroke="#B4C7E0" stroke-width="1.064">
                                        <path d="M90.286,0.687 C89.639,3.826 87.521,7.144 84.62,8.51 C81.6555027,9.76852791 78.429844,10.2887512 75.22,10.026 C72.607324,10.0325119 70.0363237,9.37125991 67.751,8.105 C65.545,6.732 62.777,3.527 64.096,-0.001" id="Path_128"></path>
                                        <path d="M0,41.582 C4.22278171,39.5106824 7.99494425,36.6258276 11.1,33.093" id="Path_129"></path>
                                        <path d="M42.31,90.67 C45.382,93.652 49.483,95.297 53.517,96.729 C69.5582558,102.418159 86.2985988,105.899717 103.278,107.078" id="Path_130"></path>
                                        <path d="M101.403,31.677 C102.667,56.497 103.912,81.609 99.159,106.004" id="Path_131"></path>
                                    </g>
                                    <path d="M55.404,44.689 C52.997827,55.856381 52.0994941,67.2959166 52.733,78.702" id="Path_132" stroke="#363039" stroke-width="1.064"></path>
                                    <g id="Group_44" transform="translate(0.292000, 75.785000)">
                                        <polygon id="Path_133" fill="#FFFFFF" fill-rule="nonzero" points="5.565 10.363 84.421 10.363 84.421 5.848 56.236 2.396 5.565 5.848"></polygon>
                                        <rect id="Rectangle_19" fill="#F8ECED" fill-rule="nonzero" x="5.562" y="5.843" width="56.371" height="9.039"></rect>
                                        <rect id="Rectangle_20" fill="#F5DEBF" fill-rule="nonzero" x="32.616" y="5.843" width="51.802" height="9.039"></rect>
                                        <path d="M32.616,9.931 C32.616,9.931 2.541,10.067 0,9.222 C0,9.222 9.3,11.409 32.616,10.794 L32.616,9.931 Z" id="Path_134" fill="#FFFFFF" fill-rule="nonzero"></path>
                                        <path d="M6.501,1.284 C7.21746876,3.12838709 8.46907808,4.7164056 10.095,5.844 L13.654,5.844 L9.285,3.952 L6.501,1.284 Z" id="Path_135" fill="#F8ECED" fill-rule="nonzero"></path>
                                        <path d="M6.096,0 C6.096,0 7.11,5.843 14.915,5.843 C22.72,5.843 13.769,5.284 13.769,5.284 C13.769,5.284 8.093,4.713 6.096,0 Z" id="Path_136" fill="#FFFFFF" fill-rule="nonzero"></path>
                                        <line x1="33.669" y1="12.188" x2="75.412" y2="12.188" id="Line_9" stroke="#FFFFFF" stroke-width="0.266"></line>
                                        <line x1="37.326" y1="8.963" x2="48.647" y2="8.963" id="Line_10" stroke="#FFFFFF" stroke-width="0.266"></line>
                                        <line x1="53.678" y1="8.574" x2="58.517" y2="8.574" id="Line_11" stroke="#FFFFFF" stroke-width="0.266"></line>
                                    </g>
                                    <path d="M108.966,37.368 C108.966,37.368 167.832,101.968 88.379,83.833" id="Path_137" stroke="#FEA589" stroke-width="6.828" stroke-linecap="round" stroke-linejoin="round"></path>
                                    <path d="M105.584,31.086 C102.945,32.495 99.965,34.41 99.796,37.398 C99.8355102,38.934232 100.315552,40.4267694 101.179,41.698 C103.162885,45.1558811 105.619948,48.3197696 108.479,51.098 C110.364,52.93 113.352,57.656 115.037,59.675 C117.61353,62.6563834 119.144338,66.3985936 119.396,70.331 C119.59,72.719 119.482,74.291 117.61,75.787 C115.165,77.743 112.983,78.539 109.167,78.709 C104.067,78.936 98.611,78.409 93.559,79.154 C91.8954537,82.7180296 90.5129133,86.4065872 89.424,90.186 C93.455,92.601 98.393,92.803 103.091,92.83 C107.399667,92.8553333 111.707,92.7886667 116.013,92.63 C121.872,92.416 128.126,91.884 132.73,88.256 C137.037,84.856 139.125,79.177 139.089458,73.694 C139.053,68.211 137.116,62.894 134.568,58.037 C129.141,47.688 122.187,38.158 112.712,31.317 C111.858,30.699 108.27,27.939 107.269,27.608 C104.509,26.695 102.732,31.208 101.223,33.691" id="Path_138" fill="#6F5E68" fill-rule="nonzero"></path>
                                    <g id="Group_45" transform="translate(92.582000, 27.433000)" stroke="#B4C7E0" stroke-width="1.064">
                                        <path d="M4.359,51.456 C2.907,54.73 1.27,59.611 -1.13686838e-13,63.63" id="Path_139"></path>
                                        <path d="M1.003,60.516 C9.118,62.009 17.543,63.428 25.538,61.387 C33.533,59.346 41.006,52.873 41.491,44.637 C41.549714,41.0898552 40.7680777,37.5791739 39.21,34.392 C32.748,19.718 20.387,8.076 5.126,0" id="Path_140"></path>
                                    </g>
                                </g>
                                <g id="Group_47" transform="translate(84.072000, 124.206000)" stroke="#FEA589" stroke-width="1.064">
                                    <path d="M7.061,0 C7.181,1.388 8.471,2.389 9.772,2.89 C11.1182551,3.24891324 12.4324256,3.71885715 13.701,4.295" id="Path_141"></path>
                                    <path d="M0,7.704 C4.07731623,8.22448826 8.21899813,7.85535318 12.14,6.622" id="Path_142"></path>
                                    <path d="M2.732,9.149 C3.399,10.881 5.714,11.462 7.467,10.849 C9.16656315,10.0834413 10.6422605,8.89620536 11.754,7.4" id="Path_143"></path>
                                </g>
                                <g id="Group_51" transform="translate(68.548000, 5.751000)">
                                    <g id="Group_48">
                                        <path d="M0.015,41.912 C-0.134320475,44.8804633 2.13907029,47.4134845 5.10634561,47.5847978 C8.07362093,47.7561111 10.6234188,45.5015529 10.8167156,42.5356286 C11.0100123,39.5697042 8.77441058,37.0032695 5.81,36.788 C2.80179088,36.6229188 0.21949397,38.9062129 0.015,41.912 Z" id="Path_144" fill="#FEA589" fill-rule="nonzero"></path>
                                        <path d="M35.923,39.379 C35.7741881,42.3469515 38.047589,44.8791419 41.0143573,45.049925 C43.9811256,45.2207081 46.5300793,42.9661183 46.7228242,40.0006959 C46.9155691,37.0352734 44.6799141,34.4696962 41.716,34.255 C38.7085498,34.0910537 36.1274979,36.3740348 35.923,39.379 Z" id="Path_145" fill="#FEA589" fill-rule="nonzero"></path>
                                        <path d="M22.01,55.082 L27.099,54.617 C36.22,53.785 42.963,44.772 42.151,35.405 L40.434,15.582 C40.09771,11.1293938 38.0058488,6.9929083 34.618875,4.08306283 C31.2319011,1.17321737 26.8274409,-0.271471444 22.375,0.067 L17.288,0.532 C8.02499841,1.53571731 1.29023843,9.80007139 2.177,19.075 L3.894,38.899 C4.704,48.266 12.89,55.916 22.01,55.082 Z" id="Path_146" fill="#FEA589" fill-rule="nonzero"></path>
                                        <path d="M43.688,38.35 C41.9962586,39.324907 41.0429396,41.2095574 41.26,43.15" id="Path_147" stroke="#363039" stroke-width="0.549" stroke-linecap="round" stroke-linejoin="round"></path>
                                    </g>
                                    <g id="Group_50" transform="translate(8.433000, 22.716000)">
                                        <path d="M4.631,8.789 C4.76794232,9.71290569 4.13387231,10.5742585 3.211,10.718 C2.76520709,10.7515411 2.32445955,10.6058058 1.98653363,10.3131244 C1.64860771,10.020443 1.44144397,9.60501512 1.411,9.159 C1.27281727,8.23471295 1.90663336,7.37220493 2.83,7.228 C3.27609531,7.19501235 3.71694185,7.34118246 4.05495926,7.63415591 C4.39297667,7.92712935 4.60028607,8.34274238 4.631,8.789 L4.631,8.789 Z" id="Path_148" fill="#363039" fill-rule="nonzero"></path>
                                        <path d="M20.284,7.857 C20.4221827,8.78128705 19.7883666,9.64379507 18.865,9.788 C18.4191075,9.82126145 17.9783656,9.67529392 17.6404733,9.38245392 C17.302581,9.08961392 17.0954518,8.67409323 17.065,8.228 C16.9268173,7.30371295 17.5606334,6.44120493 18.484,6.297 C18.9298302,6.26401165 19.3704228,6.41007612 19.7082528,6.70286216 C20.0460884,6.9956482 20.2532867,7.41100729 20.284,7.857 L20.284,7.857 Z" id="Path_149" fill="#363039" fill-rule="nonzero"></path>
                                        <path d="M15.156,16.117 C14.287,18.366 13.404,18.291 12.568,18.525 C11.825,18.732 10.468,18.255 9.52,16.299" id="Path_150" stroke="#363039" stroke-width="0.408" stroke-linecap="round" stroke-linejoin="round"></path>
                                        <path d="M21.012,1.207 C20.2469847,1.02649188 19.4592183,0.961771659 18.675,1.015 C17.8772367,1.07703664 17.0913093,1.24518543 16.338,1.515" id="Path_153" stroke="#363039" stroke-width="0.925" stroke-linecap="round" stroke-linejoin="round"></path>
                                        <path d="M4.64,2.88 C3.87580274,2.72770004 3.09124085,2.7067333 2.32,2.818 C1.5168961,2.94285099 0.735699497,3.18158736 -1.13686838e-13,3.527" id="Path_154" stroke="#363039" stroke-width="0.925" stroke-linecap="round" stroke-linejoin="round"></path>
                                        <path d="M8.846,4.491 C7.876,10.284 8.531,13.349 10.634,12.85" id="Path_155" stroke="#363039" stroke-width="0.408" stroke-linecap="round" stroke-linejoin="round"></path>
                                    </g>
                                </g>
                                <g id="Group_53" transform="translate(64.476000, 0.000000)">
                                    <path d="M6.632,31.957 C1.87194686,27.5682968 -0.540866366,21.1925555 0.121,14.752 C0.321,12.919 0.931,9.421 2.768,9.252 C4.068,9.129 5.653,11.1 6.187,9.904 C6.345,9.552 6.758,9.274 6.716,8.891 C6.549,7.343 6.231,4.675 7.09,3.379 C8.278,1.59 10.836,-0.255 12.964,0.034 C15.092,0.323 17.281,3.588 19.109,4.715 C19.6129895,5.115719 20.2447281,5.3209719 20.888,5.293 C21.2783007,5.19315019 21.6377135,4.99798148 21.934,4.725 C22.8890461,3.80878947 23.9884129,3.05605767 25.188,2.497 C26.4405793,1.95313272 27.9029121,2.36819257 28.683,3.489 L29.955,4.502 C32.5986437,4.98747816 35.1663166,5.82106396 37.591,6.981 C40.7277645,8.32103007 43.3637486,10.6134791 45.126,13.534 C46.4502584,16.2631482 47.161547,19.2489219 47.21,22.282 C47.5970481,28.0561072 47.2847837,33.8558308 46.28,39.555 L45.34,40.642 C44.7105812,41.5961225 43.4597719,41.9167208 42.449,41.383 C41.4836165,40.8247155 40.76813,39.9185518 40.449,38.85 C39.307,35.711 40.033,32.216 39.549,28.912 C38.718,23.227 34.149,18.47 28.694,16.649 C23.239,14.828 17.121,15.695 11.961,18.218 C10.5103382,18.8440374 9.221384,19.7923711 8.192,20.991 C6.192,23.567 6.452,27.178 6.81,30.418" id="Path_156" fill="#F5DEBF" fill-rule="nonzero"></path>
                                    <g id="Group_52" transform="translate(3.897000, 2.286000)" stroke="#FFFFFF" stroke-width="1.064">
                                        <path d="M35.122,9.825 C38.613622,13.4635161 40.2766617,18.4835004 39.648,23.487" id="Path_157"></path>
                                        <line x1="39.898" y1="25.824" x2="39.898" y2="27.436" id="Path_158"></line>
                                        <path d="M5.449,0 C4.68357568,1.30264734 4.31678696,2.80109223 4.394,4.31 C4.49327038,5.83771798 5.37689028,7.20496369 6.729,7.923 C7.41448903,8.1894721 8.12756539,8.37864193 8.855,8.487 C11.0177384,8.95941388 13.0222107,9.98128144 14.675,11.454" id="Path_159"></path>
                                        <path d="M3.54,7.906 C4.184,8.472 4.511,9.357 5.22,9.839 C6.11435975,10.2601687 7.11557704,10.3996625 8.091,10.239 C9.08365786,10.0879293 10.0758242,10.5145841 10.649,11.339" id="Path_160"></path>
                                        <path d="M0,10.229 C0.480775881,11.9519846 2.11731601,13.0908487 3.9,12.943" id="Path_161"></path>
                                    </g>
                                </g>
                                <g id="Group_55" transform="translate(0.000000, 84.617000)">
                                    <path d="M6.998,3.881 C8.42382432,2.45867199 10.3397951,1.63575272 12.353,1.581 C12.8572362,1.54751073 13.3625152,1.62853315 13.831,1.818 C14.3117971,2.07268403 14.7283176,2.43346326 15.049,2.873 C17.0913046,5.41492376 18.0105485,8.67885343 17.595,11.913 C16.3652595,9.9847562 14.6378373,8.424203 12.595,7.396 C12.9695372,8.81360799 13.7535236,10.0894119 14.849,11.064 C14.147713,9.78112205 13.1668358,8.67242322 11.979,7.82 C12.7853368,10.2431364 14.1417564,12.4466767 15.942,14.258 C15.87,12.873 14.618,11.904 13.661,10.9 C12.6062339,9.69738115 11.7015965,8.37098265 10.967,6.95 C12.1194044,9.20104774 13.3846804,11.3925017 14.758,13.516" id="Path_162" stroke="#FEA589" stroke-width="1.064"></path>
                                    <path d="M4.65,5.659 C4.556,5.829 4.23,5.679 4.296,5.499" id="Path_163" stroke="#FEA589" stroke-width="1.064"></path>
                                    <path d="M6.657,8.789 C7.13998941,9.70256879 7.96401876,10.3886011 8.95,10.698 C10.3194025,11.273692 11.762805,11.6544028 13.238,11.829" id="Path_164" stroke="#FEA589" stroke-width="1.064"></path>
                                    <g id="Group_54" fill="#E64015" fill-rule="nonzero">
                                        <path d="M26.188,2.504 L2.897,10.004 L2.105,7.544 L25.396,0.044 C26.648,-0.359 27.442,2.101 26.188,2.504 Z" id="Path_165"></path>
                                        <path d="M0.147,9.688 L2.897,10.003 C2.91587058,9.91533737 2.91587058,9.82466263 2.897,9.737 L2.26,7.762 C2.22601203,7.67873358 2.17411844,7.60396582 2.108,7.543 L0.058,9.403 C0.0100645074,9.44585611 -0.00840439257,9.51277124 0.0107623521,9.5741479 C0.0299290968,9.63552455 0.0831950742,9.68003826 0.147,9.688 L0.147,9.688 Z" id="Path_166"></path>
                                    </g>
                                    <path d="M5.343,7.124 C7.25484022,6.18642469 9.32232936,5.6071888 11.443,5.415 C11.9813955,5.35219357 12.5257027,5.36026236 13.062,5.439 C14.2692072,5.75966103 15.3782164,6.37428847 16.29,7.228 C17.369892,7.99689247 18.3190238,8.93454426 19.101,10.005 C19.6394474,11.1290288 20.2752048,12.2037933 21.001,13.217" id="Path_167" stroke="#FEA589" stroke-width="1.064"></path>
                                </g>
                                <g id="Group_56" transform="translate(3.928000, 86.987000)" stroke="#363039" stroke-width="1.064">
                                    <line x1="94.675" y1="12.182" x2="94.339" y2="15.331" id="Path_168"></line>
                                    <path d="M98.867,8.305 C99.2256419,9.19832606 99.3176883,10.1764497 99.132,11.121" id="Path_169"></path>
                                    <line x1="97.059" y1="16.371" x2="97.059" y2="19.519" id="Path_170"></line>
                                    <line x1="106.5" y1="13.574" x2="106.5" y2="16.722" id="Path_171"></line>
                                    <path d="M105.27,38.764 C106.67,38.8093333 108.07,38.8426667 109.47,38.864 C113.229,38.926 117.211,38.842 120.41,36.864" id="Path_172"></path>
                                    <path d="M113.185,14.378 C116.027193,16.0305013 118.506954,18.2391923 120.476,20.872" id="Path_173"></path>
                                    <path d="M11.872,1.397 L9.717,0.571 C8.72566596,0.0559201841 7.58467384,-0.0938283936 6.494,0.148 C5.90766587,0.436135191 5.34521977,0.77052645 4.812,1.148 C3.91903642,1.53152511 2.99503056,1.83830041 2.05,2.065 C1.09070501,2.30698995 0.318926166,3.01780917 -0.001,3.954" id="Path_174"></path>
                                    <path d="M4.03,5.825 C5.16809359,5.4170317 6.36608831,5.2010885 7.575,5.186 C7.41047717,5.94687121 7.37129501,6.72950108 7.459,7.503 C7.55615304,8.28711308 8.02726981,8.97552499 8.723,9.35" id="Path_175"></path>
                                    <path d="M79.714,45.444 C80.739,46.556 82.43,46.661 83.943,46.688 C84.7456051,46.7404155 85.5515742,46.6767598 86.336,46.499" id="Path_176"></path>
                                    <line x1="87.725" y1="46.209" x2="88.753" y2="47.085" id="Path_177"></line>
                                </g>
                            </g>
                            <g id="Group_59" transform="translate(0.000000, 137.917000)">
                                <g id="Group_58" transform="translate(0.000000, 3.802000)" stroke="#363039" stroke-width="1.016">
                                    <line x1="162.988" y1="0" x2="194.123" y2="155.953" id="Line_13"></line>
                                </g>
                                <rect id="Rectangle_21" fill="#FFFFFF" fill-rule="nonzero" x="13.194" y="0" width="231.775" height="11.302"></rect>
                            </g>
                            <g id="Group_61" transform="translate(29.660000, 84.618000)" fill-rule="nonzero">
                                <g id="Group_60">
                                    <path d="M83.15,52.136 L82.808,52.436 C82.1957776,52.9864798 81.3949391,53.2798102 80.572,53.255 L13.432,50.773 L0.055,6.256 C-0.191,4.694 0.404,1.922 1.509,0.956 L1.809,0.691 C2.30040022,0.250987471 2.93541143,0.00530284128 3.595,1.42108547e-14 L71.459,1.42108547e-14 C72.9236356,0.0877707944 74.0814945,1.27464113 74.133,2.741 L84.502,48.541 C84.6469425,49.8859311 84.1452741,51.2198792 83.15,52.136 L83.15,52.136 Z" id="Path_178" fill="#6F5E68"></path>
                                    <path d="M78.531,53.303 L13.201,53.303 C11.5894172,53.20653 10.3154138,51.9004817 10.259,50.287 L0.059,6.259 C-0.0808638837,5.36855413 0.157118008,4.46013128 0.715599528,3.75263276 C1.27408105,3.04513425 2.10241537,2.60272075 3.001,2.532 L68.331,2.532 C69.9426937,2.62992109 71.2162077,3.93633341 71.273,5.55 L81.473,49.578 C81.6119394,50.4680857 81.3735545,51.3758011 80.8151975,52.0827623 C80.2568405,52.7897235 79.4290568,53.2319326 78.531,53.303 L78.531,53.303 Z" id="Path_179" fill="#565159"></path>
                                </g>
                                <circle id="Ellipse_6" fill="#FFFFFF" cx="38.247" cy="29.586" r="4.014"></circle>
                                <path d="M80.169,53.299 L126.995,53.299 C127.553317,53.3045574 128.010862,52.8572994 128.018,52.299 L128.018,50.486 C128.010862,49.9277006 127.553317,49.4804426 126.995,49.486 L81.381,49.486 C81.356,49.486 82.808,49.722 82.808,49.747 L80.169,53.299 Z" id="Path_180" fill="#6F5E68"></path>
                            </g>
                        </g>
                    </g>
                </g>
            </g>
        </g>
    </g>
</svg>