<?xml version="1.0" encoding="UTF-8"?>
<svg width="771px" height="374px" viewBox="0 0 771 374" version="1.1" xmlns="http://www.w3.org/2000/svg" xmlns:xlink="http://www.w3.org/1999/xlink">
    <title>1234</title>
    <defs>
        <linearGradient x1="50%" y1="94.4%" x2="50%" y2="10.2%" id="linearGradient-1">
            <stop stop-color="#1F3A65" offset="0%"></stop>
            <stop stop-color="#294A7A" offset="100%"></stop>
        </linearGradient>
        <linearGradient x1="50%" y1="104%" x2="50%" y2="16.6%" id="linearGradient-2">
            <stop stop-color="#1F3A65" offset="0%"></stop>
            <stop stop-color="#294A7A" offset="100%"></stop>
        </linearGradient>
        <linearGradient x1="50%" y1="103.1%" x2="50%" y2="25.3%" id="linearGradient-3">
            <stop stop-color="#1F3A65" offset="0%"></stop>
            <stop stop-color="#294A7A" offset="100%"></stop>
        </linearGradient>
        <linearGradient x1="70.3%" y1="95.9140126%" x2="33%" y2="-4.1984975%" id="linearGradient-4">
            <stop stop-color="#3855E1" offset="0%"></stop>
            <stop stop-color="#5C7EF7" offset="100%"></stop>
        </linearGradient>
        <linearGradient x1="50.8%" y1="86.7312101%" x2="49.1%" y2="14.3667337%" id="linearGradient-5">
            <stop stop-color="#3F2323" offset="0%"></stop>
            <stop stop-color="#5E3434" offset="100%"></stop>
        </linearGradient>
        <linearGradient x1="0%" y1="50%" x2="100%" y2="50%" id="linearGradient-6">
            <stop stop-color="#1F3A65" offset="0%"></stop>
            <stop stop-color="#294A7A" offset="100%"></stop>
        </linearGradient>
        <linearGradient x1="94.8839011%" y1="-44.8%" x2="22.2481237%" y2="84.6%" id="linearGradient-7">
            <stop stop-color="#E2E8F7" offset="0%"></stop>
            <stop stop-color="#FFFFFF" offset="100%"></stop>
        </linearGradient>
    </defs>
    <g id="Login-Signup-Flow" stroke="none" stroke-width="1" fill="none" fill-rule="evenodd">
        <g id="1234" fill-rule="nonzero">
            <path d="M683.902622,216.776002 C684.13582,236.808257 682.780021,256.827473 679.847963,276.645567 C679.654023,277.983226 679.44081,279.320885 679.208324,280.618811 C677.772449,289.287708 676.026994,297.370249 674.049052,304.833928 C673.69972,306.113393 673.350388,307.373594 673.001056,308.61453 C665.397666,335.176269 654.593672,353.129313 643.071741,359.759815 L159.055472,359.759815 C159.055472,359.759815 117.798165,324.009045 109.515384,272.940818 C109.302171,271.641688 109.108232,270.342557 108.952839,269.025366 C105.732963,243.60744 110.911507,214.661754 133.198885,184.551788 C143.36324,170.8453 156.728198,161.305902 172.071098,154.734397 C173.275691,154.229915 174.456192,153.744698 175.684877,153.279948 C198.437228,144.381086 225.167144,141.588978 252.012702,141.162758 C253.370278,141.14229 254.727854,141.123025 256.08543,141.123025 C272.069173,141.002624 288.007142,141.666035 303.123578,142.268042 C304.559453,142.345099 305.97485,142.402892 307.391451,142.461888 C331.792889,143.488912 353.788756,144.245032 369.753226,141.318075 L369.772499,141.318075 C371.246921,141.045968 372.643044,140.735333 374.00062,140.387373 L374.019894,140.387373 C391.691272,136.063761 400.400478,126.04035 394.136595,104.481286 C381.993094,62.6610855 394.426902,32.0093129 421.480854,15.0832929 C422.858908,14.2115872 424.293578,13.3772059 425.748727,12.5825571 C441.053079,4.28449689 460.391614,-0.0595833777 482.271839,-0.00119742493 C483.804082,-0.00119742493 485.355597,0.0391457193 486.927591,0.0776741474 C507.362638,0.909186703 527.569996,4.6899831 546.92234,11.3026909 C557.889777,14.9279198 568.504934,19.5418084 578.636862,25.08744 C579.841455,25.7472394 581.046048,26.4250989 582.206071,27.1234267 C600.700847,37.8369452 617.19414,51.678764 630.951127,68.0321892 C631.8618,69.0784768 632.73513,70.1452327 633.608459,71.2312527 C668.385056,114.078477 683.55329,169.392055 683.902622,216.776002 Z" id="Path_1" fill-opacity="0.575202142" fill="#374254"></path>
            <path d="M674.049052,304.835132 C673.69972,306.114597 673.350388,307.374798 673.001056,308.615734 C665.295686,305.855935 657.812641,302.511477 650.617311,298.611587 C615.120368,279.340149 569.925246,236.415868 556.23023,141.260283 C550.327725,100.235935 557.860044,61.1693129 578.635658,25.088644 C579.840251,25.7484434 581.044844,26.4263029 582.204866,27.1246307 C563.970944,58.7648982 553.729495,96.5962026 560.072881,140.698009 C573.534207,234.166771 617.642785,276.257875 652.285672,295.101888 C659.274585,298.909623 666.551326,302.164003 674.049052,304.835132 L674.049052,304.835132 Z" id="Path_2" fill="#1E222D"></path>
            <path d="M679.847963,276.645567 C679.654023,277.983226 679.44081,279.320885 679.208324,280.618811 C656.784827,270.090918 628.523873,247.194196 615.33358,197.484096 C602.590192,149.344029 607.671165,106.613594 630.948718,68.0321892 C631.859391,69.0784768 632.73272,70.1452327 633.60605,71.2312527 C611.47286,108.611052 606.762902,149.9653 619.096729,196.495601 C631.705203,244.054129 658.414641,266.272992 679.847963,276.645567 Z" id="Path_3" fill="#1E222D"></path>
            <path d="M468.207013,81.2546641 C470.088587,144.420818 462.891144,185.232055 444.871639,213.615467 C425.998077,243.354597 394.519656,261.329313 342.7848,271.889714 C333.404846,273.838801 323.851361,274.832376 314.270881,274.855199 C285.155871,274.855199 257.728495,265.374798 233.695662,246.840216 C205.749107,225.261888 184.349514,192.767975 172.071098,154.733193 C173.275691,154.228711 174.456192,153.743494 175.684877,153.278744 C187.711532,190.677808 208.679881,222.629915 236.087983,243.780818 C266.889424,267.569714 303.530731,275.964096 342.015065,268.112724 C438.224695,248.43433 467.940798,203.046637 464.333042,81.3702494 C463.305524,46.8210855 469.338125,19.5622226 482.275453,0.000617291191 C483.807695,0.000617291191 485.359211,0.0391457193 486.931205,0.0776741474 C473.462651,19.0782093 467.17829,46.2985437 468.207013,81.2546641 Z" id="Path_4" fill="#1E222D"></path>
            <path d="M348.157284,211.967172 C344.079632,212.63933 339.95378,212.976137 335.821048,212.976137 C304.80519,212.976137 269.288973,194.193527 252.006679,141.163962 C253.364255,141.143494 254.721831,141.124229 256.079407,141.124229 C275.127635,198.047574 315.958516,213.3253 347.517645,208.148042 C390.153006,201.164764 431.158553,157.294129 423.225104,89.7273063 C419.810084,60.7430922 419.655896,36.0042293 421.478445,15.0844969 C422.856499,14.2127912 424.291169,13.3784099 425.746317,12.5837611 C423.632257,33.8947979 423.553958,59.288644 427.08462,89.2794133 C435.289102,159.232591 392.5381,204.69734 348.157284,211.967172 Z" id="Path_5" fill="#1E222D"></path>
            <path d="M373.994597,140.388577 C372.595572,147.464422 369.662708,154.148037 365.402236,159.969447 C359.446729,167.763025 351.086854,172.378009 340.553894,173.677139 C339.318689,173.830689 338.075218,173.908294 336.830497,173.909514 C330.268569,173.909514 323.92883,171.533311 318.984453,167.221219 C311.962881,161.321554 306.842157,152.171052 303.117555,142.269246 C304.55343,142.346303 305.968827,142.404096 307.385428,142.463092 C310.837791,151.225902 315.415244,159.155534 321.486393,164.255734 C326.583407,168.709282 333.357101,170.744275 340.066034,169.83754 C349.531725,168.674463 356.998996,164.565166 362.31366,157.643293 C365.883177,152.768276 368.412143,147.211982 369.743589,141.319279 L369.762862,141.319279 C371.240898,141.047172 372.637021,140.736537 373.994597,140.388577 Z" id="Path_6" fill="#1E222D"></path>
            <path d="M223.375915,359.759815 L219.147793,359.759815 C201.748654,319.937072 176.667825,293.394597 144.507603,280.812657 C133.294751,276.481514 121.503518,273.828962 109.515384,272.940818 C109.302171,271.641688 109.108232,270.342557 108.952839,269.025366 C121.618062,269.879044 134.082032,272.637154 145.924205,277.206637 C179.499823,290.352055 205.531075,318.076871 223.375915,359.759815 Z" id="Path_7" fill="#1E222D"></path>
            <g id="Group_5" transform="translate(103.040671, 124.886824)">
                <g id="Group_3" transform="translate(0.000000, 74.613793)">
                    <g id="Group_2">
                        <path d="M36.7875591,40.0616552 L24.7996322,52.4066276 L19.7958291,45.0655931 L18.1274932,42.6045414 C12.7936366,43.9415724 4.91812753,33.5161 1.75611906,27.9537621 C-1.38541163,22.3733724 11.2216667,13.7687172 11.2216667,13.7687172 C9.16666233,7.60585862 0.903280208,3.73075517 0.6707973,2.02546897 C0.437109818,0.340641379 2.49331875,-1.48258276 10.000228,2.02546897 C17.5264104,5.55277586 24.0624325,18.0132793 24.0624325,18.0132793 C25.4007149,14.3884931 19.4657756,4.584 20.5523019,3.47923448 C21.6364191,2.39613103 27.4569239,3.73075517 31.9379416,13.1681966 C36.4382325,22.6248931 33.7616676,33.7676207 33.7616676,33.7676207 L33.8194872,33.8651 L36.7875591,40.0616552 Z" id="Path_9" fill="#98B2D8"></path>
                        <path d="M10.7783832,12.6795966 C10.7783832,12.6795966 19.6850082,22.8583621 18.7285759,26.8550138 C17.7721436,30.8516655 13.2826939,26.2147793 13.2826939,26.2147793 C13.2826939,26.2147793 17.4047484,30.9732138 16.0712842,32.5485276 C14.7378201,34.1238414 9.76774508,30.1259862 9.76774508,30.1259862 C9.76774508,30.1259862 15.7075027,37.5139552 9.76774508,36.423631 C3.82798747,35.3333069 -3.63435251,24.1412379 2.09701369,23.0148103 C2.09701369,23.0148103 1.40317869,14.8650586 6.61537321,17.6510414 C6.61055491,17.6534483 4.27729381,10.8575759 10.7783832,12.6795966 Z" id="Path_10" fill="#B1C3E8"></path>
                    </g>
                    <path d="M119.003393,160.093586 C119.003393,160.093586 129.031477,130.831741 123.756644,101.976662 C123.737751,101.913362 123.72445,101.848529 123.716894,101.782907 C123.710447,101.704559 123.697555,101.626875 123.678347,101.550641 C123.523359,100.794876 123.36837,100.03911 123.213381,99.2833448 C118.839416,102.976297 114.210416,106.356731 109.360773,109.399531 C99.7241756,115.46491 86.8605229,121.490576 76.987829,118.666083 C58.8710262,113.491255 32.3752022,78.3000207 20.0776995,50.5111966 C24.6177597,44.4639507 31.1415154,40.2040452 38.5076917,38.4767138 C38.5076917,38.4767138 63.0810146,71.1876414 84.7489035,78.9390517 C93.0507398,68.4361079 99.9978018,56.9319764 105.426632,44.6973379 C111.20859,31.7133345 119.881528,23.4973931 130.816657,19.078331 C137.415869,16.4953597 144.425691,15.1172067 151.512454,15.0094724 L170.502573,6.15329655 C173.137533,6.22097555 175.766724,6.43431219 178.378082,6.79232759 C187.281093,7.95485862 202.080498,11.2113897 214.047947,20.3190862 C232.477939,34.3488862 258.990627,160.097197 258.990627,160.097197 L119.003393,160.093586 Z" id="Path_11" fill="#B7CAE5"></path>
                    <path d="M123.721712,101.782907 C123.567526,100.950121 123.392863,100.116131 123.2182,99.2833448 C118.844234,102.976297 114.215234,106.356731 109.365591,109.399531 L114.971682,61.495069 C120.671729,83.4315241 123.407318,99.8261 123.721712,101.782907 Z" id="Path_12" fill="#97B3D1"></path>
                    <path d="M178.378082,6.78871724 C175.448557,25.3928241 156.807764,42.5816759 143.346642,42.3494103 C132.523539,42.1544517 130.932296,26.651631 130.819066,19.0747207 C137.418278,16.4917494 144.4281,15.1135963 151.514863,15.0058621 L170.504982,6.14968621 C173.139138,6.21745388 175.767522,6.43079033 178.378082,6.78871724 L178.378082,6.78871724 Z" id="Path_13" fill="#CED9EA"></path>
                    <path d="M146.154506,141.080307 C146.154506,141.080307 188.916906,96.6189103 190.777974,49.8673517 L203.386256,89.2706552 L198.537843,130.296207 L146.154506,141.080307 Z" id="Path_14" fill="#97B3D1"></path>
                    <path d="M144.912589,160.083959 L97.0271329,160.083959 C97.3743731,155.85615 100.410267,152.334112 104.543679,151.363772 C111.938563,149.183124 116.666518,139.979152 138.851169,141.189821 L144.912589,160.083959 Z" id="Path_15" fill="#98B2D8"></path>
                    <path d="M193.905049,116.115976 C193.905049,116.115976 171.345775,129.078317 135.82046,138.283493 C135.82046,138.283493 130.89134,150.1519 139.538982,160.083959 L208.268398,160.083959 L193.905049,116.115976 Z" id="Path_16" fill="#B6C5DD"></path>
                </g>
                <g id="Group_4" transform="translate(100.112049, 0.000000)">
                    <path d="M9.7895782,54.850831 C9.7895782,54.850831 -0.421601128,40.7704862 0.83356566,31.2861103 C2.08873245,21.8017345 10.8749,24.0317241 10.8749,24.0317241 C10.8749,24.0317241 10.4653446,0.991706897 31.8140212,6.88258621 C31.8140212,6.88258621 31.344237,-0.152772414 36.0047364,0.0301517241 C40.6652357,0.213075862 47.9770038,10.9237655 47.9770038,10.9237655 C47.9770038,10.9237655 49.7910933,2.98822759 52.9482834,4.86199655 C56.1054736,6.73576552 57.0787699,14.925231 63.6689978,18.8677276 C70.2592258,22.8102241 74.3415293,27.9128448 69.1642674,43.8994517 C63.9870056,59.8860586 67.8717588,61.0173 66.0227367,69.2248172 C64.2664669,77.0207552 62.864342,81.7623414 58.0207473,82.2003966 C53.1771526,82.6384517 34.6399533,63.0992655 34.6399533,63.0992655 L9.7895782,54.850831 Z" id="Path_17" fill="#5D7CA0"></path>
                    <path d="M70.3905244,80.7634793 C70.3905244,80.7634793 58.500168,109.578845 46.0087289,107.409028 C39.8015557,106.325924 38.4199086,102.54469 38.3657027,98.1653414 C38.3078831,92.4489621 40.5339371,85.7433483 37.161128,82.9332966 L52.1351955,61.6755862 L55.4333209,56.9821379 C58.9281812,65.7529555 63.9970857,73.8123062 70.3905244,80.7634793 L70.3905244,80.7634793 Z" id="Path_18" fill="#98B2D8"></path>
                    <path d="M38.3657027,98.1641379 C38.3078831,92.4477586 40.5339371,85.7421448 37.161128,82.9320931 L52.1351955,61.6743828 C53.4156584,63.1666586 54.3275214,65.8214655 54.6961213,69.9878034 C56.676442,91.9447172 45.0583195,97.0413207 38.3657027,98.1641379 Z" id="Path_19" fill="#799CBF"></path>
                    <path d="M8.33445202,43.647931 C8.33445202,43.647931 12.3830274,80.7670897 27.543804,89.122631 C40.7194416,96.3842379 56.7222158,74.4213069 56.4005944,63.5577793 C56.4005944,63.5577793 62.1440063,59.1760241 61.1851649,52.0829 C60.2263235,44.9897759 52.7206188,47.3425172 51.8208016,58.772869 C51.8208016,58.772869 45.7172218,58.3384241 44.5933536,44.0522897 C40.7616017,47.2221724 36.6262969,46.2449724 32.2826007,42.3891241 C32.2826007,42.3891241 30.1264121,50.3403069 19.0322795,41.0484822 C19.0322795,41.0472793 14.845178,46.7239448 8.33445202,43.647931 Z" id="Path_20" fill="#98B2D8"></path>
                </g>
            </g>
            <g id="Group_11" transform="translate(421.180732, 70.802204)">
                <g id="Group_6" transform="translate(21.682344, 231.194965)">
                    <path d="M126.228582,10.3496552 C126.228582,10.3496552 145.798102,42.9703241 152.576244,58.795669 L83.5721848,58.795669 C80.8218894,46.0981 77.1995961,33.6048316 72.731013,21.404531 L126.228582,10.3496552 Z" id="Path_21" fill="#5D7CA0"></path>
                    <path d="M99.3159755,17.6184828 C95.539634,30.1211069 89.7817672,40.7944897 81.2389237,48.9009172 L83.5721848,58.7980759 L0.0674561806,57.7655172 L9.36315878,0.658286207 L99.3159755,17.6184828 Z" id="Path_22" fill="#799CBF"></path>
                </g>
                <g id="Group_7" transform="translate(250.346953, 33.829448)">
                    <path d="M1.65006424,36.9591 C1.65006424,36.9591 4.41335849,19.6631414 9.90983263,13.5267586 C15.4063068,7.39037586 30.4369893,-1.68723448 32.2161461,1.54282069 C33.9953028,4.77287586 18.9658249,14.9010966 18.9658249,14.9010966 C18.9658249,14.9010966 25.7548076,13.286069 31.5741078,23.2987586 C37.3934079,33.3114483 18.6429989,41.0616552 18.6429989,41.0616552 L14.9244769,49.4593172 L0.0540028212,40.0928793 L1.65006424,36.9591 Z" id="Path_23" fill="#799CBF"></path>
                    <path d="M20.8750757,15.227231 C20.8750757,15.227231 12.4948498,23.7392207 13.7199023,26.1713897 C14.9449547,28.6035586 19.5644985,24.7814069 19.5644985,24.7814069 C19.5644985,24.7814069 15.7941798,30.5158379 18.7152733,31.992469 C21.6363669,33.4691 26.1619538,28.5169103 26.1619538,28.5169103 C26.1619538,28.5169103 22.3916352,33.7302483 24.5598696,34.6857862 C26.7281039,35.6413241 38.3209304,27.4759276 36.2442437,25.5636483 C34.167557,23.651369 33.0400751,25.2158517 33.0400751,25.2158517 C33.0400751,25.2158517 35.4660885,21.1337552 33.0400751,19.8304207 C32.3728157,19.4227546 31.5651866,19.3128337 30.8130915,19.5273211 C30.0609965,19.7418084 29.4331486,20.2611081 29.0818428,20.9592552 C29.0818428,20.9592552 31.060959,17.8302897 29.4588747,16.6160103 C27.8567904,15.401731 24.4635036,16.9638069 24.4635036,16.9638069 C24.4635036,16.9638069 25.5777351,11.7528759 20.8750757,15.227231 Z" id="Path_24" fill="#98B2D8"></path>
                    <path d="M13.0935234,15.0202379 C10.5470526,14.298169 5.37460906,19.5825103 5.37460906,19.5825103 C3.34008247,22.1976034 2.92450422,27.4049241 2.84500229,29.8118207 C2.58481417,36.5222483 0.0431616493,40.0928793 0.0431616493,40.0928793 L7.58982185,44.8465 C13.4344181,37.3249483 11.5215535,27.6925483 10.5783716,24.2843828 C13.4283952,20.0313966 14.6161058,15.4546828 13.0935234,15.0202379 Z" id="Path_25" fill="#98B2D8"></path>
                </g>
                <g id="Group_8" transform="translate(0.000000, 69.932896)">
                    <path d="M268.327436,15.1309552 C268.327436,15.1309552 243.11087,82.2195862 203.03949,88.1694345 C189.511642,90.3326702 175.801743,91.1441907 162.112861,90.5919759 C150.823588,90.0107103 145.276521,88.3054241 144.868171,88.1850793 C144.863059,88.1850793 144.858157,88.1830506 144.854542,88.1794396 C144.850928,88.1758286 144.848897,88.1709309 144.848897,88.1658241 C144.848897,88.1658241 133.851131,108.624445 140.970167,138.027093 C148.068725,167.405672 150.668198,173.548072 150.668198,173.548072 C150.668198,173.548072 96.6478427,213.23539 52.714596,177.094634 L13.0672258,115.509372 L0.650470313,96.2108759 C0.650470313,96.2108759 12.0565877,58.7908552 44.2163218,34.4739793 L44.235595,34.4535207 C57.5880988,24.24865 73.3343868,17.6307867 89.9732945,15.2308414 C100.334997,13.7275411 110.852482,13.6295771 121.240439,14.9396069 C121.240439,14.9396069 129.969991,17.4006586 144.168313,22.5947414 C151.810134,25.3843345 161.043199,28.9730172 171.342312,33.388469 C200.767662,45.9849621 208.856381,49.743331 208.856381,49.743331 C208.856381,49.743331 240.201822,18.8544241 248.290541,0.115523065 C248.290541,0.113124138 264.447501,1.74018621 268.327436,15.1309552 Z" id="Path_26" fill="#B7CAE5"></path>
                    <path d="M66.0215321,45.7623241 C65.8769832,60.7982069 62.6595643,75.3671517 61.2441891,86.6795655 L86.1620203,81.6395241 L124.933665,119.936859 C124.933665,119.936859 129.84592,131.159014 119.845541,133.096566 C112.009783,134.615317 75.3967367,139.703497 75.3967367,139.703497 C66.9574866,151.178376 63.1438033,168.733076 58.9350195,185.766683 L21.7558228,121.226955 L66.0215321,45.7623241 Z" id="Path_27" fill="#97B3D1"></path>
                    <path d="M121.240439,49.372669 C103.881313,44.9740655 94.7397964,29.3737655 89.9732945,15.2284345 C100.334997,13.7251342 110.852482,13.6271702 121.240439,14.9372 C121.240439,14.9372 129.969991,17.3982517 144.168313,22.5923345 C145.836649,34.9746138 145.234361,55.4392517 121.240439,49.372669 Z" id="Path_28" fill="#CED9EA"></path>
                    <path d="M166.823953,63.0931828 C164.577621,72.1310806 163.002173,81.3223216 162.110452,90.5919759 C150.821179,90.0107103 145.274112,88.3054241 144.865761,88.1850793 C144.855117,88.1850793 144.846488,88.1764585 144.846488,88.1658241 C144.846488,88.1658241 154.699909,71.3295828 166.823953,63.0931828 Z" id="Path_29" fill="#97B3D1"></path>
                </g>
                <g id="Group_9" transform="translate(0.000000, 101.222551)">
                    <path d="M74.4562301,27.3108125 L119.025505,27.3172675 C120.100049,27.3179293 120.971103,28.1889832 120.971765,29.2635267 L120.980744,96.6191292 C120.981406,97.6938752 120.110268,98.5653885 119.035522,98.5653885 C119.035349,98.5653885 119.035177,98.5653885 119.035004,98.5653885 L74.4657286,98.5589335 C73.3911851,98.5582717 72.5201311,97.6872178 72.5194692,96.6126743 L72.5104888,29.2570718 C72.5098277,28.1823258 73.3809654,27.3108125 74.4557116,27.3108125 C74.4558844,27.3108125 74.4560573,27.3108125 74.4562301,27.3108125 Z" id="Rectangle_2" fill="#F2F4F9" transform="translate(96.745617, 62.938100) rotate(-8.275893) translate(-96.745617, -62.938100) "></path>
                    <path d="M91.9837296,53.1202069 L98.6088902,50.5364034 C98.6088902,50.5364034 104.912429,33.096031 112.753006,44.0762931 C112.753006,44.0762931 118.173592,40.8474414 118.006156,39.0711517 C117.83872,37.2948621 117.765241,34.7110586 117.765241,34.7110586 C117.765241,34.7110586 128.737711,37.0794448 126.282788,52.3668483 C123.827865,67.6542517 114.451456,65.7167 105.238869,65.8779621 L93.7616818,70.3993172 L91.9837296,53.1202069 Z" id="Path_30" fill="#98B2D8"></path>
                    <path d="M96.2575605,74.4368862 C96.2575605,74.4368862 44.623468,108.582324 22.3171546,92.1107276 C19.0582208,89.693452 15.9670242,87.0582798 13.0648167,84.2233276 L0.650470313,64.9212207 C0.650470313,64.9212207 12.0565877,27.5012 44.2163218,3.18432414 L44.235595,3.16386552 C54.8960807,-1.61984138 66.0383962,0.121548276 66.6069554,9.98741724 C67.9705339,33.4907621 47.8505235,47.941769 45.3606677,58.6067276 L91.6416304,49.2475103 C91.6416304,49.2475103 99.1678129,57.2287793 96.2575605,74.4368862 Z" id="Path_31" fill="#C1CFE5"></path>
                </g>
                <g id="Group_10" transform="translate(91.547674, 0.000000)">
                    <path d="M65.4084036,49.113241 C65.4084036,49.113241 72.7864234,33.3637134 69.7689639,24.2873065 C66.7515044,15.2108996 58.5411236,19.0474927 58.5411236,19.0474927 C58.5411236,19.0474927 54.6069827,-3.65796594 34.748365,6.13810303 C34.748365,6.13810303 33.8858896,-0.859948699 29.342234,0.195475439 C24.7985784,1.25089958 19.6345668,13.1433754 19.6345668,13.1433754 C19.6345668,13.1433754 16.3593284,5.69042027 13.6116936,8.12258923 C10.8640588,10.5547582 11.4494821,18.7839375 5.71450215,23.8937789 C-0.0204777691,29.0036203 -3.06564249,34.7825789 5.0278946,49.5103789 C13.1214317,64.2381789 9.51975348,66.0806582 12.8805168,73.7947616 C16.0726396,81.1201513 18.3420582,85.513941 23.1820392,85.0349685 C28.0220201,84.5559961 42.550395,61.8818272 42.550395,61.8818272 L65.4084036,49.113241 Z" id="Path_32" fill="#5D7CA0"></path>
                    <path d="M10.7628745,85.9387582 C10.7628745,85.9387582 22.1774239,114.045293 40.1195634,109.443306 C46.2219386,107.878824 46.2628941,101.327251 45.4907618,97.0152961 C44.4716916,91.3891754 41.0193807,85.221503 43.8043572,81.8289823 L25.0961083,63.7628168 L20.9740539,59.7757927 C19.1924615,69.0449728 15.7320027,77.9113203 10.7628745,85.9387582 L10.7628745,85.9387582 Z" id="Path_33" fill="#98B2D8"></path>
                    <path d="M45.4907618,97.0213134 C44.4716916,91.3951927 41.0193807,85.2275203 43.8043572,81.8349996 L25.0961083,63.7688341 C24.1191983,65.4753237 23.7228932,68.2540858 24.1456989,72.4156099 C26.3356156,94.3508616 38.7065973,97.1741513 45.4907618,97.0213134 Z" id="Path_34" fill="#799CBF"></path>
                    <path d="M64.7254098,37.8333203 C64.7254098,37.8333203 67.7368464,75.0511616 54.4178645,86.1048341 C42.8431067,95.7119616 22.992921,77.1475685 21.2643563,66.4164203 C21.2643563,66.4164203 14.7994042,63.1923823 14.4055083,56.0463065 C14.0116124,48.9002306 21.8268927,49.8004099 24.8612163,60.8600996 C24.8612163,60.8600996 30.7744732,59.2859892 29.197685,45.0431789 C33.5582453,47.4356341 37.4357711,45.7002616 40.9772205,41.097072 C40.9772205,41.097072 44.5909445,48.5006858 53.7360753,37.2905624 C53.7324615,37.2881582 58.910928,42.0778823 64.7254098,37.8333203 Z" id="Path_35" fill="#98B2D8"></path>
                </g>
            </g>
            <g id="Group_17" transform="translate(279.040923, 129.904066)">
                <g id="Group_12" transform="translate(0.000000, 91.329173)">
                    <path d="M203.693574,117.780796 L203.693574,117.800051 C203.172288,119.980321 202.370178,122.083841 201.307311,124.057982 C191.93813,141.169813 151.360828,138.359762 151.360828,138.359762 L58.7410829,138.359762 C20.4127221,138.359762 5.05078152,137.410241 1.38405628,125.453982 C1.17051672,124.787747 1.00229591,124.107854 0.880544071,123.418951 C-1.71892803,109.523938 11.2182037,64.3139961 35.1350335,33.3083547 C47.3747165,17.4565341 60.0203412,9.10460303 71.2903417,4.74330647 C79.8922067,1.48505624 89.0348982,-0.112510037 98.2330629,0.0354168183 C109.987302,0.0354168183 119.472123,0.90671337 127.522296,2.78649958 C149.129956,7.84098234 160.438503,20.052372 177.391686,41.6987961 C198.129643,68.1517927 208.332391,99.216403 203.693574,117.780796 Z" id="Path_36" fill="url(#linearGradient-1)"></path>
                    <path d="M40.8013526,106.802941 C50.8523235,91.0100892 54.0119229,69.1025168 56.8041269,46.8712168 L65.5336794,92.0883789 L141.180968,92.0883789 L155.081759,46.8712168 C154.754115,68.004972 157.655935,88.7307582 167.690042,108.559975 C167.690042,108.556365 118.225388,164.4782 40.8013526,106.802941 Z" id="Path_37" fill="#1F395E" opacity="0.22" style="mix-blend-mode: multiply;"></path>
                    <path d="M63.767773,138.360965 L58.7446967,138.360965 C20.4163358,138.360965 5.05439524,137.411444 1.38767,125.455186 C-0.609514774,116.056255 1.93093317,106.172334 13.3948701,103.227496 C31.3562828,98.6158823 62.623427,116.792765 62.623427,116.792765 L63.767773,138.360965 Z" id="Path_38" fill="url(#linearGradient-2)"></path>
                    <path d="M203.693574,117.780796 C203.693574,117.780796 203.712847,117.780796 203.693574,117.800051 C203.172288,119.980321 202.370178,122.083841 201.307311,124.057982 C191.93813,141.169813 151.360828,138.359762 151.360828,138.359762 L123.878457,138.359762 L127.371724,115.105531 C127.371724,115.105531 176.096768,92.5673513 193.553464,99.6027099 C202.086671,103.033741 204.705416,110.165375 203.693574,117.780796 Z" id="Path_39" fill="url(#linearGradient-3)"></path>
                    <path d="M127.525909,2.78770303 C126.710412,13.6596547 122.210121,33.464803 100.292886,33.464803 C77.1903483,33.464803 72.3021844,13.9496858 71.2939554,4.74450992 C79.8958204,1.48625969 89.0385119,-0.111306589 98.2366767,0.0366202666 C109.990916,0.0366202666 119.475737,0.907916818 127.525909,2.78770303 Z" id="Path_40" fill="#1F395E"></path>
                </g>
                <g id="Group_13" transform="translate(48.182986, 157.448276)">
                    <path d="M99.3015207,72.2322345 L10.5617106,72.2322345 C9.53268783,72.2322345 8.54581119,71.823839 7.81818224,71.0968905 C7.09055329,70.3699419 6.6817756,69.3839881 6.6817756,68.3559276 L6.6817756,68.3559276 C6.6817756,66.2155724 8.41935198,64.4808241 10.5617106,64.4808241 L99.3015207,64.4808241 C101.443879,64.4808241 103.181456,66.2155724 103.181456,68.3559276 L103.181456,68.3559276 C103.181456,70.4967528 101.44435,72.2322345 99.3015207,72.2322345 Z" id="Path_41" fill="#FFFFFF"></path>
                    <path d="M110.047531,5.57925172 L109.717478,7.59502759 L109.717478,7.61428276 L100.524164,64.4904517 L10.076267,64.4904517 L0.979319193,5.54074138 C0.769448234,4.16564218 1.16922094,2.76739074 2.07441869,1.71050381 C2.97961644,0.653616881 4.3005357,0.0428301231 5.69281981,0.0373724138 L105.334031,0.0373724138 C106.735318,0.0373724138 108.065764,0.652835237 108.973138,1.71967576 C109.880511,2.78651627 110.273306,4.19756543 110.047531,5.57925172 L110.047531,5.57925172 Z" id="Path_42" fill="url(#linearGradient-4)"></path>
                    <path d="M109.717478,7.61428276 L100.524164,64.4904517 L10.5617106,64.4904517 L41.0531087,61.3121448 C72.3589825,58.0601771 99.0399487,37.1947578 109.717478,7.61428276 L109.717478,7.61428276 Z" id="Path_43" fill="#3150BC"></path>
                </g>
                <g id="Group_16" transform="translate(56.615009, 0.000000)">
                    <g id="Group_14" transform="translate(24.091493, 84.241379)">
                        <path d="M19.217784,32.3161966 L18.6154967,32.3161966 C15.6139693,32.3520118 12.6389997,31.7510933 9.88714875,30.5531448 C4.20468242,27.8753099 0.659857946,22.078435 0.868498325,15.8048862 C0.887771519,15.1658552 0.887771519,14.5460793 0.887771519,13.9263034 C0.907044714,8.75147586 0.576991259,4.44914828 0.576991259,4.44914828 L0.576991259,2.12408621 L33.1631448,0.67032069 C33.2636428,4.76212929 33.6983319,8.8389121 34.4628808,12.8600483 C34.482154,12.9178138 34.482154,12.9563241 34.5014272,13.0152931 C35.4325511,17.6619235 34.2729066,22.4826065 31.3299933,26.1990558 C28.38708,29.9155051 23.9582138,32.1522563 19.217784,32.3161966 Z" id="Path_44" fill="#FEB19E"></path>
                        <path d="M34.4628808,12.8600483 C20.8849153,28.7888897 6.93955457,19.4874379 0.887771519,13.9263034 C0.907044714,8.75147586 0.576991259,4.44914828 0.576991259,4.44914828 L0.576991259,2.12408621 L33.1631448,0.67032069 C33.2636428,4.76212929 33.6983319,8.8389121 34.4628808,12.8600483 Z" id="Path_45" fill="#FF856A"></path>
                    </g>
                    <g id="Group_15">
                        <path d="M14.6958108,70.5401207 C14.6958108,70.5401207 24.799783,98.9956552 41.6505778,98.9956552 C58.5013726,98.9956552 65.5011559,68.3546586 65.5011559,68.3546586 L65.5011559,41.7079069 L13.4033022,41.7079069 L14.6958108,70.5401207 Z" id="Path_46" fill="#FEB19E"></path>
                        <path d="M9.27522483,54.4861207 C9.27522483,54.4861207 4.31237726,55.3935207 5.16160239,61.085831 C6.01082752,66.7781414 11.1844757,73.6823241 15.3848275,70.0491138 L9.27522483,54.4861207 Z" id="Path_47" fill="#FEB19E"></path>
                        <path d="M69.4413196,52.1093103 C69.4413196,52.1093103 74.4812599,52.3343552 74.4162129,58.0892448 C74.3511659,63.8441345 70.1652689,71.3861448 65.5023605,68.358269 L69.4413196,52.1093103 Z" id="Path_48" fill="#FEB19E"></path>
                        <path d="M69.4413196,52.1093103 C68.4719366,57.6018266 67.157966,63.028041 65.5071788,68.3558621 C65.5071788,68.3558621 61.5140138,67.5519586 60.2215052,57.0554828 C54.6753862,57.8418717 49.1817761,55.3132201 46.1761647,50.5905586 C46.1761647,50.5905586 44.8836561,58.6644931 36.5588407,52.932469 C31.0081607,57.4598414 24.445638,57.9364069 17.0001621,54.8700207 C17.0001621,54.8700207 18.2529197,65.4603655 14.6958108,70.5413241 C14.6958108,70.5413241 13.4033022,66.3593414 9.27522483,54.4873241 C8.10734363,54.5937348 7.04511914,55.2070666 6.36979076,56.164931 C6.36979076,56.164931 -2.55731199,38.714931 1.64544898,30.3232862 C5.84820994,21.9316414 11.5060971,25.1556793 11.5060971,25.1556793 C11.5060971,25.1556793 9.40411431,13.6904276 21.8509842,9.49159655 C34.2978541,5.29276552 34.2966495,-0.359831034 36.2372193,0.771410345 C38.177789,1.90265172 38.9848541,6.10027931 38.9848541,6.10027931 C38.9848541,6.10027931 60.4828979,3.839 66.302198,26.931969 C66.302198,26.931969 81.8279607,27.4277897 72.6153738,53.4270862 C72.6141692,53.4258828 72.0070636,52.35 69.4413196,52.1093103 Z" id="Path_49" fill="url(#linearGradient-5)"></path>
                    </g>
                </g>
            </g>
            <g id="Group_19" transform="translate(235.676235, 205.721307)">
                <path d="M86.3595706,0.474158621 L5.12426057,0.474158621 C2.48162032,0.474158621 0.338485477,2.61408609 0.338485477,5.25425517 L0.338485477,53.6954552 C0.338485477,56.3360942 2.48114997,58.4767552 5.12426057,58.4767552 L61.1598688,58.4767552 L75.7677457,71.4174345 C76.2558586,71.850477 76.9750528,71.8997091 77.5177249,71.5372284 C78.060397,71.1747478 78.2897141,70.4919527 78.0757107,69.8758172 L74.1259104,58.4767552 L86.3535477,58.4767552 C87.6228142,58.4767552 88.8400948,57.9730125 89.7376017,57.0763448 C90.6351087,56.1796771 91.1393228,54.9635348 91.1393228,53.6954552 L91.1393228,5.25425517 C91.1393228,2.61643406 88.9998586,0.477478222 86.3595706,0.474158621 L86.3595706,0.474158621 Z" id="Path_51" fill="#9ABCED" style="mix-blend-mode: multiply;"></path>
                <g id="Group_18" style="mix-blend-mode: multiply;" transform="translate(9.636597, 10.831034)" fill="#1E54A2">
                    <path d="M20.6873651,2.60305862 L1.97309328,2.60305862 C1.26857425,2.60305862 0.697448724,2.03246715 0.697448724,1.3286069 L0.697448724,1.3286069 C0.697448724,0.990601284 0.831846604,0.666439501 1.07107636,0.42743344 C1.31030612,0.188427379 1.63477131,0.0541551724 1.97309328,0.0541551724 L20.6873651,0.0541551724 C21.0256871,0.0541551724 21.3501522,0.188427379 21.589382,0.42743344 C21.8286118,0.666439501 21.9630096,0.990601284 21.9630096,1.3286069 L21.9630096,1.3286069 C21.9630096,2.03246715 21.3918841,2.60305862 20.6873651,2.60305862 Z" id="Path_52"></path>
                    <path d="M66.83462,13.6519172 L12.6058737,13.6519172 C11.9011599,13.651253 11.3302292,13.0803173 11.3302292,12.3762621 L11.3302292,12.3762621 C11.3302292,11.6724018 11.9013547,11.1018103 12.6058737,11.1018103 L66.83462,11.1018103 C67.172942,11.1018103 67.4974072,11.2360826 67.736637,11.4750886 C67.9758667,11.7140947 68.1102646,12.0382565 68.1102646,12.3762621 L68.1102646,12.3762621 C68.1102646,13.0803173 67.5393339,13.651253 66.83462,13.6519172 Z" id="Path_53"></path>
                    <path d="M66.83462,21.5128414 L1.97309328,21.5128414 C1.26857425,21.5128414 0.697448154,20.9422499 0.697448154,20.2383897 L0.697448154,20.2383897 C0.697448154,19.9001756 0.831385799,19.5757045 1.07065022,19.3364381 C1.30991463,19.0971717 1.6345625,18.9627345 1.97309328,18.9627345 L66.83462,18.9627345 C67.1731508,18.9627345 67.4977987,19.0971717 67.7370631,19.3364381 C67.9763275,19.5757045 68.1102652,19.9001756 68.1102652,20.2383897 L68.1102652,20.2383897 C68.1102652,20.5763953 67.9758667,20.9005571 67.736637,21.1395631 C67.4974072,21.3785692 67.172942,21.5128414 66.83462,21.5128414 Z" id="Path_54"></path>
                    <path d="M66.83462,29.3737655 L1.97309328,29.3737655 C1.26857425,29.3737655 0.697448724,28.803174 0.697448724,28.0993138 L0.697448724,28.0993138 C0.697448724,27.3952586 1.26837944,26.8243228 1.97309328,26.8236586 L66.83462,26.8236586 C67.5393339,26.8243228 68.1102646,27.3952586 68.1102646,28.0993138 L68.1102646,28.0993138 C68.1102646,28.4373194 67.9758667,28.7614812 67.736637,29.0004872 C67.4974072,29.2394933 67.172942,29.3737655 66.83462,29.3737655 Z" id="Path_55"></path>
                    <path d="M66.83462,37.2346897 L1.97309328,37.2346897 C1.26857425,37.2346897 0.697448724,36.6640982 0.697448724,35.9602379 L0.697448724,35.9602379 C0.697448724,35.2563777 1.26857425,34.6857862 1.97309328,34.6857862 L66.83462,34.6857862 C67.172942,34.6857862 67.4974072,34.8200584 67.736637,35.0590645 C67.9758667,35.2980705 68.1102646,35.6222323 68.1102646,35.9602379 L68.1102646,35.9602379 C68.1102646,36.6640982 67.5391391,37.2346897 66.83462,37.2346897 Z" id="Path_56"></path>
                </g>
            </g>
            <g id="Group_21" transform="translate(89.922702, 279.131652)">
                <rect id="Rectangle_3" fill="#C1C8D3" x="0.50471678" y="80.4529241" width="593.872168" height="12.5964931" rx="1.747"></rect>
                <g id="Group_20" transform="translate(439.669748, 0.000000)">
                    <path d="M6.71911741,49.3859069 L31.9344786,49.3859069 L31.9344786,71.1875759 C31.9344786,73.6289403 30.9637427,75.9703128 29.2358216,77.6966181 C27.5079005,79.4229235 25.1643365,80.3927517 22.7206871,80.3927517 L15.9329089,80.3927517 C10.8442724,80.3927517 6.71911741,76.2714541 6.71911741,71.1875759 L6.71911741,49.3859069 Z" id="Rectangle_4" fill="url(#linearGradient-6)"></path>
                    <path d="M14.7211068,49.3859069 L14.7211068,42.6646483 C14.7207872,42.1346104 14.931317,41.6261722 15.3063483,41.251266 C15.6813795,40.8763597 16.1901667,40.6657206 16.7207008,40.6657207 L19.2671716,40.6657207 C19.7977056,40.6657208 20.3064928,40.4550817 20.681524,40.0801754 C21.0565553,39.7052691 21.2670851,39.196831 21.2667655,38.6667931 L21.2667655,36.1239069 C21.2667657,35.0203995 20.3717116,34.1256437 19.2671716,34.1249793 L11.0820868,34.1249793 C8.38137232,34.1252985 5.79116275,33.0536708 3.88135626,31.1458758 C1.97154977,29.2380809 0.898612691,26.6504201 0.898612691,23.952231 L0.898612691,23.952231 C0.898612691,18.3333127 5.45790935,13.7782793 11.0820868,13.7782793 L21.9316907,13.7782793 C23.0367012,13.7782793 23.9324892,12.8833289 23.9324892,11.7793517 L23.9324892,10.8707483 C23.9324892,5.05177141 28.6541171,0.334558621 34.4785403,0.334558621 L34.4785403,0.334558621 C40.3031584,0.334558621 45.0251307,5.05157674 45.025796,10.8707483 L45.025796,10.8707483 C45.025796,13.8903459 43.8256862,16.7863779 41.6886227,18.9216687 C39.5515593,21.0569596 36.6529436,22.2565724 33.6305197,22.2565724 L14.5392161,22.2565724 C13.4346758,22.2565722 12.5390825,23.1507893 12.5384176,24.2542966 L12.5384176,24.2542966 C12.5384176,25.3582738 13.4342056,26.2532241 14.5392161,26.2532241 L24.9648097,26.2532241 C26.8136003,26.2532241 28.5866692,26.9869666 29.8939616,28.2930365 C31.201254,29.5991065 31.9356832,31.3705175 31.9356832,33.2175793 L31.9356832,37.5776724 C31.9356832,39.4247342 31.201254,41.1961452 29.8939616,42.5022152 C28.5866692,43.8082851 26.8136003,44.5420276 24.9648097,44.5420276 L24.9648097,44.5420276 C23.8602694,44.5420274 22.9646762,45.4362445 22.9640112,46.5397517 L22.9640112,49.3859069 L14.7211068,49.3859069 Z" id="Path_57" fill="url(#linearGradient-7)"></path>
                </g>
            </g>
            <g id="Group_25" transform="translate(454.908822, 194.890272)">
                <rect id="Rectangle_5" fill="#9ABCED" style="mix-blend-mode: multiply;" x="0.455329219" y="5.18325172" width="75.4051687" height="92.775031" rx="3.824"></rect>
                <path d="M75.4569654,94.8906931 L9.26558823,94.8906931 C6.18724207,94.887378 3.69239071,92.3953979 3.68840759,89.319931 L3.68840759,5.74887241 C3.69239071,2.67340555 6.18724207,0.181425429 9.26558823,0.178110345 L75.4569654,0.178110345 C78.5348412,0.182088355 81.0289597,2.67387473 81.0329415,5.74887241 L81.0329415,89.319931 C81.0289597,92.3949287 78.5348412,94.8867151 75.4569654,94.8906931 Z M9.26558823,2.11566207 C7.2574988,2.11698882 5.62976581,3.74266126 5.62777278,5.74887241 L5.62777278,89.319931 C5.62976581,91.3261422 7.2574988,92.9518146 9.26558823,92.9531414 L75.4569654,92.9531414 C77.4645844,92.9511512 79.0915843,91.3256728 79.0935763,89.319931 L79.0935763,5.74887241 C79.0915843,3.74313067 77.4645844,2.11765222 75.4569654,2.11566207 L9.26558823,2.11566207 Z" id="Path_58" fill="#4F7EB7"></path>
                <g id="Group_22" style="mix-blend-mode: multiply;" transform="translate(10.841172, 16.848276)">
                    <path d="M15.6389927,18.0204345 L0.928727057,18.0204345 L0.928727057,0.4188 L15.6389927,0.4188 L15.6389927,18.0204345 Z M2.8705014,16.0816793 L13.7020367,16.0816793 L13.7020367,2.36236897 L2.8705014,2.36236897 L2.8705014,16.0816793 Z" id="Path_59" fill="#0C3086" style="mix-blend-mode: multiply;"></path>
                    <path d="M11.9373348,12.5603897 L7.56231967,7.68762759 L9.00780925,6.39271724 L11.6578735,9.3507931 C14.5260352,5.80727136 18.2817553,3.08518699 22.5436146,1.46098621 L23.2820189,3.25171724 C15.49083,6.45770345 12.6311698,11.3437034 12.6046692,11.3930448 L11.9373348,12.5603897 Z" id="Path_60" fill="#0093FF"></path>
                    <path d="M53.1530611,7.01128966 L30.3335989,7.01128966 C29.5352771,7.01128966 28.8881093,6.36472708 28.8881093,5.56715172 L28.8881093,5.56715172 C28.8881093,4.76957637 29.5352771,4.12301379 30.3335989,4.12301379 L53.1530611,4.12301379 C53.951383,4.12301379 54.5985507,4.76957637 54.5985507,5.56715172 L54.5985507,5.56715172 C54.5985507,6.36472708 53.951383,7.01128966 53.1530611,7.01128966 Z" id="Path_61" fill="#0C3086"></path>
                    <path d="M53.1530611,13.9997138 L30.3335989,13.9997138 C29.5352771,13.9997138 28.8881093,13.3531512 28.8881093,12.5555759 L28.8881093,12.5555759 C28.8881093,11.7580005 29.5352771,11.1114379 30.3335989,11.1114379 L53.1530611,11.1114379 C53.951383,11.1114379 54.5985507,11.7580005 54.5985507,12.5555759 L54.5985507,12.5555759 C54.5985507,13.3531512 53.951383,13.9997138 53.1530611,13.9997138 Z" id="Path_62" fill="#0C3086"></path>
                </g>
                <g id="Group_23" style="mix-blend-mode: multiply;" transform="translate(10.841172, 43.324138)">
                    <path d="M15.6389927,18.5126448 L0.928727057,18.5126448 L0.928727057,0.911010345 L15.6389927,0.911010345 L15.6389927,18.5126448 Z M2.8705014,16.5750931 L13.7020367,16.5750931 L13.7020367,2.85578276 L2.8705014,2.85578276 L2.8705014,16.5750931 Z" id="Path_63" fill="#0C3086" style="mix-blend-mode: multiply;"></path>
                    <path d="M11.9373348,13.0538034 L7.56231967,8.17983793 L9.00780925,6.88613103 L11.6578735,9.8442069 C14.5256771,6.30030815 18.2815077,3.57814366 22.5436146,1.9544 L23.2820189,3.74392759 C15.49083,6.94991379 12.6311698,11.8359138 12.6046692,11.8852552 L11.9373348,13.0538034 Z" id="Path_64" fill="#0093FF"></path>
                    <path d="M53.1530611,7.5035 L30.3335989,7.5035 C29.5352771,7.5035 28.8881093,6.85693742 28.8881093,6.05936207 L28.8881093,6.05936207 C28.8881093,5.26178671 29.5352771,4.61522414 30.3335989,4.61522414 L53.1530611,4.61522414 C53.951383,4.61522414 54.5985507,5.26178671 54.5985507,6.05936207 L54.5985507,6.05936207 C54.5985507,6.85693742 53.951383,7.5035 53.1530611,7.5035 Z" id="Path_65" fill="#0C3086"></path>
                    <path d="M53.1530611,14.4919241 L30.3335989,14.4919241 C29.5352771,14.4919241 28.8881093,13.8453616 28.8881093,13.0477862 L28.8881093,13.0477862 C28.8881093,12.2502109 29.5352771,11.6036483 30.3335989,11.6036483 L53.1530611,11.6036483 C53.951383,11.6036483 54.5985507,12.2502109 54.5985507,13.0477862 L54.5985507,13.0477862 C54.5985507,13.8453616 53.951383,14.4919241 53.1530611,14.4919241 Z" id="Path_66" fill="#0C3086"></path>
                </g>
                <g id="Group_24" style="mix-blend-mode: multiply;" transform="translate(10.841172, 71.003448)">
                    <path d="M15.6389927,17.8026103 L0.928727057,17.8026103 L0.928727057,0.200975862 L15.6389927,0.200975862 L15.6389927,17.8026103 Z M2.8705014,15.8650586 L13.7020367,15.8650586 L13.7020367,2.13852759 L2.8705014,2.13852759 L2.8705014,15.8650586 Z" id="Path_67" fill="#0C3086" style="mix-blend-mode: multiply;"></path>
                    <path d="M11.9373348,12.3425655 L7.56231967,7.46980345 L9.00780925,6.1748931 L11.6578735,9.13296897 C14.5260352,5.58944723 18.2817553,2.86736285 22.5436146,1.24316207 L23.2820189,3.0338931 C15.49083,6.23987931 12.6311698,11.1258793 12.6046692,11.1752207 L11.9373348,12.3425655 Z" id="Path_68" fill="#0093FF"></path>
                    <path d="M53.1530611,6.79346552 L30.3335989,6.79346552 C29.5352771,6.79346552 28.8881093,6.14690294 28.8881093,5.34932759 L28.8881093,5.34932759 C28.8881093,4.55175223 29.5352771,3.90518966 30.3335989,3.90518966 L53.1530611,3.90518966 C53.951383,3.90518966 54.5985507,4.55175223 54.5985507,5.34932759 L54.5985507,5.34932759 C54.5985507,6.14690294 53.951383,6.79346552 53.1530611,6.79346552 L53.1530611,6.79346552 Z" id="Path_69" fill="#0C3086"></path>
                    <path d="M53.1530611,13.7818897 L30.3335989,13.7818897 C29.5352771,13.7818897 28.8881093,13.1353271 28.8881093,12.3377517 L28.8881093,12.3377517 C28.8881093,11.5401764 29.5352771,10.8936138 30.3335989,10.8936138 L53.1530611,10.8936138 C53.951383,10.8936138 54.5985507,11.5401764 54.5985507,12.3377517 L54.5985507,12.3377517 C54.5985507,13.1353271 53.951383,13.7818897 53.1530611,13.7818897 Z" id="Path_70" fill="#0C3086"></path>
                </g>
            </g>
            <g id="Group_28" transform="translate(687.391730, 65.988411)">
                <rect id="Rectangle_6" fill="#121929" opacity="0.645321801" style="mix-blend-mode: multiply;" x="0.499898481" y="6.28853406" width="75.4051687" height="92.775031" rx="3.824"></rect>
                <circle id="Oval" fill="#FFFFFF" cx="24.1878733" cy="30.6448276" r="12"></circle>
                <rect id="Rectangle" fill="#849EC7" x="34.1878733" y="52.0122065" width="35" height="4" rx="2"></rect>
                <rect id="Rectangle-Copy-5" fill="#849EC7" x="34.1878733" y="62.0122065" width="35" height="4" rx="2"></rect>
                <rect id="Rectangle-Copy-6" fill="#849EC7" x="34.1878733" y="82.0122065" width="35" height="4" rx="2"></rect>
                <rect id="Rectangle-Copy-7" fill="#849EC7" x="34.1878733" y="72.0122065" width="35" height="4" rx="2"></rect>
                <path d="M26.1878733,29.063195 L34.3557868,15.0122065 C41.8356314,18.0738722 44.2046282,23.1877251 41.4627772,30.3537651 L28.9823946,29.3298334 L26.1878733,29.063195 Z" id="Path-7" fill="#0093FF"></path>
                <path d="M77.1180738,94.7467961 L10.9266967,94.7467961 C7.84854615,94.7434798 5.35404009,92.2513063 5.35072061,89.1760341 L5.35072061,5.60497544 C5.35404009,2.52970324 7.84854615,0.0375297454 10.9266967,0.03421337 L77.1180738,0.03421337 C80.19642,0.037528454 82.6912714,2.52950858 82.6952545,5.60497544 L82.6952545,89.1760341 C82.6912714,92.2515009 80.19642,94.743481 77.1180738,94.7467961 Z M10.9266967,1.97176509 C8.91935244,1.97441696 7.29274014,3.59950824 7.2900858,5.60497544 L7.2900858,89.1760341 C7.29274014,91.1815013 8.91935244,92.8065925 10.9266967,92.8092444 L77.1180738,92.8092444 C79.1256929,92.8072543 80.7526927,91.1817758 80.7546847,89.1760341 L80.7546847,5.60497544 C80.7526927,3.5992337 79.1256929,1.97375525 77.1180738,1.97176509 L10.9266967,1.97176509 Z" id="Path_71" fill="#4F7EB7"></path>
            </g>
            <g id="Group_30" transform="translate(116.423345, 24.000617)">
                <rect id="Rectangle_7" fill="#121929" opacity="0.645321801" style="mix-blend-mode: multiply;" x="5.33747029" y="5.54789655" width="75.4051687" height="108.277852" rx="3.824"></rect>
                <path d="M71.9335845,110.596897 L5.74220737,110.596897 C2.66358644,110.594243 0.168347358,108.101876 0.165026727,105.026134 L0.165026727,5.95225517 C0.168347358,2.87651365 2.66358644,0.38414625 5.74220737,0.381493103 L71.9335845,0.381493103 C75.0117351,0.384809479 77.5062411,2.87698297 77.5095606,5.95225517 L77.5095606,105.026134 C77.5062411,108.101407 75.0117351,110.59358 71.9335845,110.596897 L71.9335845,110.596897 Z M5.74220737,2.31904483 C3.73466731,2.32169508 2.10770951,3.94659332 2.10439192,5.95225517 L2.10439192,105.026134 C2.10770951,107.031796 3.73466731,108.656695 5.74220737,108.659345 L71.9335845,108.659345 C73.9409288,108.656693 75.5675411,107.031602 75.5701954,105.026134 L75.5701954,5.95225517 C75.5675411,3.94678797 73.9409288,2.32169669 71.9335845,2.31904483 L5.74220737,2.31904483 Z" id="Path_79" fill="#4F7EB7"></path>
                <g id="Group_29" transform="translate(12.045747, 19.255172)" fill="#FFFFFF">
                    <path d="M19.5405777,17.2403635 L23.7147473,17.2423021 L23.721538,31.8611135 C23.7217167,32.2469122 23.5686136,32.6168385 23.2959092,32.8895127 C23.0232047,33.1621869 22.6532374,33.315273 22.2673959,33.3150943 L21.0028609,33.3145065 C20.1993875,33.3141334 19.5477411,32.6625592 19.5473679,31.8591748 L19.5405777,17.2403635 Z" id="Rectangle_8" transform="translate(21.631058, 25.277729) rotate(-41.595482) translate(-21.631058, -25.277729) "></path>
                    <path d="M11.350707,0.584875862 C5.19098859,0.584875862 0.197550243,5.57364493 0.197550243,11.7276034 C0.197550243,17.881562 5.19098859,22.870331 11.350707,22.870331 C17.5104253,22.870331 22.5038637,17.881562 22.5038637,11.7276034 C22.5031985,5.5739202 17.5101498,0.585540371 11.350707,0.584875862 Z M11.350707,19.3213621 C7.15286454,19.3213621 3.74984089,15.9215205 3.74984089,11.7276034 C3.74984089,7.53368637 7.15286454,4.13384483 11.350707,4.13384483 C15.5485494,4.13384483 18.951573,7.53368637 18.951573,11.7276034 C18.949579,15.9206951 15.5477231,19.3193699 11.350707,19.3213621 L11.350707,19.3213621 Z" id="Path_80"></path>
                    <path d="M56.5355068,6.72125862 L38.9161933,6.72125862 C37.8005385,6.72125862 36.8961205,5.81768742 36.8961205,4.70307586 L36.8961205,4.70307586 C36.895802,4.16761203 37.1084893,3.65397013 37.4873609,3.27522712 C37.8662324,2.89648411 38.3802282,2.68368966 38.9161933,2.68368966 L56.5355068,2.68368966 C57.0714718,2.68368966 57.5854676,2.89648411 57.9643392,3.27522712 C58.3432108,3.65397013 58.555898,4.16761203 58.5555796,4.70307586 L58.5555796,4.70307586 C58.5555796,5.81768742 57.6511615,6.72125862 56.5355068,6.72125862 Z" id="Path_81"></path>
                    <path d="M56.5355068,17.2177345 L38.9161933,17.2177345 C37.8005385,17.2177345 36.8961216,16.3141633 36.8961216,15.1995517 L36.8961216,15.1995517 C36.8961216,14.0849402 37.8005385,13.181369 38.9161933,13.181369 L56.5355068,13.181369 C57.6511615,13.181369 58.5555784,14.0849402 58.5555784,15.1995517 L58.5555784,15.1995517 C58.5555784,15.7348071 58.3427501,16.2481398 57.9639131,16.6266224 C57.5850762,17.0051051 57.0712631,17.2177345 56.5355068,17.2177345 Z" id="Path_82"></path>
                    <path d="M56.5355068,26.9079 L38.9161933,26.9079 C38.3802282,26.9079 37.8662324,26.6951055 37.4873609,26.3163625 C37.1084893,25.9376195 36.895802,25.4239776 36.8961045,24.8885138 L36.8961045,24.8885138 C36.8948417,24.3524249 37.1071049,23.8378547 37.4860807,23.4583302 C37.8650564,23.0788057 38.3796011,22.8655172 38.9161933,22.8655172 L56.5355068,22.8655172 C57.6511615,22.8655172 58.5556051,23.7690884 58.5556051,24.8837 L58.5556051,24.8837 C58.5571789,25.4199972 58.3450573,25.934877 57.9660468,26.3146621 C57.5870362,26.6944472 57.0723082,26.9079 56.5355068,26.9079 L56.5355068,26.9079 Z" id="Path_83"></path>
                    <path d="M34.5929749,53.8759724 L7.43704391,53.8759724 C6.16505109,53.8759724 5.13389717,52.8457827 5.13389717,51.5749793 L5.13389717,51.5749793 C5.13389717,50.3041759 6.16505109,49.2739862 7.43704391,49.2739862 L34.5929749,49.2739862 C35.8649677,49.2739862 36.8961216,50.3041759 36.8961216,51.5749793 L36.8961216,51.5749793 C36.8961216,52.8457827 35.8649677,53.8759724 34.5929749,53.8759724 L34.5929749,53.8759724 Z" id="Path_84"></path>
                    <path d="M34.5929749,68.2896724 L7.43704391,68.2896724 C6.82600265,68.2896724 6.24000564,68.0470819 5.8080472,67.6153017 C5.37608876,67.1835215 5.13357759,66.5979457 5.13389623,65.9874759 L5.13389623,65.9874759 C5.13389623,64.7166725 6.16505109,63.6864828 7.43704391,63.6864828 L34.5929749,63.6864828 C35.8649677,63.6864828 36.8961225,64.7166725 36.8961225,65.9874759 L36.8961225,65.9874759 C36.8964412,66.5979457 36.65393,67.1835215 36.2219716,67.6153017 C35.7900131,68.0470819 35.2040161,68.2896724 34.5929749,68.2896724 L34.5929749,68.2896724 Z" id="Path_85"></path>
                    <path d="M34.5929749,82.702169 L7.43704391,82.702169 C6.16505109,82.702169 5.13389717,81.6719793 5.13389717,80.4011759 L5.13389717,80.4011759 C5.13389717,79.1303725 6.16505109,78.1001828 7.43704391,78.1001828 L34.5929749,78.1001828 C35.8649677,78.1001828 36.8961216,79.1303725 36.8961216,80.4011759 L36.8961216,80.4011759 C36.8961216,81.6719793 35.8649677,82.702169 34.5929749,82.702169 Z" id="Path_86"></path>
                    <path d="M55.868173,51.5749793 C55.8686596,53.0695189 54.9678387,54.4171445 53.585865,54.9893049 C52.2038913,55.5614653 50.6130045,55.2454486 49.5552163,54.1886495 C48.4974281,53.1318504 48.1811157,51.5424512 48.7538116,50.1617698 C49.3265075,48.7810884 50.6753944,47.8811098 52.1713328,47.881596 C54.2127655,47.8822608 55.8675075,49.5354555 55.868173,51.5749793 Z" id="Path_87"></path>
                    <path d="M55.868173,65.9874759 C55.8686596,67.4820154 54.9678387,68.829641 53.585865,69.4018014 C52.2038913,69.9739618 50.6130045,69.6579452 49.5552163,68.6011461 C48.4974281,67.544347 48.1811157,65.9549478 48.7538116,64.5742664 C49.3265075,63.193585 50.6753944,62.2936064 52.1713328,62.2940925 C54.2130409,62.2940925 55.868173,63.9476769 55.868173,65.9874759 L55.868173,65.9874759 Z" id="Path_88"></path>
                    <path d="M55.868173,80.4011759 C55.868173,81.895606 54.9670424,83.2428623 53.5850301,83.8146434 C52.2030178,84.3864246 50.6123286,84.0701108 49.5547902,83.013217 C48.4972518,81.9563232 48.1811602,80.3670185 48.7539267,78.9864849 C49.3266933,77.6059512 50.675504,76.7061029 52.1713328,76.7065891 C53.1520044,76.7065891 54.0924926,77.0958779 54.7858191,77.7887819 C55.4791457,78.4816858 55.8684919,79.4214214 55.868173,80.4011759 L55.868173,80.4011759 Z" id="Path_89"></path>
                </g>
            </g>
            <g id="Group_32" transform="translate(387.579603, 37.238548)">
                <rect id="Rectangle_9" fill="#121929" opacity="0.645321801" style="mix-blend-mode: multiply;" x="0" y="6" width="137.232372" height="96.4082414" rx="6.642"></rect>
                <path d="M131.934246,98.6310103 L10.7046489,98.6310103 C5.75267726,98.6250437 1.73961395,94.6162713 1.73297685,89.668931 L1.73297685,9.24729655 C1.73895045,4.29948632 5.75220769,0.289981808 10.7046489,0.284013793 L131.934246,0.284013793 C136.886492,0.289983128 140.899404,4.29968099 140.904714,9.24729655 L140.904714,89.668931 C140.89874,94.6160766 136.886022,98.6250423 131.934246,98.6310103 Z M10.7046489,2.22156552 C6.8227392,2.22620739 3.67698826,5.3690168 3.67234204,9.24729655 L3.67234204,89.668931 C3.67698956,93.5470154 6.82293406,96.6894798 10.7046489,96.6934586 L131.934246,96.6934586 C135.815766,96.6894786 138.961365,93.5468207 138.965349,89.668931 L138.965349,9.24729655 C138.961366,5.36921148 135.815961,2.22620869 131.934246,2.22156552 L10.7046489,2.22156552 Z" id="Path_90" fill="#4F7EB7"></path>
                <g id="Group_31" transform="translate(6.250321, 9.051724)">
                    <rect id="Rectangle" fill="#0093FF" x="112.749679" y="0.710344828" width="12" height="4" rx="2"></rect>
                    <rect id="Rectangle-Copy-2" fill="#FFFFFF" x="0.749678819" y="0.710344828" width="10" height="4" rx="2"></rect>
                    <rect id="Rectangle-Copy-4" fill="#849EC7" x="18.7496788" y="77.7103448" width="97" height="5" rx="2.5"></rect>
                    <rect id="Rectangle-Copy-3" fill="#FFFFFF" x="26" y="12" width="83" height="59" rx="1"></rect>
                </g>
            </g>
            <path d="M12.1421125,155.645824 L126.906758,155.645824 C130.477918,155.645824 133.372915,158.538114 133.372915,162.105935 L133.372915,231.5449 C133.372915,235.112056 130.478457,238.003807 126.907963,238.003807 L12.1421125,238.003807 C8.57208838,238.003807 5.67716034,235.112789 5.67716034,231.546103 L5.67716034,162.104731 C5.67716034,158.537575 8.57161801,155.645824 12.1421125,155.645824 Z" id="Rectangle_11" fill="#121929" opacity="0.645321801" style="mix-blend-mode: multiply;"></path>
            <path d="M122.205303,234.208131 L7.43583933,234.208131 C3.33153459,234.20349 0.00531039027,230.880914 0,226.780448 L0,157.342686 C0.00531039027,153.24222 3.33153459,149.919645 7.43583933,149.915003 L122.205303,149.915003 C126.309608,149.919645 129.635832,153.24222 129.641142,157.342686 L129.641142,226.781652 C129.635169,230.881648 126.309138,234.203491 122.205303,234.208131 Z M7.43583933,151.848945 C4.40206611,151.85226 1.94334819,154.30814 1.93936519,157.339076 L1.93936519,226.778041 C1.94334946,229.808782 4.40226099,232.264317 7.43583933,232.266969 L122.205303,232.266969 C125.238686,232.264316 127.697252,229.808587 127.700573,226.778041 L127.700573,157.342686 C127.697253,154.311945 125.238881,151.855871 122.205303,151.852555 L7.43583933,151.848945 Z" id="Path_98" fill="#4F7EB7"></path>
            <path d="M51.6304788,193.666366 C45.890828,199.413454 36.8121518,200.115994 30.2551487,195.320463 C23.6981455,190.524932 21.6251021,181.666468 25.3742621,174.463613 C29.1234222,167.260759 37.5727905,163.869081 45.2679155,166.478062 L39.9918785,182.057903 L51.6304788,193.666366 Z" id="Path_99" fill="#FFFFFF"></path>
            <path d="M42.5796034,181.231328 L47.0594166,168.000617 C56.3287543,173.995228 58.129995,181.691681 52.4631385,191.089976 L43.3326964,182.048369 L42.5796034,181.231328 Z" id="Path-5" fill="#0093FF"></path>
            <rect id="Rectangle" fill="#0093FF" x="94.5796034" y="176.000617" width="5" height="22"></rect>
            <path d="M114.216564,199.463376 L76.3929199,199.463376 L76.3929199,167.558759 C76.3929199,167.023719 76.8270616,166.589983 77.3626025,166.589983 C77.8981434,166.589983 78.3322851,167.023719 78.3322851,167.558759 L78.3322851,197.524621 L114.216564,197.524621 C114.752105,197.524621 115.186247,197.958356 115.186247,198.493397 C115.186247,199.028437 114.752105,199.462172 114.216564,199.462172 L114.216564,199.463376 Z" id="Path_101" fill="#FFFFFF"></path>
            <rect id="Rectangle_12" fill="#FFFFFF" x="84.3142028" y="183.025476" width="4.84961755" height="14.4979414"></rect>
            <rect id="Rectangle_14" fill="#FFFFFF" x="104.195707" y="186.596107" width="4.84961755" height="10.9261069"></rect>
            <rect id="Rectangle_15" fill="#FFFFFF" x="22.7327328" y="210.874472" width="26.1862484" height="3.39131724" rx="1.409"></rect>
            <rect id="Rectangle_16" fill="#FFFFFF" x="57.4810979" y="210.874472" width="26.1850438" height="3.39131724" rx="1.409"></rect>
            <rect id="Rectangle_17" fill="#FFFFFF" x="90.1322984" y="210.874472" width="26.1862484" height="3.39131724" rx="1.409"></rect>
            <path d="M62.1717116,226.377293 L39.3811591,226.377293 C38.4437962,226.377293 37.6839134,225.618121 37.6839134,224.681635 L37.6839134,224.681635 C37.6839134,223.745148 38.4437962,222.985976 39.3811591,222.985976 L62.1717116,222.985976 C63.1090745,222.985976 63.8689572,223.745148 63.8689572,224.681635 L63.8689572,224.681635 C63.8689572,225.618121 63.1090745,226.377293 62.1717116,226.377293 L62.1717116,226.377293 Z" id="Path_102" fill="#FFFFFF"></path>
            <path d="M94.8241167,226.377293 L72.0323597,226.377293 C71.0949968,226.377293 70.335114,225.618121 70.335114,224.681635 L70.335114,224.681635 C70.335114,223.745148 71.0949968,222.985976 72.0323597,222.985976 L94.8241167,222.985976 C95.7614796,222.985976 96.5213624,223.745148 96.5213624,224.681635 L96.5213624,224.681635 C96.5213624,225.618121 95.7614796,226.377293 94.8241167,226.377293 L94.8241167,226.377293 Z" id="Path_103" fill="#FFFFFF"></path>
            <rect id="Rectangle" fill="#849EC7" x="404.579603" y="65.0006173" width="8" height="4" rx="2"></rect>
            <rect id="Rectangle" fill="#849EC7" x="404.579603" y="75.0006173" width="8" height="4" rx="2"></rect>
            <rect id="Rectangle" fill="#849EC7" x="404.579603" y="85.0006173" width="8" height="4" rx="2"></rect>
        </g>
    </g>
</svg>