<?xml version="1.0" encoding="UTF-8"?>
<svg width="16px" height="16px" viewBox="0 0 16 16" version="1.1" xmlns="http://www.w3.org/2000/svg" xmlns:xlink="http://www.w3.org/1999/xlink">
    <title>eraser_w</title>
    <g id="Login-Signup-Flow" stroke="none" stroke-width="1" fill="none" fill-rule="evenodd">
        <g id="App-icons" transform="translate(-426.000000, -117.000000)">
            <g id="eraser_w" transform="translate(426.000000, 117.000000)">
                <rect id="Rectangle" x="0" y="0" width="16" height="16"></rect>
                <g id="Group" transform="translate(0.500000, 0.500000)">
                    <path d="M7.5,14.5 C11.3659932,14.5 14.5,11.3659932 14.5,7.5 C14.5,3.63400675 11.3659932,0.5 7.5,0.5 C3.63400675,0.5 0.5,3.63400675 0.5,7.5 C0.5,11.3659932 3.63400675,14.5 7.5,14.5 Z" id="Oval" fill="#C2C6D1"></path>
                    <path d="M10.6401839,0.687175058 L10.2210512,1.59510005 C9.37560029,1.20480775 8.45276575,1 7.5,1 L7.5,-8.52651283e-14 C8.59823367,-8.52651283e-14 9.66399012,0.236526888 10.6401839,0.687175058 Z M14.7195076,5.46147878 L13.7570033,5.73274547 C13.5018069,4.82726156 13.0518961,3.99073805 12.4419566,3.27758706 L13.2019146,2.6276148 C13.9054892,3.4502455 14.4248018,4.41580846 14.7195076,5.46147878 Z M13.7516241,11.6447028 L12.9186347,11.0914138 C13.436715,10.3114318 13.7811734,9.42832631 13.9244534,8.49460564 L14.9128838,8.64628095 C14.7474355,9.7244663 14.3495825,10.7444624 13.7516241,11.6447028 Z M8.37844691,14.9490532 L8.26248676,13.9557993 C9.20229393,13.8460789 10.0966157,13.5338964 10.8939039,13.0447598 L11.416836,13.8971342 C10.4964779,14.4617742 9.46342249,14.8223847 8.37844691,14.9490532 Z M2.44384653,13.0394935 L3.11818968,12.3010754 C3.81134807,12.9340862 4.63317531,13.4112526 5.52912144,13.6959729 L5.22625928,14.6490072 C4.19170855,14.3202402 3.24330835,13.7695834 2.44384653,13.0394935 Z M0.00366603708,7.26339271 L1.00318503,7.29440537 C1.00106313,7.36279301 1,7.43132957 1,7.5 C1,8.35930921 1.16655732,9.19456772 1.48619273,9.97144318 L0.561408014,10.3519339 C0.192322734,9.45487033 -1.42108547e-13,8.49040238 -1.42108547e-13,7.5 C-1.42108547e-13,7.42098957 0.00122349912,7.34211421 0.00366603708,7.26339271 Z M2.81426652,1.64357239 L3.43947103,2.42403336 C2.70656396,3.01114382 2.10710424,3.75067363 1.6862059,4.5897299 L0.792363341,4.14134895 C1.27799849,3.17324055 1.96920462,2.32052681 2.81426652,1.64357239 Z M7.5,-8.52651283e-14 L7.5,1 C6.99890987,1 6.50557199,1.05660895 6.02638491,1.16764353 L5.80065122,0.193454483 C6.35372797,0.0652986016 6.92279472,-8.52651283e-14 7.5,-8.52651283e-14 Z" id="Oval" fill="#5B5D63" fill-rule="nonzero"></path>
                </g>
            </g>
        </g>
    </g>
</svg>