<?xml version="1.0" encoding="UTF-8"?>
<svg width="16px" height="22px" viewBox="0 0 16 22" version="1.1" xmlns="http://www.w3.org/2000/svg" xmlns:xlink="http://www.w3.org/1999/xlink">
    <title>text_w</title>
    <defs>
        <path d="M5,0 C5.55228475,0 6,0.44771525 6,1 C6,1.51283584 5.61395981,1.93550716 5.11662113,1.99327227 L5,2 L4,2 L4,12 L5,12 C5.55228475,12 6,12.4477153 6,13 C6,13.5128358 5.61395981,13.9355072 5.11662113,13.9932723 L5,14 L1,14 C0.44771525,14 0,13.5522847 0,13 C0,12.4871642 0.38604019,12.0644928 0.883378875,12.0067277 L1,12 L2,12 L2,2 L1,2 C0.44771525,2 0,1.55228475 0,1 C0,0.487164161 0.38604019,0.0644928393 0.883378875,0.00672773132 L1,0 L5,0 Z" id="path-1"></path>
        <filter x="-108.3%" y="-39.3%" width="316.7%" height="192.9%" filterUnits="objectBoundingBox" id="filter-2">
            <feOffset dx="0" dy="1" in="SourceAlpha" result="shadowOffsetOuter1"></feOffset>
            <feGaussianBlur stdDeviation="2" in="shadowOffsetOuter1" result="shadowBlurOuter1"></feGaussianBlur>
            <feColorMatrix values="0 0 0 0 0   0 0 0 0 0   0 0 0 0 0  0 0 0 0.24 0" type="matrix" in="shadowBlurOuter1"></feColorMatrix>
        </filter>
    </defs>
    <g id="Login-Signup-Flow" stroke="none" stroke-width="1" fill="none" fill-rule="evenodd">
        <g id="App-icons" transform="translate(-386.000000, -115.000000)">
            <g id="text_w" transform="translate(386.000000, 117.000000)">
                <rect id="Rectangle" x="0" y="0" width="16" height="16"></rect>
                <g id="Group-25" transform="translate(5.000000, 1.000000)" fill-rule="nonzero">
                    <g id="Combined-Shape">
                        <use fill="black" fill-opacity="1" filter="url(#filter-2)" xlink:href="#path-1"></use>
                        <use fill="#FFFFFF" xlink:href="#path-1"></use>
                    </g>
                    <path d="M1,13.5 C0.723857625,13.5 0.5,13.2761424 0.5,13 C0.5,12.7545401 0.676875161,12.5503916 0.910124368,12.5080557 L1,12.5 L2.5,12.5 L2.5,1.5 L1,1.5 C0.723857625,1.5 0.5,1.27614237 0.5,1 C0.5,0.754540111 0.676875161,0.55039163 0.910124368,0.508055669 L1,0.5 L5,0.5 C5.27614237,0.5 5.5,0.723857625 5.5,1 C5.5,1.24545989 5.32312484,1.44960837 5.08987563,1.49194433 L5,1.5 L3.5,1.5 L3.5,12.5 L5,12.5 C5.27614237,12.5 5.5,12.7238576 5.5,13 C5.5,13.2454599 5.32312484,13.4496084 5.08987563,13.4919443 L5,13.5 L1,13.5 Z" id="Combined-Shape" fill="#000000"></path>
                </g>
            </g>
        </g>
    </g>
</svg>