<?xml version="1.0" encoding="UTF-8"?>
<svg width="16px" height="16px" viewBox="0 0 16 16" version="1.1" xmlns="http://www.w3.org/2000/svg" xmlns:xlink="http://www.w3.org/1999/xlink">
    <title>blue_tick</title>
    <g id="Login-Signup-Flow" stroke="none" stroke-width="1" fill="none" fill-rule="evenodd">
        <g id="blue_tick">
            <rect id="Rectangle" x="0" y="0" width="16" height="16"></rect>
            <path d="M8,0 C12.418278,0 16,3.581722 16,8 C16,12.418278 12.418278,16 8,16 C3.581722,16 0,12.418278 0,8 C0,3.581722 3.581722,0 8,0 Z M12.5134028,4.96644661 C12.3181407,4.77118446 12.0015582,4.77118446 11.806296,4.96644661 L11.806296,4.96644661 L6.793,9.98 L4.81761873,8.03435232 L4.74837085,7.97649687 C4.55350271,7.84150081 4.2840783,7.86078597 4.11051195,8.03435232 C3.91524981,8.22961446 3.91524981,8.54619695 4.11051195,8.7414591 L4.11051195,8.7414591 L6.43931782,11.0405316 L6.50856571,11.0983871 C6.70343385,11.2333831 6.97285825,11.214098 7.1464246,11.0405316 L7.1464246,11.0405316 L12.5134028,5.67355339 L12.5712583,5.6043055 C12.7062543,5.40943736 12.6869692,5.14001296 12.5134028,4.96644661 Z" id="Combined-Shape" fill="#007AFF"></path>
        </g>
    </g>
</svg>